<?xml version="1.0" encoding="utf-8"?>
<!-- Generator: Adobe Illustrator 26.0.0, SVG Export Plug-In . SVG Version: 6.00 Build 0)  -->
<svg version="1.1" id="Capa_1" xmlns="http://www.w3.org/2000/svg" xmlns:xlink="http://www.w3.org/1999/xlink" x="0px" y="0px"
	 viewBox="0 0 500 500" style="enable-background:new 0 0 500 500;" xml:space="preserve">
<style type="text/css">
	.st0{fill:#5A29E4;}
	.st1{fill-rule:evenodd;clip-rule:evenodd;fill:#5A29E4;}
</style>
<path class="st0" d="M248.2,223.09l-18.08,14.73h11.81v47.87l6.27-5.05V223.09z"/>
<path class="st0" d="M253.41,276.36l18.39-15.1h-12.14v-46.78l-6.26,4.36V276.36z"/>
<path class="st0" d="M481.1,231.69c2.08,1.08,3.58,2,4.5,2.75l6.5-12.38c-3.25-2-7.17-3.79-11.75-5.38
	c-4.5-1.58-9.38-2.38-14.63-2.38c-5,0-9.63,0.83-13.88,2.5c-4.17,1.67-7.5,4.13-10,7.38c-2.42,3.25-3.63,7.29-3.63,12.13
	c0,5.42,1.71,9.59,5.13,12.5c3.5,2.83,8.84,5.17,16.01,7c5.75,1.5,10.38,2.88,13.88,4.13c3.58,1.17,5.38,3.13,5.38,5.88
	c0,4.08-3.83,6.13-11.5,6.13c-3.83,0-7.46-0.46-10.88-1.38c-3.42-0.92-6.42-2.04-9-3.38c-2.5-1.33-4.29-2.54-5.38-3.63l-6.75,13.13
	c4.33,2.75,9.3,4.92,14.88,6.5c5.59,1.58,11.21,2.38,16.88,2.38c4.92,0,9.5-0.67,13.76-2c4.25-1.42,7.67-3.67,10.25-6.75
	c2.67-3.17,4-7.34,4-12.5c0-4.25-1-7.67-3-10.25c-1.92-2.67-4.71-4.79-8.38-6.38c-3.58-1.58-7.84-3-12.75-4.25
	c-5.59-1.33-9.84-2.54-12.75-3.63c-2.83-1.08-4.25-2.92-4.25-5.5c0-4.42,3.92-6.63,11.75-6.63c2.92,0,5.75,0.42,8.5,1.25
	C476.72,229.69,479.09,230.61,481.1,231.69z"/>
<path class="st1" d="M349.5,285.21c-5.5,0-10.5-0.96-15.01-2.88c-4.5-2-8.38-4.67-11.63-8c-3.25-3.42-5.75-7.25-7.5-11.5
	c-1.75-4.25-2.63-8.63-2.63-13.13c0-4.59,0.92-9,2.75-13.26c1.83-4.25,4.42-8,7.76-11.25c3.33-3.33,7.25-5.96,11.75-7.88
	s9.42-2.88,14.76-2.88c5.5,0,10.51,1.04,15.01,3.13c4.5,2,8.34,4.71,11.5,8.13c3.25,3.33,5.75,7.13,7.5,11.38
	c1.75,4.25,2.63,8.59,2.63,13c0,4.59-0.92,9-2.75,13.26c-1.83,4.17-4.42,7.92-7.76,11.25c-3.25,3.25-7.13,5.84-11.63,7.75
	C359.76,284.25,354.84,285.21,349.5,285.21z M327.99,249.82c0,3.75,0.88,7.34,2.63,10.75c1.75,3.33,4.21,6.04,7.38,8.13
	c3.25,2.08,7.13,3.13,11.63,3.13c4.59,0,8.46-1.08,11.63-3.25c3.17-2.25,5.59-5.04,7.25-8.38c1.67-3.42,2.5-6.92,2.5-10.5
	c0-3.75-0.88-7.29-2.63-10.63c-1.75-3.33-4.25-6-7.51-8c-3.17-2.08-6.96-3.13-11.38-3.13c-4.59,0-8.51,1.08-11.76,3.25
	c-3.17,2.17-5.59,4.92-7.25,8.25C328.82,242.78,327.99,246.24,327.99,249.82z"/>
<path class="st1" d="M5.15,284.71l30.51-69.9h12.38l30.39,69.9H62.42l-7-16.38H28.28l-7,16.38H5.15z M41.91,233.19L31.66,255.2
	h20.13L41.91,233.19z"/>
<path class="st0" d="M137.55,214.81l19.26,24.76l19.26-24.76h16.38l-27.64,35.39l26.76,34.51h-16.38l-18.38-23.76l-18.26,23.76
	h-16.63l26.89-34.51l-27.76-35.39H137.55z"/>
</svg>
