<?xml version="1.0" encoding="utf-8"?>
<!-- Generator: Adobe Illustrator 26.0.0, SVG Export Plug-In . SVG Version: 6.00 Build 0)  -->
<svg version="1.1" id="Capa_1" xmlns="http://www.w3.org/2000/svg" xmlns:xlink="http://www.w3.org/1999/xlink" x="0px" y="0px"
	 viewBox="0 0 500 500" style="enable-background:new 0 0 500 500;" xml:space="preserve">
<style type="text/css">
	.st0{fill:#76DD00;}
	.st1{fill:#A8F838;}
	.st2{fill:#ECECEC;}
	.st3{fill:#FFFFFF;}
</style>
<g>
	<polygon class="st0" points="78.28,104.4 111.25,458.53 252.48,500 392.75,458.82 425.72,104.4 	"/>
	<polygon class="st1" points="252.48,134.45 252.48,468.99 366.38,437.17 393.9,134.45 	"/>
	<polygon class="st2" points="141.92,177.02 162.99,398.9 252.48,423.7 252.48,379.41 203.41,364.07 191.37,221.31 	"/>
	<polygon class="st3" points="252.48,177.02 252.48,221.31 313.39,221.31 310.67,265.89 354.67,265.89 361.55,177.02 	"/>
	<polygon class="st3" points="252.48,379.41 345.74,351.82 341.87,398.47 252.48,423.7 	"/>
	<path class="st2" d="M191.37,221.31c61.11,0,61.11,0,61.11,0v-44.29H141.92"/>
</g>
<g>
	<path d="M104.94,0h23.02v22.75h21.06V0h23.02v68.88h-23.02V45.82h-21.06v23.07h-23.02L104.94,0z M202.33,22.84h-20.27V0h63.57
		v22.84h-20.28v46.04h-23.03L202.33,22.84L202.33,22.84z M255.72,0h24.01l14.77,24.2L309.25,0h24.02v68.88h-22.93V34.74
		l-15.84,24.49h-0.4l-15.85-24.49v34.14h-22.53L255.72,0L255.72,0z M344.72,0h23.03v46.11h32.38v22.77h-55.41V0z"/>
</g>
</svg>
