<?xml version="1.0" encoding="utf-8"?>
<!-- Generator: Adobe Illustrator 26.0.0, SVG Export Plug-In . SVG Version: 6.00 Build 0)  -->
<svg version="1.1" id="Capa_1" xmlns="http://www.w3.org/2000/svg" xmlns:xlink="http://www.w3.org/1999/xlink" x="0px" y="0px"
	 viewBox="0 0 500 500" style="enable-background:new 0 0 500 500;" xml:space="preserve">
<style type="text/css">
	.st0{enable-background:new    ;}
	.st1{fill:#761F85;}
</style>
<g class="st0">
	<path class="st1" d="M75.3,251H43.9v52.1h-27V178.5h27V229h31.4v-50.5h27v124.6h-27V251z"/>
</g>
<g class="st0">
	<path class="st1" d="M198,200.4v102.7h-26.8V200.4h-35.9v-22h98.6v22H198z"/>
</g>
<g class="st0">
	<path class="st1" d="M330.1,200.4v102.7h-26.8V200.4h-35.9v-22H366v22H330.1z"/>
	<path class="st1" d="M399.7,303.1V178.5H448c24.5,0,38.2,15.5,38.2,39.6s-13.8,39.6-38.2,39.6h-21.3v45.4H399.7z M426.7,236.1h14.5
		c12.5,0,16.8-4.5,16.8-15.4v-5.4c0-10.9-4.3-15.4-16.8-15.4h-14.5V236.1z"/>
</g>
</svg>
