<?xml version="1.0" encoding="utf-8"?>
<!-- Generator: Adobe Illustrator 26.0.0, SVG Export Plug-In . SVG Version: 6.00 Build 0)  -->
<svg version="1.1" id="Capa_1" xmlns="http://www.w3.org/2000/svg" xmlns:xlink="http://www.w3.org/1999/xlink" x="0px" y="0px"
	 viewBox="0 0 500 500" style="enable-background:new 0 0 500 500;" xml:space="preserve">
<style type="text/css">
	.st0{fill:#761F85;}
	.st1{enable-background:new    ;}
</style>
<g>
	<g>
		<path class="st0" d="M70.7,289.8l55.7,55.7L82.9,389l-47.6-47.6c-8-8-20.8-8-28.8,0s-8,20.8,0,28.8l124,123.9c8,8,20.8,8,28.8,0
			c8-8,8-20.8,0-28.8l-47.6-47.6l43.4-43.5l55.7,55.7c8,8,20.8,8,28.8,0l190-190c31.8-31.8,31.8-83.5,0-115.3l-12.4-12.4l77.4-77.4
			c8-8,8-20.8,0-28.8s-20.8-8-28.8,0l-77.4,77.4L376,70.9c-31.8-31.8-83.5-31.8-115.3,0l-190,190.1C62.8,269,62.8,281.9,70.7,289.8
			L70.7,289.8z M289.4,99.8c15.9-15.9,41.9-15.9,57.8,0l53.5,53.6c15.9,15.9,15.9,41.9,0,57.8L225.1,386.8L113.8,275.5L289.4,99.8
			L289.4,99.8z"/>
	</g>
</g>
<g class="st1">
	<path class="st0" d="M204.5,326.9l-0.7-14.5c8.5,0.4,15.5-2.5,20.4-7.4c5.6-5.6,6.1-11.3,1.3-16.1c-3.9-3.9-7.8-3.6-14,0.9
		l-6.7,4.8c-11.6,8.2-21.9,6.3-29.9-1.7c-10.6-10.6-9.4-24.2,3.1-36.7c8.5-8.5,17.8-12.1,26.2-11.5l0.8,14.3
		c-6.2-0.3-12.3,1.8-17.3,6.8c-5.3,5.3-5.8,10.2-1.4,14.6c3.8,3.8,7.7,3.2,14-1.2l6.8-4.8c10.5-7.3,20.8-7.2,29.5,1.5
		c10.4,10.4,10.7,25.3-3.2,39.1C224.2,324.2,213.9,327.9,204.5,326.9z"/>
	<path class="st0" d="M329.4,247.4l-11.2,11.2c-8.6,8.6-16.3,7.3-23.2,0.4l-3.2-3.2c-13.5,9-28.7,4.2-44.6-11.6
		c-18.1-18.1-21.8-35.4-7-50.2c14.8-14.8,32.2-11.1,50.2,7c15.8,15.8,20.7,31.1,11.6,44.6l6.2,6.2l12.8-12.8L329.4,247.4z
		 M282.5,218.3l-9.6-9.6c-8.9-8.9-16.4-12-23.1-5.2c-6.7,6.7-3.6,14.3,5.2,23.1l9.7,9.7c8.9,8.9,16.4,12,23.1,5.2
		C294.5,234.8,291.4,227.3,282.5,218.3z"/>
	<path class="st0" d="M343,203.6l-55.3-55.3l12-12l45.5,45.5l23.8-23.8l9.7,9.7L343,203.6z"/>
</g>
</svg>
