<?xml version="1.0" encoding="utf-8"?>
<!-- Generator: Adobe Illustrator 26.0.0, SVG Export Plug-In . SVG Version: 6.00 Build 0)  -->
<svg version="1.1" id="Capa_1" xmlns="http://www.w3.org/2000/svg" xmlns:xlink="http://www.w3.org/1999/xlink" x="0px" y="0px"
	 viewBox="0 0 500 500" style="enable-background:new 0 0 500 500;" xml:space="preserve">
<style type="text/css">
	.st0{fill:#1266A9;}
</style>
<path class="st0" d="M30.23,339.79c0.48,1.08,1.02,2.08,1.6,3.08c0.27,0.58,0.64,1.19,0.98,1.73c0.54,1.08,1.12,2.12,1.68,3.16
	l3.26,5.49c0.6,1.02,1.19,2.02,1.87,3.01c1.14,1.95,2.5,3.87,3.68,5.82c0.54,0.81,1.04,1.62,1.64,2.43
	c2.29,3.56,4.37,6.51,6.59,9.38c1.58,2.14,3.16,4.24,4.87,6.34c0.56,0.79,1.19,1.58,1.77,2.37l4.6,5.57
	c0.56,0.64,1.12,1.39,1.73,2.06c2.04,2.45,4.2,4.82,6.36,7.24c0,0.04,0.06,0.08,0.1,0.15c2.68,3.37,5.57,6.36,8.73,9.02l0.08,0.08
	c1.66,1.7,3.33,3.39,5.09,5.05l2.1,2.02c2.31,2.16,4.62,4.3,7.05,6.38c0.04,0,0.06,0.04,0.1,0.06l1.19,1.04
	c2.12,1.85,4.26,3.68,6.45,5.39l2.6,2.18c1.77,1.41,3.6,2.74,5.41,4.14l2.83,2.16c1.93,1.46,3.99,2.87,5.97,4.28
	c0.73,0.52,1.46,1.04,2.2,1.52l0.6,0.48l5.84,3.83l2.5,1.66c3.06,1.95,6.09,3.78,9.13,5.61c0.87,0.44,1.75,0.91,2.56,1.41
	c2.25,1.29,4.57,2.6,6.84,3.78c1.25,0.71,2.54,1.31,3.83,1.95c1.56,0.87,3.18,1.73,4.84,2.6c0.46,0.15,0.83,0.29,1.21,0.5l0.08-0.08
	c0.69,0.31,1.33,0.64,2,0.98c2.5,1.25,5.09,2.43,7.8,3.6c0.5,0.21,1.04,0.42,1.58,0.71c2.99,1.31,5.99,2.56,9.09,3.76
	c0.71,0.21,1.46,0.56,2.18,0.83c2.81,1.06,5.7,2.14,8.57,3.16l1.04,0.37c3.18,1.08,6.32,2.12,9.56,3.1
	c0.75,0.21,1.52,0.48,2.31,0.69c3.31,1,6.51,2.18,9.86,2.81C425.75,521.43,487.82,354.9,487.82,354.9
	c-52.15,67.57-144.69,85.39-232.33,65.56c-3.24-0.75-6.49-1.79-9.77-2.74c-4.64-1.31-9.23-2.76-13.79-4.35l1.98,0.6l-1.29-0.5
	c-2.83-0.96-5.55-2.02-8.32-3.08c-0.68-0.29-1.36-0.55-2.06-0.79l-0.23-0.06c-3.06-1.23-6.03-2.47-8.98-3.78
	c-0.64-0.21-1.19-0.5-1.83-0.75c-3.5-1.52-6.96-3.12-10.4-4.78l2.87,1.27c-0.75-0.33-1.48-0.69-2.2-1.08
	c-1.95-0.91-3.91-1.95-5.82-2.93c-1.46-0.69-2.89-1.43-4.3-2.2l0.42,0.21c-2.35-1.25-4.7-2.6-7.07-3.87
	c-0.71-0.5-1.52-0.91-2.33-1.37c-3.52-2.05-7-4.17-10.44-6.36l1.31,0.79c-0.88-0.54-1.74-1.12-2.58-1.73l0.12,0.08
	c-2.23-1.37-4.43-2.81-6.57-4.32c-0.71-0.46-1.35-0.96-2.08-1.46c-2.24-1.53-4.44-3.11-6.61-4.74l0.5,0.35
	c-0.87-0.71-1.81-1.37-2.74-2.06c-1.83-1.43-3.68-2.81-5.51-4.3l-2.45-1.95c-2.61-2.08-5.18-4.22-7.69-6.42l-0.02-0.02l-7.21-6.55
	l-2.08-1.95c-1.7-1.73-3.45-3.37-5.2-5.07l-2.02-2.08c-2.15-2.13-4.25-4.32-6.3-6.55l-0.12-0.15l-0.35-0.29
	c-2.2-2.42-4.37-4.86-6.51-7.34c-0.56-0.64-1.08-1.33-1.66-2.02l-4.72-5.72c-2.13-2.67-4.21-5.38-6.24-8.13l-0.83-1.16
	c-48.61-66.03-66.2-157.17-27.3-231.93L32.7,122.6c-44.18,63.19-38.71,145.36-4.93,212.45C28.54,336.69,29.4,338.23,30.23,339.79
	L30.23,339.79z"/>
<path class="st0" d="M202.28,276.04l1.87,1.87c2.37,2.29,4.8,4.51,7.28,6.74l0.31,0.27c2.5,2.2,5.3,4.51,8.19,6.76l0.44,0.33
	c0.71,0.48,1.31,1.04,2,1.52c2.91,2.25,5.84,4.39,8.9,6.53l0.31,0.19c1.29,0.94,2.66,1.79,4.12,2.7c0.58,0.37,1.25,0.87,1.87,1.25
	c2.2,1.41,4.37,2.72,6.59,4.08c0.35,0.15,0.67,0.33,1,0.48c1.87,1.14,3.91,2.25,5.86,3.24c0.69,0.42,1.35,0.73,2.06,1.12
	c1.39,0.69,2.77,1.41,4.1,2.12l0.67,0.29c2.81,1.37,5.68,2.66,8.48,3.93c0.71,0.27,1.31,0.5,1.91,0.79c2.31,1,4.66,1.95,6.97,2.83
	c1.04,0.35,2.02,0.77,2.99,1.08c2.12,0.79,4.35,1.52,6.45,2.25l2.91,0.94c3.04,0.94,6.11,2.16,9.34,2.66
	C461.83,357.15,500,230.8,500,230.8c-34.37,49.21-100.88,72.67-171.76,54.35c-3.54-0.89-7.05-1.9-10.52-3.01l1.19,0.33
	c-1-0.27-1.87-0.58-2.83-0.87c-2.16-0.75-4.39-1.48-6.49-2.25l-2.99-1.12c-2.33-0.94-4.7-1.81-6.97-2.81
	c-0.71-0.31-1.35-0.52-1.89-0.83c-2.91-1.31-5.84-2.6-8.69-3.97l-4.28-2.22l-2.47-1.25c-1.91-1-3.68-2.04-5.51-3.1
	c-0.47-0.22-0.92-0.47-1.35-0.75l0.06,0.02c-2.2-1.37-4.49-2.7-6.61-4.1c-0.71-0.4-1.35-0.87-2.02-1.29l-4.32-2.81
	c-2.99-2.08-5.93-4.3-8.9-6.47c-0.67-0.6-1.31-1.1-1.95-1.64c-31.17-24.39-55.74-57.72-67.41-95.46
	c-12.29-39.23-9.59-83.23,11.64-118.93l-26.09,36.76c-32.04,45.76-30.23,106.93-5.28,155.34c4.55,8.94,9.17,16.49,14.26,23.68
	c4.74,6.78,9.98,14.72,16.3,20.17C197.35,271.13,199.77,273.57,202.28,276.04L202.28,276.04z"/>
<path class="st0" d="M285.14,29.59c-18.9,27.59-20.71,61.86-7.69,92.27c13.83,32.31,42.08,57.68,75.02,69.69
	c1.35,0.52,2.66,0.96,4.05,1.46l1.83,0.56c1.91,0.6,3.85,1.31,5.82,1.75c91.09,17.49,115.75-46.53,122.38-55.95
	c-21.69,30.98-58.05,38.42-102.67,27.63c-3.88-0.95-7.7-2.13-11.44-3.53l0.69,0.23c-4.65-1.61-9.2-3.48-13.64-5.61l0.79,0.35
	c-8.52-4.16-15.84-8.65-22.64-13.81c-39.88-30.15-64.54-87.55-38.51-134.32L285.14,29.59z"/>
</svg>
