<?xml version="1.0" encoding="utf-8"?>
<!-- Generator: Adobe Illustrator 26.0.0, SVG Export Plug-In . SVG Version: 6.00 Build 0)  -->
<svg version="1.1" id="Capa_1" xmlns="http://www.w3.org/2000/svg" xmlns:xlink="http://www.w3.org/1999/xlink" x="0px" y="0px"
	 viewBox="0 0 500 500" style="enable-background:new 0 0 500 500;" xml:space="preserve">
<g>
	<path d="M452.56,396.05H50c-18.23,0-33.66-15.43-33.66-33.66V140.77c0-18.23,15.43-33.66,33.66-33.66h401.16
		c18.23,0,33.66,15.43,33.66,33.66v221.62C484.82,380.62,470.8,396.05,452.56,396.05L452.56,396.05z M50,129.55
		c-5.61,0-11.22,5.61-11.22,11.22v221.62c0,7.01,5.61,11.22,11.22,11.22h401.16c7.01,0,11.22-5.61,11.22-11.22V140.77
		c0-7.01-5.61-11.22-11.22-11.22C452.56,129.55,50,129.55,50,129.55L50,129.55z M83.66,328.72V174.43h44.89l44.89,56.11l44.89-56.11
		h44.89v154.29h-44.89v-88.37l-44.89,56.11l-44.89-56.11v88.37H83.66L83.66,328.72z M365.6,328.72l-67.33-74.34h44.89v-79.95h44.89
		v78.55h44.89L365.6,328.72L365.6,328.72z"/>
</g>
</svg>
