<?xml version="1.0" encoding="utf-8"?>
<!-- Generator: Adobe Illustrator 26.0.0, SVG Export Plug-In . SVG Version: 6.00 Build 0)  -->
<svg version="1.1" id="Capa_1" xmlns="http://www.w3.org/2000/svg" xmlns:xlink="http://www.w3.org/1999/xlink" x="0px" y="0px"
	 viewBox="0 0 500 500" style="enable-background:new 0 0 500 500;" xml:space="preserve">
<style type="text/css">
	.st0{fill:#599636;}
	.st1{fill:#6CAC48;}
	.st2{fill:#C2BFBF;}
</style>
<path class="st0" d="M248.61,1.37l13.34,25.06c3,4.62,6.25,8.72,10.08,12.53c11.22,11.08,21.68,22.91,31.31,35.4
	c22.61,29.69,37.86,62.65,48.75,98.31c6.53,21.78,10.08,44.12,10.34,66.71c1.09,67.54-22.06,125.54-68.74,173.74
	c-7.59,7.64-15.8,14.66-24.53,20.97c-4.62,0-6.81-3.55-8.72-6.81c-3.47-6.06-5.78-12.7-6.81-19.61c-1.64-8.17-2.72-16.34-2.19-24.78
	v-3.81C251.06,378.26,246.99,3.29,248.61,1.37L248.61,1.37z"/>
<path class="st1" d="M248.61,0.54c-0.55-1.09-1.09-0.27-1.64,0.27c0.27,5.47-1.64,10.34-4.62,15c-3.28,4.62-7.62,8.17-11.98,11.98
	c-24.22,20.97-43.28,46.29-58.54,74.62c-20.31,38.12-30.78,78.98-33.75,121.99c-1.36,15.51,4.91,70.26,9.8,86.06
	c13.34,41.93,37.31,77.07,68.35,107.57c7.62,7.34,15.78,14.16,24.22,20.7c2.45,0,2.72-2.19,3.28-3.81c1.08-3.48,1.9-7.03,2.45-10.62
	l5.47-40.84L248.61,0.54z"/>
<path class="st2" d="M261.95,450.68c0.55-6.25,3.55-11.44,6.81-16.61c-3.28-1.36-5.72-4.06-7.62-7.08c-1.64-2.86-3-5.86-4.06-8.98
	c-3.81-11.44-4.62-23.44-5.72-35.12v-7.08c-1.36,1.09-1.64,10.34-1.64,11.72c-0.8,12.35-2.43,24.63-4.91,36.76
	c-0.81,4.91-1.36,9.8-4.37,14.16c0,0.55,0,1.09,0.27,1.91c4.91,14.44,6.25,29.14,7.08,44.12v5.47c0,6.53-0.27,5.16,5.16,7.34
	c2.19,0.81,4.62,1.09,6.81,2.72c1.64,0,1.91-1.36,1.91-2.45l-0.81-8.98V463.5c-0.27-4.37,0.55-8.72,1.09-12.81L261.95,450.68z"/>
</svg>
