<?xml version="1.0" encoding="utf-8"?>
<!-- Generator: Adobe Illustrator 26.0.0, SVG Export Plug-In . SVG Version: 6.00 Build 0)  -->
<svg version="1.1" id="Capa_1" xmlns="http://www.w3.org/2000/svg" xmlns:xlink="http://www.w3.org/1999/xlink" x="0px" y="0px"
	 viewBox="0 0 500 500" style="enable-background:new 0 0 500 500;" xml:space="preserve">
<style type="text/css">
	.st0{fill:#F98012;}
	.st1{fill:#333333;}
</style>
<path class="st0" d="M420,420.21V263.59c0-32.74-13.5-49.11-40.51-49.12s-40.54,16.36-40.6,49.12v156.63H259.1V263.59
	c0-32.74-13.3-49.11-39.89-49.12c-27.05,0-40.56,16.37-40.51,49.12v156.63H98.9V254.34c0-34.17,11.86-60.04,35.59-77.59
	c20.89-15.67,49.13-23.51,84.72-23.51c36.08,0,62.66,9.25,79.75,27.76c14.72-18.51,41.54-27.76,80.47-27.76
	c35.59,0,63.82,7.84,84.69,23.51c23.73,17.54,35.6,43.41,35.6,77.59v165.87H420z"/>
<path class="st1" d="M253.81,141.18L333,83.31l-1.01-3.53C189.08,97.3,124.09,109.71,1,181.07l1.14,3.24l9.78,0.1
	c-0.9,9.85-2.46,34.2-0.46,70.82c-13.66,39.53-0.35,66.38,12.15,95.59c1.98-30.38,1.78-63.66-7.55-96.77
	c-1.95-36.37-0.35-60.29,0.54-69.59l81.6,0.78c-0.22,15.98,0.59,31.95,2.42,47.83c72.92,25.62,146.25-0.09,185.18-63.25
	C274.99,157.7,253.81,141.18,253.81,141.18L253.81,141.18z"/>
</svg>
