<?xml version="1.0" encoding="utf-8"?>
<!-- Generator: Adobe Illustrator 26.0.0, SVG Export Plug-In . SVG Version: 6.00 Build 0)  -->
<svg version="1.1" id="Capa_1" xmlns="http://www.w3.org/2000/svg" xmlns:xlink="http://www.w3.org/1999/xlink" x="0px" y="0px"
	 viewBox="0 0 500 500" style="enable-background:new 0 0 500 500;" xml:space="preserve">
<style type="text/css">
	.st0{fill:#CB3837;}
	.st1{fill:#FFFFFF;}
	.st2{display:none;}
	.st3{display:inline;fill:#368FB9;}
	.st4{display:inline;fill:#FFFFFF;}
	.st5{display:none;fill:#F9AD00;}
	.st6{display:none;fill:#4E4E4E;}
</style>
<path class="st0" d="M57.2,178h385.7v128.6H250V328h-85.7v-21.4H57.2V178z M78.6,285.2h42.9v-64.3h21.4v64.3h21.4v-85.7H78.6V285.2
	L78.6,285.2z M185.7,199.5v107.1h42.9v-21.4h42.8v-85.7H185.7z M228.6,220.9H250v42.9h-21.4V220.9z M292.8,199.5v85.7h42.9v-64.3
	h21.4v64.3h21.4v-64.3H400v64.3h21.4v-85.7H292.8z"/>
<path class="st1" d="M78.6,285.2h42.9v-64.3h21.4v64.3h21.4v-85.7H78.6V285.2L78.6,285.2z M185.7,199.5v107.1h42.9v-21.4h42.8v-85.7
	H185.7z M250,263.8h-21.4v-42.9H250V263.8z M292.8,199.5v85.7h42.9v-64.3h21.4v64.3h21.4v-64.3H400v64.3h21.4v-85.7H292.8z"/>
<g class="st2">
	<path class="st3" d="M250,45.7C137.2,45.7,45.7,137.2,45.7,250S137.2,454.3,250,454.3S454.3,362.8,454.3,250S362.8,45.7,250,45.7"
		/>
	<path class="st4" d="M370.2,323.5c-12.6,3-19,5.8-34.6,15.9c-24.4,15.8-51,23.1-51,23.1s-2.2,3.3-8.6,4.8c-11,2.7-52.6,5-56.4,5
		c-10.2,0.1-16.4-2.6-18.1-6.8c-5.3-12.6,7.6-18.1,7.6-18.1s-2.8-1.7-4.5-3.3c-1.5-1.5-3.1-4.5-3.5-3.4c-2,4.8-3,16.6-8.3,21.8
		c-7.3,7.3-21,4.9-29.1,0.6c-8.9-4.7,0.6-15.9,0.6-15.9s-4.8,2.8-8.7-3c-3.5-5.4-6.7-14.5-5.8-25.8c0.9-12.9,15.3-25.3,15.3-25.3
		s-2.5-19,5.8-38.5c7.5-17.7,27.7-32,27.7-32s-17-18.8-10.6-35.6c4.1-11,5.8-11,7.1-11.4c4.7-1.8,9.3-3.8,12.7-7.5
		c17-18.3,38.6-14.8,38.6-14.8s10.3-31.2,19.7-25.1c2.9,1.9,13.4,25.2,13.4,25.2s11.2-6.5,12.5-4.1c6.8,13.2,7.6,38.3,4.6,53.6
		c-5,25.2-17.7,38.8-22.7,47.3c-1.2,2,13.6,8.2,22.9,34c8.6,23.6,0.9,43.4,2.3,45.6c0.2,0.4,0.3,0.6,0.3,0.6s9.9,0.8,29.7-11.4
		c10.6-6.5,23.1-13.9,37.4-14C379.9,304.8,380.6,321,370.2,323.5L370.2,323.5z M389,311.9c-1.4-11.2-10.9-18.9-23-18.8
		c-18.1,0.2-33.4,9.6-43.5,15.9c-3.9,2.4-7.3,4.3-10.3,5.6c0.6-9.1,0.1-21.1-4.7-34.3c-5.8-15.8-13.5-25.5-19-31.1
		c6.4-9.3,15.1-22.9,19.2-43.8c3.5-17.9,2.4-45.7-5.7-61.4c-1.7-3.2-4.4-5.4-7.9-6.4c-1.4-0.4-4.1-1.2-9.4,0.3
		c-8-16.5-10.7-18.2-12.9-19.6c-4.4-2.8-9.6-3.5-14.5-1.7c-6.5,2.4-12.1,8.7-17.4,19.9c-0.8,1.7-1.5,3.2-2.1,4.8
		c-10,0.7-25.8,4.3-39.1,18.8c-1.7,1.8-4.9,3.2-8.3,4.4h0.1c-6.9,2.4-10.1,8.1-14,18.4c-5.4,14.4,0.2,28.5,5.6,37.6
		c-7.4,6.6-17.3,17.2-22.5,29.6c-6.5,15.3-7.2,30.3-6.9,38.4c-5.5,5.8-14,16.8-15,29.1c-1.3,17.2,5,28.9,7.7,33.1
		c0.8,1.3,1.7,2.3,2.6,3.3c-0.3,2.1-0.4,4.4,0.1,6.8c1,5.5,4.5,10,9.8,12.9c10.4,5.5,24.9,7.9,36.1,2.3c4,4.3,11.4,8.4,24.7,8.4h0.8
		c3.4,0,46.5-2.3,59-5.4c5.6-1.3,9.5-3.7,12-5.8c8-2.5,30.3-10.1,51.3-23.7c14.8-9.6,20-11.7,31-14.4
		C383.6,332.5,390.3,322.7,389,311.9L389,311.9z"/>
</g>
<path class="st5" d="M437.7,179.6H320.4V62.3h117.3V179.6z"/>
<path class="st5" d="M308.6,179.6H191.3V62.3h117.3V179.6z"/>
<path class="st5" d="M179.6,179.6H62.3V62.3h117.3V179.6z"/>
<path class="st5" d="M437.7,308.7H320.4V191.3h117.3V308.7z"/>
<path class="st6" d="M308.6,308.7H191.3V191.3h117.3V308.7z"/>
<path class="st6" d="M308.6,437.7H191.3V320.4h117.3V437.7z"/>
<path class="st6" d="M437.7,437.7H320.4V320.4h117.3V437.7z"/>
<path class="st6" d="M179.6,437.7H62.3V320.4h117.3V437.7z"/>
</svg>
