<?xml version="1.0" encoding="utf-8"?>
<!-- Generator: Adobe Illustrator 26.0.0, SVG Export Plug-In . SVG Version: 6.00 Build 0)  -->
<svg version="1.1" id="Capa_1" xmlns="http://www.w3.org/2000/svg" xmlns:xlink="http://www.w3.org/1999/xlink" x="0px" y="0px"
	 viewBox="0 0 500 500" style="enable-background:new 0 0 500 500;" xml:space="preserve">
<style type="text/css">
	.st0{opacity:0.2;}
	.st1{fill:#FFFFFF;}
	.st2{opacity:0.12;}
	.st3{fill:url(#SVGID_1_);}
	.st4{fill:url(#SVGID_00000173146941566307784250000014677145896772147880_);}
	.st5{fill:url(#SVGID_00000087393084831362210310000007096811666424490134_);}
	.st6{fill:url(#SVGID_00000181770688583450175940000016963446995775933332_);}
	.st7{fill:url(#SVGID_00000019676720835201148590000015243936903584493495_);}
	.st8{fill:none;}
</style>
<g>
	<g id="Icons_-_Color">
		<g id="Desktop_-_Full_Bleed">
			<g class="st0">
				<path class="st1" d="M155.85,382.81c-13.89,0.15-25.03,11.53-24.89,25.42c0.09,8.84,4.83,16.99,12.46,21.45L232.18,480
					c7.31,4.16,15.58,6.34,23.98,6.33c4.52,0,9.02-0.66,13.36-1.95l133.52-38.05c20.46-5.88,34.57-24.57,34.61-45.86v-17.66H155.85z
					"/>
			</g>
			<g class="st2">
				<path class="st1" d="M155.85,382.81c-13.89,0.15-25.03,11.53-24.89,25.42c0.09,8.84,4.83,16.99,12.46,21.45L232.18,480
					c7.31,4.16,15.58,6.34,23.98,6.33c4.52,0,9.02-0.66,13.36-1.95l133.52-38.05c20.46-5.88,34.57-24.57,34.61-45.86v-17.66H155.85z
					"/>
			</g>
			
				<linearGradient id="SVGID_1_" gradientUnits="userSpaceOnUse" x1="353.3132" y1="513.0938" x2="353.3132" y2="50.4375" gradientTransform="matrix(1 0 0 -1 0 502)">
				<stop  offset="0" style="stop-color:#FFB900"/>
				<stop  offset="0.17" style="stop-color:#EF8400"/>
				<stop  offset="0.31" style="stop-color:#E25C01"/>
				<stop  offset="0.43" style="stop-color:#DB4401"/>
				<stop  offset="0.5" style="stop-color:#D83B01"/>
			</linearGradient>
			<path class="st3" d="M268.98,15.62l35.86,82.03v285.16l-35.31,101.56l133.52-38.05c20.46-5.88,34.57-24.57,34.61-45.86V99.53
				c0.01-21.35-14.15-40.1-34.69-45.94L268.98,15.62z"/>
			
				<linearGradient id="SVGID_00000094579122382423453230000009317631488386079622_" gradientUnits="userSpaceOnUse" x1="269.8696" y1="496.7426" x2="24.8696" y2="146.8988" gradientTransform="matrix(1 0 0 -1 0 502)">
				<stop  offset="0" style="stop-color:#800600"/>
				<stop  offset="0.6" style="stop-color:#C72127"/>
				<stop  offset="0.73" style="stop-color:#C13959"/>
				<stop  offset="0.85" style="stop-color:#BC4B81"/>
				<stop  offset="0.94" style="stop-color:#B95799"/>
				<stop  offset="1" style="stop-color:#B85BA2"/>
			</linearGradient>
			<path style="fill:url(#SVGID_00000094579122382423453230000009317631488386079622_);" d="M99.68,379.77l39.06-21.09
				c10.91-6,17.68-17.47,17.66-29.92V175.23c0.01-14.32,8.97-27.11,22.42-32.03l126.02-45.55V63.05
				c-0.03-22.04-14.66-41.39-35.86-47.42c-4.39-1.26-8.94-1.89-13.52-1.88l0,0c-8.6,0.02-17.05,2.25-24.53,6.48L86.71,102.5
				c-14.88,8.48-24.06,24.28-24.06,41.41v213.75c-0.03,13.85,11.16,25.11,25.01,25.14C91.86,382.81,95.99,381.77,99.68,379.77z"/>
			
				<linearGradient id="SVGID_00000101793696841065188540000016173236582236556204_" gradientUnits="userSpaceOnUse" x1="144.6804" y1="67.4297" x2="464.5242" y2="67.4297" gradientTransform="matrix(1 0 0 -1 0 502)">
				<stop  offset="0" style="stop-color:#F32B44"/>
				<stop  offset="0.6" style="stop-color:#A4070A"/>
			</linearGradient>
			<path style="fill:url(#SVGID_00000101793696841065188540000016173236582236556204_);" d="M304.84,382.81H155.85
				c-13.89,0.15-25.03,11.53-24.89,25.42c0.09,8.84,4.83,16.99,12.46,21.45L232.18,480c7.31,4.16,15.58,6.34,23.98,6.33l0,0
				c4.52,0,9.02-0.66,13.36-1.95c20.94-5.95,35.37-25.1,35.31-46.88V382.81z"/>
			
				<linearGradient id="SVGID_00000023283155265040559720000006686762097046556567_" gradientUnits="userSpaceOnUse" x1="274.8725" y1="503.8499" x2="222.9975" y2="429.7874" gradientTransform="matrix(1 0 0 -1 0 502)">
				<stop  offset="0" style="stop-color:#000000;stop-opacity:0.4"/>
				<stop  offset="1" style="stop-color:#000000;stop-opacity:0"/>
			</linearGradient>
			<path style="fill:url(#SVGID_00000023283155265040559720000006686762097046556567_);" d="M99.68,379.77l39.06-21.09
				c10.91-6,17.68-17.47,17.66-29.92V175.23c0.01-14.32,8.97-27.11,22.42-32.03l126.02-45.55V63.05
				c-0.03-22.04-14.66-41.39-35.86-47.42c-4.39-1.26-8.94-1.89-13.52-1.88l0,0c-8.6,0.02-17.05,2.25-24.53,6.48L86.71,102.5
				c-14.88,8.48-24.06,24.28-24.06,41.41v213.75c-0.03,13.85,11.16,25.11,25.01,25.14C91.86,382.81,95.99,381.77,99.68,379.77z"/>
			
				<linearGradient id="SVGID_00000132796989227239401980000014750674055202564498_" gradientUnits="userSpaceOnUse" x1="362.0256" y1="60.2193" x2="218.8225" y2="72.7193" gradientTransform="matrix(1 0 0 -1 0 502)">
				<stop  offset="0" style="stop-color:#000000;stop-opacity:0.4"/>
				<stop  offset="1" style="stop-color:#000000;stop-opacity:0"/>
			</linearGradient>
			<path style="fill:url(#SVGID_00000132796989227239401980000014750674055202564498_);" d="M304.84,382.81H155.85
				c-13.89,0.15-25.03,11.53-24.89,25.42c0.09,8.84,4.83,16.99,12.46,21.45L232.18,480c7.31,4.16,15.58,6.34,23.98,6.33l0,0
				c4.52,0,9.02-0.66,13.36-1.95c20.94-5.95,35.37-25.1,35.31-46.88V382.81z"/>
			<rect x="0.15" y="0" class="st8" width="500" height="500"/>
		</g>
	</g>
</g>
</svg>
