<?xml version="1.0" encoding="utf-8"?>
<!-- Generator: Adobe Illustrator 26.0.0, SVG Export Plug-In . SVG Version: 6.00 Build 0)  -->
<svg version="1.1" id="Capa_1" xmlns="http://www.w3.org/2000/svg" xmlns:xlink="http://www.w3.org/1999/xlink" x="0px" y="0px"
	 viewBox="0 0 500 500" style="enable-background:new 0 0 500 500;" xml:space="preserve">
<style type="text/css">
	.st0{display:none;fill:#CB3837;}
	.st1{display:none;fill:#FFFFFF;}
	.st2{display:none;}
	.st3{display:inline;fill:#368FB9;}
	.st4{display:inline;fill:#FFFFFF;}
	.st5{fill:#F9AD00;}
	.st6{fill:#4E4E4E;}
</style>
<path class="st0" d="M57.2,178h385.7v128.6H250V328h-85.7v-21.4H57.2V178z M78.6,285.2h42.9v-64.3h21.4v64.3h21.4v-85.7H78.6V285.2
	L78.6,285.2z M185.7,199.5v107.1h42.9v-21.4h42.8v-85.7H185.7z M228.6,220.9H250v42.9h-21.4V220.9z M292.8,199.5v85.7h42.9v-64.3
	h21.4v64.3h21.4v-64.3H400v64.3h21.4v-85.7H292.8z"/>
<path class="st1" d="M78.6,285.2h42.9v-64.3h21.4v64.3h21.4v-85.7H78.6V285.2L78.6,285.2z M185.7,199.5v107.1h42.9v-21.4h42.8v-85.7
	H185.7z M250,263.8h-21.4v-42.9H250V263.8z M292.8,199.5v85.7h42.9v-64.3h21.4v64.3h21.4v-64.3H400v64.3h21.4v-85.7H292.8z"/>
<g class="st2">
	<path class="st3" d="M250,76.6c-95.7,0-173.4,77.7-173.4,173.4S154.3,423.4,250,423.4S423.4,345.7,423.4,250S345.7,76.6,250,76.6"
		/>
	<path class="st4" d="M352,312.4c-10.7,2.5-16.1,4.9-29.4,13.5c-20.7,13.4-43.3,19.6-43.3,19.6s-1.9,2.8-7.3,4.1
		c-9.4,2.3-44.7,4.2-47.9,4.3c-8.6,0.1-13.9-2.2-15.4-5.8c-4.5-10.7,6.4-15.4,6.4-15.4s-2.4-1.5-3.8-2.8c-1.3-1.3-2.6-3.8-3-2.9
		c-1.7,4.1-2.5,14.1-7,18.5c-6.2,6.2-17.8,4.2-24.7,0.5c-7.6-4,0.5-13.5,0.5-13.5s-4.1,2.4-7.4-2.5c-2.9-4.6-5.7-12.3-5-21.9
		c0.8-10.9,13-21.5,13-21.5s-2.1-16.1,4.9-32.7c6.4-15.1,23.5-27.2,23.5-27.2s-14.4-15.9-9-30.3c3.5-9.4,4.9-9.3,6-9.7
		c4-1.5,7.9-3.2,10.8-6.4c14.4-15.5,32.7-12.6,32.7-12.6s8.7-26.4,16.7-21.3c2.5,1.6,11.4,21.4,11.4,21.4s9.5-5.6,10.6-3.5
		c5.8,11.2,6.4,32.5,3.9,45.5c-4.3,21.4-15,32.9-19.3,40.2c-1,1.7,11.5,7,19.4,28.9c7.3,20,0.8,36.8,1.9,38.7
		c0.2,0.3,0.3,0.5,0.3,0.5s8.4,0.7,25.2-9.7c9-5.6,19.6-11.8,31.7-11.9C360.3,296.5,360.9,310.2,352,312.4L352,312.4z M368,302.5
		c-1.2-9.5-9.2-16.1-19.5-15.9c-15.4,0.2-28.3,8.2-36.9,13.5c-3.3,2.1-6.2,3.6-8.7,4.8c0.5-7.8,0.1-17.9-3.9-29.1
		c-4.9-13.4-11.4-21.6-16.1-26.4c5.4-7.9,12.9-19.4,16.3-37.2c3-15.2,2.1-38.8-4.8-52.1c-1.4-2.7-3.7-4.6-6.7-5.4
		c-1.2-0.3-3.5-1-8,0.3c-6.8-14-9.1-15.5-10.9-16.7c-3.7-2.4-8.2-2.9-12.3-1.4c-5.6,2-10.3,7.4-14.8,16.9c-0.7,1.4-1.3,2.7-1.8,4.1
		c-8.5,0.6-21.9,3.7-33.2,15.9c-1.4,1.5-4.2,2.7-7,3.7h0.1c-5.9,2.1-8.6,6.9-11.8,15.6c-4.6,12.2,0.1,24.2,4.8,31.9
		c-6.3,5.6-14.7,14.6-19.1,25.1c-5.5,13-6.1,25.7-5.9,32.6c-4.7,5-11.9,14.3-12.7,24.7c-1.1,14.6,4.2,24.5,6.6,28.1
		c0.7,1.1,1.4,1.9,2.2,2.8c-0.3,1.8-0.3,3.7,0.1,5.8c0.9,4.7,3.8,8.5,8.3,10.9c8.8,4.7,21.2,6.7,30.7,1.9c3.4,3.6,9.6,7.1,21,7.1
		h0.7c2.9,0,39.4-1.9,50.1-4.6c4.8-1.1,8-3.1,10.2-5c6.8-2.1,25.7-8.6,43.5-20.1c12.6-8.2,16.9-9.9,26.3-12.2
		C363.4,320,369.1,311.7,368,302.5L368,302.5z"/>
</g>
<path class="st5" d="M437.7,179.6H320.4V62.3h117.3V179.6z"/>
<path class="st5" d="M308.6,179.6H191.3V62.3h117.3V179.6z"/>
<path class="st5" d="M179.6,179.6H62.3V62.3h117.3V179.6z"/>
<path class="st5" d="M437.7,308.7H320.4V191.3h117.3V308.7z"/>
<path class="st6" d="M308.6,308.7H191.3V191.3h117.3V308.7z"/>
<path class="st6" d="M308.6,437.7H191.3V320.4h117.3V437.7z"/>
<path class="st6" d="M437.7,437.7H320.4V320.4h117.3V437.7z"/>
<path class="st6" d="M179.6,437.7H62.3V320.4h117.3V437.7z"/>
</svg>
