<?xml version="1.0" encoding="utf-8"?>
<!-- Generator: Adobe Illustrator 26.0.0, SVG Export Plug-In . SVG Version: 6.00 Build 0)  -->
<svg version="1.1" id="Capa_1" xmlns="http://www.w3.org/2000/svg" xmlns:xlink="http://www.w3.org/1999/xlink" x="0px" y="0px"
	 viewBox="0 0 500 500" style="enable-background:new 0 0 500 500;" xml:space="preserve">
<style type="text/css">
	.st0{enable-background:new    ;}
	.st1{fill:#761F85;}
	.st2{fill:none;}
	.st3{fill:#F39200;}
</style>
<g class="st0">
	<path class="st1" d="M6.1,286.8L23.2,268c10,11,22.4,16.1,34.5,16.1c13.9,0,21.6-6.5,21.6-18.3c0-9.6-5.1-14.1-18.4-16.3l-14.3-2.4
		C22,243,11.6,227.9,11.6,207.9c0-26.3,18.3-41.6,49.3-41.6c21,0,37.1,7.1,46.7,18.3l-16.7,18.6c-7.3-8-17.5-13-29.8-13
		c-13.2,0-19.8,5.5-19.8,16.3c0,9.4,5.5,13.5,18.8,15.9l14.3,2.6c22,3.9,34.7,16.9,34.7,38.5c0,25.7-18.1,44.6-52.4,44.6
		C34,308,16.5,299.8,6.1,286.8z"/>
	<path class="st1" d="M172.3,305.6v-137h87.5v24.1h-58.1v31.4h56.1v24.1h-56.1v33.2h58.1v24.1H172.3z"/>
</g>
<polygon class="st2" points="246.3,209.8 313.7,209.8 313.7,209.8 "/>
<g id="_xD83D__xDD0D_-System-Icons">
	<g id="ic_fluent_arrow_trending_24_regular">
		<path id="_xD83C__xDFA8_-Color" class="st3" d="M427,143.1l56.9,0l0.8,0.1l0,0l0.7,0.3l0,0l0.5,0.3l0,0c0.6,0.4,1.2,0.9,1.6,1.6
			l0.3,0.5l0,0l0.3,0.6l0,0l0.4,1l0,0l0.3,1l0,0l0.1,0.7l0,0l0.1,0.7l0,0l0.1,1l0,0v81.5c0,4.5-2.5,8.1-5.6,8.1
			c-2.9,0-5.2-3.1-5.6-7l0-1.1v-61.6l-58.2,83.5c-2,2.9-5.1,3.1-7.4,0.8l-0.6-0.8l-22.4-32.1l-41.2,59.2c-2.2,3.2-5.8,3.2-8,0
			c-2-2.9-2.2-7.4-0.5-10.6l0.5-0.9l45.2-64.9c2-2.9,5.1-3.1,7.4-0.8l0.6,0.8l22.4,32.1l54.2-77.8H427c-2.9,0-5.2-3.1-5.6-7l0-1.1
			c0-4.1,2.1-7.5,4.9-8L427,143.1z"/>
	</g>
</g>
<g>
	<g>
		<path class="st1" d="M493.8,330.3l-50.2-50.2c9.9-11.9,15.9-27.1,15.9-43.6c0-37.8-31-68.6-69.2-68.6S321,198.7,321,236.5
			s31,68.6,69.2,68.6c16.2,0,31.1-5.6,43-14.9l50.4,50.4c2.9,2.9,7.3,2.9,10.3,0C496.7,337.6,496.7,333.2,493.8,330.3z M335.7,236.5
			c0-29.7,24.5-53.8,54.5-53.8s54.5,24.1,54.5,53.8s-24.5,53.8-54.5,53.8S335.7,266.1,335.7,236.5z"/>
	</g>
</g>
</svg>
