<?xml version="1.0" encoding="utf-8"?>
<!-- Generator: Adobe Illustrator 26.0.0, SVG Export Plug-In . SVG Version: 6.00 Build 0)  -->
<svg version="1.1" id="Capa_1" xmlns="http://www.w3.org/2000/svg" xmlns:xlink="http://www.w3.org/1999/xlink" x="0px" y="0px"
	 viewBox="0 0 500 500" style="enable-background:new 0 0 500 500;" xml:space="preserve">
<style type="text/css">
	.st0{fill:#761F85;}
</style>
<path class="st0" d="M117.41,236.71c42.64,14.99,87.63,22.2,132.82,21.3c45.19,0.89,90.18-6.33,132.82-21.32
	c33.29-12.98,45.09-27.41,45.09-35.71V137.5c-11.64,7.79-24.12,14.24-37.21,19.21c-45.12,16.16-92.78,24.03-140.7,23.25
	c-47.91,0.77-95.57-7.1-140.7-23.21c-13.1-4.98-25.58-11.43-37.21-19.25v63.39C72.32,209.36,84.16,223.71,117.41,236.71z"/>
<path class="st0" d="M117.41,356.45c15.06,5.75,30.6,10.17,46.43,13.23c28.47,5.51,57.4,8.22,86.39,8.09
	c28.99,0.13,57.93-2.57,86.39-8.07c15.83-3.06,31.36-7.49,46.43-13.23c33.29-12.98,45.09-27.41,45.09-35.71v-60.54
	c-9.62,5.79-19.73,10.72-30.21,14.73c-47.4,16.78-97.42,24.9-147.7,23.98c-50.28,0.89-100.31-7.26-147.7-24.07
	c-10.48-4.02-20.59-8.95-30.21-14.73v60.59C72.32,329.04,84.16,343.41,117.41,356.45z"/>
<path class="st0" d="M250.23,500c98.21,0,177.91-31.14,177.91-69.54V379.8c-8.75,5.27-17.92,9.83-27.41,13.61l-2.8,1.12
	c-47.39,16.83-97.42,25-147.7,24.13c-50.28,0.9-100.32-7.27-147.7-24.12c-0.96-0.36-1.89-0.77-2.8-1.12
	c-9.49-3.78-18.66-8.33-27.41-13.61v50.66C72.32,468.86,152.02,500,250.23,500z"/>
<ellipse class="st0" cx="250.23" cy="69.54" rx="177.91" ry="69.54"/>
</svg>
