<?xml version="1.0" encoding="utf-8"?>
<!-- Generator: Adobe Illustrator 26.0.0, SVG Export Plug-In . SVG Version: 6.00 Build 0)  -->
<svg version="1.1" id="Capa_1" xmlns="http://www.w3.org/2000/svg" xmlns:xlink="http://www.w3.org/1999/xlink" x="0px" y="0px"
	 viewBox="0 0 500 500" style="enable-background:new 0 0 500 500;" xml:space="preserve">
<style type="text/css">
	.st0{fill:url(#SVGID_1_);}
	.st1{fill:url(#SVGID_00000118367160374739271890000003893237292060776851_);}
	.st2{fill:url(#SVGID_00000137126594812703014290000018022049929038252696_);}
</style>
<g transform="matrix(.569 0 0 .569 199.451 -82.735)">
	
		<linearGradient id="SVGID_1_" gradientUnits="userSpaceOnUse" x1="-17398.1738" y1="4813.1772" x2="-16445.3457" y2="4250.1665" gradientTransform="matrix(0.038 0 0 0.038 481.0738 754.3624)">
		<stop  offset="0" style="stop-color:#909CA9"/>
		<stop  offset="1" style="stop-color:#EDEDEE"/>
	</linearGradient>
	<path class="st0" d="M194.41,555.63L18.43,613.09l-153.1,67.57l-42.83,11.31c-10.91,10.38-22.35,20.88-34.72,31.53
		c-13.57,11.7-26.2,22.35-35.92,30.06c-10.77,8.51-26.74,24.47-34.85,34.58c-12.1,15.16-21.68,31.26-25.81,43.63
		c-7.32,22.35-3.72,44.96,10.38,65.84c18.09,26.6,54.14,53.74,96.17,72.22c21.42,9.45,57.46,21.55,84.6,28.33
		c45.09,11.44,132.35,23.81,180.37,25.67c9.71,0.4,22.75,0.4,23.28,0c1.07-0.67,8.51-14.9,17.16-32.59
		c29.53-60.26,50.81-116.79,62.38-165.07c6.92-29.26,12.37-68.24,15.96-114.39c0.93-12.9,1.33-56.13,0.53-70.77
		c-1.2-23.94-3.33-43.36-6.65-62.38c-0.53-2.79-0.67-5.32-0.4-5.45c0.53-0.4,2.13-0.93,23.81-7.18L194.41,555.63L194.41,555.63
		L194.41,555.63L194.41,555.63z M154.24,579.17c1.6,0,5.85,40.83,6.91,66.64c0.27,5.45,0.13,9.04-0.13,9.04
		c-1.06,0-22.48-12.64-37.77-22.21c-13.3-8.38-38.57-25.14-42.56-28.33c-1.33-0.93-1.2-1.06,9.71-4.79
		C108.88,593.27,152.77,579.17,154.24,579.17z M64.59,608.7c1.2,0,4.26,1.73,11.57,6.25c27.4,17.16,64.65,37.91,80.61,44.83
		c4.92,2.13,5.45,1.33-5.85,9.04c-24.21,16.49-54.4,32.72-91.38,49.08c-6.52,2.93-11.97,5.19-12.1,5.19c-0.26,0,0.53-3.32,1.59-7.31
		c8.91-33.12,13.97-66.64,14.24-93.51c0.13-13.3,0.13-13.3,1.33-13.7C64.32,608.7,64.45,608.7,64.59,608.7L64.59,608.7z
		 M46.1,615.75c0.8,0.8,0.26,30.59-0.8,38.71c-2.39,19.42-6.12,37.51-12.24,57.86c-1.46,4.92-2.8,9.04-3.06,9.31
		c-0.53,0.66-18.76-17.16-24.74-24.08c-10.38-11.97-18.49-23.94-24.47-35.65c-3.06-5.99-7.85-17.69-7.45-18.09
		C-24.53,642.35,45.56,615.22,46.1,615.75L46.1,615.75z M-40.9,649.93c0.13,0,0.26,0,0.4,0.13c0.26,0.27,1.2,2.4,2,4.79
		c4.26,11.57,13.83,28.6,22.08,39.51c9.04,11.97,20.88,24.74,30.72,33.12c3.19,2.66,6.12,5.19,6.52,5.59
		c0.8,0.8,1.07,0.66-20.62,8.91c-25.14,9.58-52.54,19.15-83.93,29.26c-7.5,2.42-14.99,4.86-22.48,7.32c-1.2,0.4-0.8-0.27,2.66-5.72
		C-87.98,748.5-64.31,700.75-51,666.96c2.26-5.85,4.52-11.7,4.92-13.03c0.53-1.86,1.2-2.53,2.92-3.46
		C-42.23,650.2-41.29,649.93-40.9,649.93L-40.9,649.93z M-67.5,660.97c0.4,0.27-6.39,14.5-13.04,27.53
		c-12.9,25.14-27,49.88-45.89,79.94c-3.19,5.19-6.25,9.98-6.65,10.51c-0.66,0.93-0.93,0.66-3.06-3.46
		c-4.52-8.91-8.25-20.35-10.24-30.86c-2-10.38-1.6-28.46,0.67-39.64c1.73-8.25,1.6-8.11,5.59-10.11
		C-123.1,686.25-68.03,660.44-67.5,660.97L-67.5,660.97z M161.95,670.29v5.59c0,29.66-3.19,70.36-7.85,100.03
		c-0.8,5.19-1.47,9.44-1.6,9.58c0,0-3.86-1.06-8.38-2.4c-19.95-6.25-41.63-15.43-61.19-26.2c-12.9-7.05-31.66-18.62-31.12-19.16
		c0.13-0.13,5.72-3.06,12.24-6.52c26.07-13.57,51.08-28.2,72.76-42.7c8.11-5.45,20.35-14.23,23.01-16.63L161.95,670.29
		L161.95,670.29z M-167.92,709.66c0.53,0,0.4,1.06-0.4,5.85c-0.53,3.46-1.2,9.84-1.46,14.23c-1.07,19.42,2.13,33.79,11.7,53.47
		c2.66,5.45,4.79,9.98,4.65,10.11c-0.93,0.8-88.99,26.61-116.65,34.19c-8.25,2.26-15.43,4.26-15.96,4.39
		c-0.93,0.27-1.06,0.13-0.66-2.13c3.06-19.55,17.96-45.09,38.71-66.64c13.83-14.36,24.87-22.74,43.76-33.52
		c13.57-7.71,34.45-19.28,36.05-19.82C-168.19,709.66-168.06,709.66-167.92,709.66L-167.92,709.66z M39.58,746.77
		c0.13-0.13,3.32,1.6,7.18,3.86c28.47,16.49,68.1,31.79,101.89,39.64l3.06,0.67l-4.26,2.39c-17.69,9.84-75.82,34.05-135.27,56.27
		c-8.65,3.19-17.16,6.38-18.76,7.05c-1.6,0.66-3.06,1.06-3.06,0.93c0-0.13,2.4-4.79,5.45-10.51c16.63-31.13,33.39-69.03,41.9-95.37
		C38.78,749.16,39.44,746.9,39.58,746.77L39.58,746.77z M18.43,753.69c0.13,0.14-0.93,2.93-2.26,6.12
		c-11.57,28.07-26.74,58.66-46.16,92.98c-4.92,8.78-9.04,15.83-9.18,15.83c-0.13,0-4.12-2.4-8.91-5.32
		c-28.2-17.29-53.21-38.57-69.57-59.19l-2.4-2.93l12.1-3.33c43.36-11.84,80.21-24.61,116.79-40.3
		C14.04,755.42,18.3,753.69,18.43,753.69z M149.85,799.58C149.85,799.58,149.98,799.71,149.85,799.58
		c0.13,3.06-6.65,30.46-12.24,50.28c-4.65,16.63-8.65,29.66-15.96,52.67c-3.19,10.11-5.98,18.49-6.12,18.49
		c-0.13,0-0.93-0.13-1.73-0.4c-39.5-7.19-74.89-17.16-108.14-30.46c-9.31-3.73-22.61-9.71-23.41-10.38
		c-0.26-0.27,7.72-3.99,17.82-8.38c60.52-26.47,123.3-56.53,144.85-69.43C147.45,800.37,149.45,799.58,149.85,799.58L149.85,799.58z
		 M-153.56,809.95c0.27,0.27-16.63,24.61-40.3,57.73c-8.25,11.57-17.82,25.14-21.41,30.19c-3.59,5.05-9.04,13.04-12.1,17.82
		l-5.59,8.65l-5.99-5.05c-7.05-5.85-19.29-18.36-24.74-25.27c-11.44-14.23-19.15-29.26-22.21-42.96c-1.46-6.39-1.46-9.58-0.13-9.98
		c1.99-0.53,37.51-8.91,70.77-16.63c18.49-4.26,39.9-9.31,47.62-11.17C-159.94,811.41-153.69,809.95-153.56,809.95L-153.56,809.95z
		 M-136.53,816.47l4.26,4.79c19.16,21.42,38.71,37.25,62.39,51.08c4.26,2.4,7.45,4.52,7.18,4.66c-0.93,0.66-82.2,29.53-119.84,42.56
		c-21.15,7.45-38.57,13.43-38.71,13.43c-0.13,0-1.33-0.8-2.66-1.73l-2.39-1.73l3.86-5.59c12.5-18.09,28.2-37.91,62.38-79.14
		L-136.53,816.47L-136.53,816.47z M-30.39,892.42c0.13-0.13,5.98,1.99,13.17,4.66c17.29,6.52,30.99,10.64,49.35,15.3
		c22.61,5.72,55.33,11.31,74.62,12.9c2.93,0.27,4.52,0.53,3.99,0.93c-0.93,0.53-20.48,7.05-34.85,11.57
		c-22.88,7.18-92.71,27.8-149.64,44.16c-10.51,3.06-19.55,5.59-20.09,5.72c-1.33,0.27-5.72-0.93-5.72-1.46
		c0-0.26,3.19-4.39,7.05-8.91c19.15-22.88,38.18-48.42,54-72.63C-34.11,898-30.39,892.55-30.39,892.42L-30.39,892.42z M-53.8,893.09
		c0.13,0.13-9.31,15.3-25.8,41.37c-7.05,11.04-14.9,23.54-17.69,27.93c-2.66,4.26-6.65,10.91-8.91,14.63l-3.86,6.78l-1.99-0.53
		c-4.79-1.33-38.44-13.17-47.35-16.76c-11.04-4.39-22.48-9.71-30.99-14.23c-10.64-5.72-23.94-14.23-22.88-14.5
		c0.27-0.13,18.49-5.06,40.44-11.04c58.26-15.83,90.58-25.01,111.73-31.66C-57.25,893.88-53.93,892.95-53.8,893.09L-53.8,893.09z
		 M111.8,931.92h0.13c0.53,1.33-21.01,61.19-28.87,80.07c-1.73,4.26-2.39,5.32-3.32,5.19c-2.26-0.13-33.52-4.52-52.54-7.31
		c-33.12-5.05-88.72-14.77-102.68-17.96l-3.19-0.66l19.82-4.53c42.57-9.58,63.05-14.76,83.8-21.15
		c26.2-7.98,52.14-17.96,78.35-30.19C107.41,933.52,110.87,932.06,111.8,931.92L111.8,931.92z"/>
	
		<linearGradient id="SVGID_00000130621953773021567240000011259626536058604730_" gradientUnits="userSpaceOnUse" x1="-17360.5879" y1="-13835.6143" x2="-16593.918" y2="-13835.6143" gradientTransform="matrix(0.038 0 0 0.038 481.0738 754.3624)">
		<stop  offset="0" style="stop-color:#939FAB"/>
		<stop  offset="1" style="stop-color:#DCDEE1"/>
	</linearGradient>
	<path style="fill:url(#SVGID_00000130621953773021567240000011259626536058604730_);" d="M12.98,145.41
		c-2.93-0.4-50.15,16.63-80.61,29c-41.1,16.76-73.02,32.72-92.71,46.55c-7.31,5.19-16.49,14.37-17.96,17.96
		c-0.53,1.33-0.8,2.93-0.8,4.52l17.82,16.89l42.43,13.57l100.96,18.09l115.45,19.82l1.2-9.98c-0.4,0-0.67-0.13-1.06-0.13l-15.17-2.4
		l-3.06-5.45c-15.7-27.67-32.99-61.99-43.1-85.13c-7.85-17.96-15.3-38.71-19.42-53.6C14.71,146.08,14.44,145.55,12.98,145.41
		L12.98,145.41L12.98,145.41L12.98,145.41z M10.85,152.2h0.14c0.13,0.13,0.66,3.86,1.2,8.25c2.26,18.62,6.39,36.58,12.9,56
		c4.92,14.63,4.92,13.83-0.8,12.1c-13.57-3.72-74.35-14.23-118.38-20.35c-7.05-0.93-13.04-1.86-13.04-1.99
		c-0.53-0.53,31.79-17.43,46.02-24.08C-42.89,173.74,7.12,152.86,10.85,152.2z M-117.38,211.79l5.19,1.73
		c28.2,9.58,99.09,23.15,138.2,26.34c4.39,0.4,8.11,0.8,8.25,0.8c0.13,0.13-3.59,2.13-8.38,4.39c-18.89,9.44-39.64,21.02-54,29.93
		c-4.26,2.66-8.11,4.79-8.64,4.79c-0.53,0-3.32-0.53-6.25-0.93l-5.32-0.8l-13.3-13.04c-23.41-22.74-41.77-40.3-48.82-46.95
		L-117.38,211.79z M-122.7,215.91l18.75,23.41c10.24,12.9,20.62,25.54,22.88,28.33c2.26,2.8,4.12,5.06,3.99,5.19
		c-0.53,0.4-27.13-4.79-41.23-7.98c-14.5-3.33-20.48-4.92-29.4-7.71l-7.32-2.4v-1.86c0.13-8.91,11.44-22.21,30.59-35.78
		C-124.43,217.11-122.7,215.91-122.7,215.91z M36.65,247.83c0.53,0,1.2,1.2,2.79,4.79c4.52,9.98,18.62,36.85,22.08,42.03
		c1.07,1.73,2.93,1.86-15.83-1.2c-45.09-7.32-59.59-9.71-59.59-9.98c0-0.13,1.33-1.06,3.06-2c13.97-7.71,28.07-17.56,40.57-28.07
		c3.06-2.53,5.85-4.92,6.38-5.32C36.25,247.83,36.52,247.7,36.65,247.83z"/>
	
		<radialGradient id="SVGID_00000067205769762290346040000016704636906529182392_" cx="-14597.5645" cy="-14623" r="1017.9019" gradientTransform="matrix(-0.0365 -5.481365e-03 0.0111 -0.073 -290.84 -684.0576)" gradientUnits="userSpaceOnUse">
		<stop  offset="0" style="stop-color:#EE352C"/>
		<stop  offset="1" style="stop-color:#A91D22"/>
	</radialGradient>
	<path style="fill:url(#SVGID_00000067205769762290346040000016704636906529182392_);" d="M-177.37,237.06c0,0-2.92,4.66-0.13,11.57
		c1.73,4.26,6.78,9.44,12.5,14.76c0,0,59.19,57.73,66.37,65.98c32.72,37.77,46.95,75.02,48.28,126.36
		c0.8,32.99-5.46,61.98-21.02,95.64c-27.67,60.39-86.06,127.03-176.11,200.99l13.17-4.39c8.51-6.39,20.09-13.17,47.22-28.07
		c62.65-34.32,133.15-65.84,219.61-98.3c124.5-46.82,329.21-101.63,445.73-119.45l12.11-1.86l-1.86-2.93
		c-10.64-16.49-17.96-26.74-26.74-37.64c-25.54-31.66-56.53-57.33-94.44-78.61c-52.14-29.13-119.58-51.87-204.97-68.77
		c-16.09-3.19-51.48-9.31-80.21-13.7c-60.92-9.44-100.29-15.96-143.65-23.41c-15.56-2.66-38.84-6.65-54.27-9.98
		c-7.98-1.73-23.28-5.32-35.25-9.44C-160.61,252.09-174.44,248.36-177.37,237.06L-177.37,237.06z M-143.05,270.31
		c0.13-0.13,2.26,0.66,5.05,1.6c5.05,1.73,11.57,3.72,19.29,5.85c5.84,1.61,11.69,3.16,17.56,4.65c7.98,1.99,14.63,3.86,14.76,3.86
		c0.93,0.93,14.37,43.89,18.89,60.39c1.73,6.25,3.06,11.57,2.93,11.57c-0.14,0.13-1.6-2.13-3.33-5.19
		c-15.56-27.4-40.17-55.2-68.64-77.55C-140.25,272.84-143.05,270.45-143.05,270.31z M-77.61,288.4c0.67,0,3.59,0.4,7.18,1.2
		c22.61,5.05,63.18,12.77,89.12,17.16c4.39,0.66,7.85,1.46,7.85,1.73c0,0.27-1.6,1.2-3.59,2.26c-4.39,2.26-22.08,12.77-27.93,16.76
		c-14.77,9.84-28.07,20.48-37.64,30.06c-3.86,3.86-7.18,7.05-7.18,7.05s-0.8-2.26-1.46-5.06c-4.79-18.49-14.76-45.89-23.81-65.18
		c-1.46-3.06-2.66-5.85-2.66-6.12C-77.74,288.54-77.74,288.4-77.61,288.4L-77.61,288.4z M37.58,310.35
		c0.8,0.26,2.13,4.79,4.79,14.76c4.92,19.29,7.18,40.84,6.39,60.92c-0.27,5.59-0.53,10.77-0.8,11.44l-0.4,1.33l-6.92-2.26
		c-14.23-4.52-37.38-11.31-57.19-16.89c-11.31-3.06-20.48-5.85-20.48-6.12c0-0.8,16.49-17.29,23.54-23.54
		C-0.06,338.15,36.39,309.95,37.58,310.35L37.58,310.35z M46.76,311.68c0.4-0.4,55.07,9.04,79.94,13.83
		c18.49,3.59,45.36,9.18,46.95,9.84c0.8,0.26-2,1.86-10.91,5.85c-35.11,15.83-61.19,30.06-87.12,47.35
		c-6.78,4.52-12.5,8.25-12.64,8.25c-0.13,0-0.27-3.86-0.27-8.51c0-25.27-5.05-50.81-14.37-72.36
		C47.43,313.81,46.63,311.81,46.76,311.68z M188.15,339.61c0.4,0.4-1.33,11.17-2.93,17.56c-4.79,19.82-17.69,49.22-33.52,76.88
		c-2.8,4.92-5.32,8.91-5.59,9.04c-0.26,0.13-3.86-1.86-7.98-4.26c-15.43-9.04-32.99-17.56-52.14-25.54
		c-5.32-2.26-9.98-4.12-10.11-4.39c-0.93-0.8,41.9-29.13,64.51-42.7C158.36,355.31,187.62,339.08,188.15,339.61z M198.26,341.21
		c1.2,0,25.41,6.65,38.04,10.38c31.26,9.31,67.17,22.48,90.58,33.12l9.71,4.39l-6.78,1.59c-57.19,13.17-106.14,28.33-153.37,47.49
		c-3.86,1.6-7.32,2.93-7.58,2.93c-0.27,0,1.06-3.06,2.79-6.78c14.23-30.19,23.41-61.72,25.67-88.59
		C197.47,343.2,197.86,341.21,198.26,341.21L198.26,341.21z M-42.76,396.54c0.4-0.4,18.89,3.99,28.86,6.78
		c15.16,4.26,47.35,15.03,47.35,15.83c0,0.13-3.59,3.19-7.85,6.92c-17.42,14.5-34.19,29.79-54.27,49.21
		c-5.99,5.72-11.04,10.38-11.3,10.38c-0.27,0-0.4-0.8-0.27-1.86c3.06-22.35,2.4-51.08-1.86-80.21
		C-42.49,399.87-42.89,396.68-42.76,396.54z M345.78,396.94c0.26,0.26-8.51,14.1-14.1,21.94c-7.98,11.44-19.69,26.61-46.16,59.86
		c-13.96,17.56-29.66,37.38-34.85,44.03c-5.32,6.65-9.71,12.24-9.85,12.24c-0.13,0-1.86-2.39-3.72-5.32
		c-14.9-22.35-32.72-41.9-53.87-59.46c-3.99-3.33-8.38-6.92-9.84-7.98c-1.46-1.06-2.66-2.13-2.66-2.26
		c0-0.4,22.61-10.11,39.77-17.03c30.06-12.24,71.03-26.87,101.75-36.31C328.35,401.6,345.51,396.68,345.78,396.94L345.78,396.94z
		 M356.02,399.6c0.53-0.13,3.72,1.46,7.58,3.72c32.32,18.49,63.98,42.3,88.99,66.77c7.05,6.92,24.47,25.01,24.21,25.14
		c0,0-6.12,0.53-13.3,1.06c-56,4.26-127.69,16.09-196.59,32.72c-4.65,1.06-8.78,1.99-9.04,1.99c-0.26,0,4.92-5.19,11.44-11.44
		c40.44-38.97,58.93-63.58,80.74-107.48C353.09,405.59,355.75,400,356.02,399.6C355.89,399.6,355.89,399.6,356.02,399.6
		L356.02,399.6z M59.8,429.93c1.86,0.4,19.16,8.51,32.19,15.03c11.97,5.98,29.93,15.56,30.86,16.36c0.13,0.13-6.25,3.46-14.1,7.32
		c-25.01,12.5-46.42,24.34-68.77,37.91c-6.38,3.86-11.7,7.05-11.84,7.05c-0.53,0-0.4-0.53,3.19-7.05
		c11.97-21.81,21.55-47.88,27-73.29C58.86,431.26,59.4,429.93,59.8,429.93L59.8,429.93z M42.5,433.12c0.4,0.4-4.12,16.76-6.91,25.67
		c-5.46,16.89-14.63,38.04-23.54,54c-2.13,3.72-5.32,9.18-7.05,12.24l-3.32,5.32l-7.45-7.18c-8.64-8.38-15.7-13.57-24.74-18.22
		c-3.59-1.86-6.39-3.46-6.39-3.72c0-1.06,22.75-21.68,40.17-36.58C15.77,453.87,42.11,432.72,42.5,433.12L42.5,433.12z
		 M148.25,476.62l6.52,4.26c14.89,9.71,32.45,22.61,45.89,33.92c7.58,6.25,22.21,19.42,25.14,22.61l1.59,1.73l-10.77,3.06
		c-60.92,16.89-108.01,31.92-162.94,52.14c-6.12,2.26-11.31,4.12-11.71,4.12c-0.8,0-1.46,0.66,12.24-11.97
		c35.12-32.32,66.24-67.97,89.39-102.69L148.25,476.62L148.25,476.62z M120.45,483.53c0.26,0.26-17.96,25.94-28.87,40.44
		c-13.03,17.29-36.18,46.29-52.14,65.18c-6.65,7.85-12.37,14.37-12.63,14.5c-0.4,0.13-0.53-1.86-0.53-4.92
		c0-16.1-4.12-33.25-11.31-47.89c-3.06-6.12-3.59-7.58-2.92-8.25c2.53-2.26,41.23-24.34,65.71-37.51
		C94.25,496.3,120.05,483.27,120.45,483.53L120.45,483.53z M-47.68,524.77c0.4,0,3.46,1.59,6.92,3.46
		c8.51,4.65,16.09,9.84,22.88,15.43c0.26,0.26-3.19,3.06-7.71,6.38c-12.64,9.04-31.79,23.54-42.96,32.46
		c-11.71,9.31-12.1,9.58-10.78,7.58c8.78-13.43,13.17-21.02,17.82-30.73c4.12-8.64,8.25-18.89,11.17-27.8
		C-49.28,527.7-47.94,524.77-47.68,524.77L-47.68,524.77z M-2.85,559.88c0.66-0.13,1.46,1.06,5.05,6.39
		c7.58,11.3,13.43,26.47,14.9,38.71l0.26,2.66l-18.22,7.05c-32.59,12.63-62.65,25.14-83,34.45c-5.72,2.66-15.69,7.45-22.21,10.64
		c-6.52,3.32-11.84,5.85-11.84,5.72c0-0.13,4.12-3.19,9.18-6.92c39.77-28.86,74.22-60.52,100.03-92.18
		c2.79-3.33,5.32-6.39,5.59-6.52L-2.85,559.88L-2.85,559.88z M-23.47,564.94c0.53,0.53-14.63,17.69-25.01,28.2
		c-25.67,26.21-51.08,46.69-82.6,66.64c-3.99,2.53-7.58,4.79-7.98,5.05c-0.93,0.53,0.26-0.8,14.1-15.83
		c8.78-9.44,15.43-17.42,23.01-27.27c5.05-6.52,5.99-7.45,13.3-12.64C-69.09,595-24,564.41-23.47,564.94z"/>
</g>
</svg>
