<?xml version="1.0" encoding="utf-8"?>
<!-- Generator: Adobe Illustrator 26.0.0, SVG Export Plug-In . SVG Version: 6.00 Build 0)  -->
<svg version="1.1" id="Capa_1" xmlns="http://www.w3.org/2000/svg" xmlns:xlink="http://www.w3.org/1999/xlink" x="0px" y="0px"
	 viewBox="0 0 500 500" style="enable-background:new 0 0 500 500;" xml:space="preserve">
<style type="text/css">
	.st0{fill:#005F0F;}
	.st1{fill:#FFFFFF;}
	.st2{fill:#AEA99F;}
</style>
<g>
	<rect x="0.57" class="st0" width="499.16" height="500"/>
	<path class="st1" d="M426,68.18c-61.47,75.33-136.55,138.42-216.61,193.12c-26.03,18.63-54.76,35.21-74.77,60.73
		c-7.64,13.43-9.49,32.34,3.58,43.23c21.76,20.51,55.66,24.97,82.92,13.49c38.17-14.54,64.53-47.63,86.68-80.43
		C357.24,227.07,387.23,145.14,426,68.18L426,68.18z"/>
	<path class="st2" d="M390.74,94.22c-76.54,60.64-137.76,93.42-216.04,121.61c-23.62,10.11-48.94,22.94-59.92,47.74
		c-11.3,23.47-7.6,56.19,5.37,77.92c-0.97-9.15,3.92-23.93,11.19-30.86c24.12-26.87,55.55-44.47,83.19-64.87l0.07-0.06l0.07-0.04
		C278.63,201.74,338.6,151.54,390.74,94.22L390.74,94.22z"/>
</g>
</svg>
