<?xml version="1.0" encoding="utf-8"?>
<!-- Generator: Adobe Illustrator 26.0.0, SVG Export Plug-In . SVG Version: 6.00 Build 0)  -->
<svg version="1.1" id="Capa_1" xmlns="http://www.w3.org/2000/svg" xmlns:xlink="http://www.w3.org/1999/xlink" x="0px" y="0px"
	 viewBox="0 0 500 500" style="enable-background:new 0 0 500 500;" xml:space="preserve">
<style type="text/css">
	.st0{fill:#21759B;}
</style>
<path class="st0" d="M54.52,162.7l102.32,280.29C85.31,408.27,35.97,334.88,35.97,250C35.94,219.92,42.26,190.17,54.52,162.7z
	 M395.19,239.16c0-26.51-9.53-44.86-17.69-59.12c-10.84-17.69-21.02-32.66-21.02-50.3c0-19.71,14.92-38.05,35.99-38.05
	c0.96,0,1.86,0.1,2.77,0.15c-39.49-36.29-91.18-56.39-144.81-56.3c-74.95,0-140.83,38.46-179.18,96.67
	c5.04,0.15,9.78,0.25,13.81,0.25c22.43,0,57.16-2.72,57.16-2.72c11.54-0.71,12.9,16.28,1.36,17.69c0,0-11.64,1.36-24.55,2.02
	l78.07,232.31l46.93-140.78l-33.37-91.53c-11.59-0.71-22.53-2.07-22.53-2.07c-11.54-0.66-10.18-18.35,1.36-17.64
	c0,0,35.43,2.72,56.5,2.72c22.43,0,57.16-2.72,57.16-2.72c11.59-0.71,12.9,16.28,1.36,17.64c0,0-11.64,1.36-24.55,2.07l77.52,230.54
	l21.37-71.47C388.14,278.83,395.19,257.51,395.19,239.16L395.19,239.16z M254.22,268.75l-64.36,187
	c43.21,12.7,89.31,11.5,131.8-3.43c-0.61-0.93-1.12-1.93-1.51-2.97L254.22,268.75z M438.59,147.08c1,7.32,1.49,14.69,1.46,22.08
	c0,21.77-4.08,46.22-16.33,76.81l-65.47,189.42C422.01,398.19,464.9,329.13,464.9,250C464.95,214.02,455.9,178.61,438.59,147.08
	L438.59,147.08z M500.43,250c0,137.85-112.15,250-250,250s-250-112.15-250-250S112.58,0,250.43,0S500.43,112.15,500.43,250z
	 M488.94,250c0-131.55-107.01-238.56-238.51-238.56S11.88,118.45,11.88,250s107.01,238.56,238.56,238.56S488.94,381.55,488.94,250z"
	/>
</svg>
