<?xml version="1.0" encoding="utf-8"?>
<!-- Generator: Adobe Illustrator 25.2.3, SVG Export Plug-In . SVG Version: 6.00 Build 0)  -->
<svg version="1.1" id="Capa_1" xmlns="http://www.w3.org/2000/svg" xmlns:xlink="http://www.w3.org/1999/xlink" x="0px" y="0px"
	 viewBox="0 0 623.62 170.08" style="enable-background:new 0 0 623.62 170.08;" xml:space="preserve">
<style type="text/css">
	.st0{fill:#452859;}
	.st1{fill:#C7971E;}
	.st2{fill:none;stroke:#452859;stroke-width:5;stroke-miterlimit:10;}
	.st3{fill:none;stroke:#C7971E;stroke-width:5;stroke-miterlimit:10;}
	.st4{fill:#BAD7A6;}
	.st5{fill:#4062AC;}
	.st6{fill:none;stroke:#BAD7A6;stroke-width:5;stroke-miterlimit:10;}
	.st7{fill:#FFFFFF;}
	.st8{fill:none;stroke:#000000;stroke-width:5;stroke-miterlimit:10;}
	.st9{fill:none;stroke:#4062AC;stroke-width:5;stroke-miterlimit:10;}
	.st10{fill:none;stroke:#FFFFFF;stroke-width:5;stroke-miterlimit:10;}
</style>
<g>
	<path d="M50.58,100.85h13.53V67.66H50.58V56.98h27.06v14.9h0.85c2.01-7.72,6.66-14.9,17.55-14.9h5.92v12.68h-11.2
		c-8.56,0-13.11,5.81-13.11,12.79v18.39h18.92v10.68H50.58V100.85z"/>
	<path d="M188,100.85h13.53V67.66H188V56.98h27.06v14.9h0.85c2.01-7.72,6.66-14.9,17.55-14.9h5.92v12.68h-11.2
		c-8.56,0-13.11,5.81-13.11,12.79v18.39h18.92v10.68H188V100.85z"/>
	<path d="M284.19,111.52c-10.36,0-15.22-6.13-15.22-14.8V67.66h-15.86V56.98h10.78c4.33,0,6.03-1.48,6.03-6.02V37.75h12.58v19.24
		h22.2v10.68h-22.2v33.19h22.2v10.68H284.19z"/>
	<path d="M323.3,84.36c0-17.65,10.15-28.64,26.11-28.64c15.75,0,25.69,10.89,25.69,27.38v4.44h-38.26v1.37
		c0,7.82,5.18,13.21,14.06,13.21c6.66,0,11.52-2.96,14.8-7.5l7.72,7.72c-3.91,5.71-11.42,10.46-22.94,10.46
		C333.02,112.79,323.3,101.8,323.3,84.36z M336.83,78.76v0.74h24.73v-0.95c0-7.82-4.65-12.9-12.05-12.9
		C341.9,65.65,336.83,70.94,336.83,78.76z"/>
	<path d="M431.46,59.08 M427.26,57.18c-2.84-0.94-6.2-1.46-9.88-1.46c-13.85,0-22.94,7.19-22.94,19.24
		c0,7.93,3.91,13.74,10.36,16.81v0.53c-5.81,1.37-9.83,3.7-9.83,9.09c0,4.44,2.64,6.87,6.87,8.24v0.85
		c-6.34,1.59-10.04,4.55-10.04,10.57c0,7.82,6.13,12.9,25.9,12.9c19.98,0,29.38-5.29,29.38-16.7c0-9.09-6.02-15.43-21.14-15.43
		h-12.37c-4.54,0-8.24-0.32-8.24-3.7c0-2.54,2.22-4.02,4.23-4.76c2.43,0.63,5.07,0.85,7.82,0.85c13.85,0,23.04-7.08,23.04-19.24
		c0-7.01-3.01-12.26-8.2-15.44c-0.26-0.12-0.5-0.26-0.73-0.41 M407.44,73.58c0-5.28,3.17-8.98,9.94-8.98
		c6.87,0,10.04,3.7,10.04,8.98v2.75c0,5.28-3.17,8.98-10.04,8.98c-6.76,0-9.94-3.7-9.94-8.98V73.58z M422.45,124.84h-8.77
		c-7.5,0-10.46-2.85-10.46-6.66c0-2.33,1.06-4.12,3.17-5.28h18.82c6.98,0,9.2,2.01,9.2,5.28
		C434.39,122.52,430.38,124.84,422.45,124.84z"/>
	<path d="M568.82,59.88 M564.61,57.97c-2.84-0.94-6.2-1.46-9.88-1.46c-13.85,0-22.94,7.19-22.94,19.24
		c0,7.93,3.91,13.74,10.36,16.81v0.53c-5.81,1.37-9.83,3.7-9.83,9.09c0,4.44,2.64,6.87,6.87,8.24v0.85
		c-6.34,1.59-10.04,4.55-10.04,10.57c0,7.82,6.13,12.9,25.9,12.9c19.98,0,29.38-5.29,29.38-16.7c0-9.09-6.02-15.43-21.14-15.43
		h-12.37c-4.54,0-8.24-0.32-8.24-3.7c0-2.54,2.22-4.02,4.23-4.76c2.43,0.63,5.07,0.85,7.82,0.85c13.85,0,23.04-7.08,23.04-19.24
		c0-7.01-3.01-12.26-8.2-15.44c-0.26-0.12-0.5-0.26-0.73-0.41 M544.79,74.37c0-5.28,3.17-8.98,9.94-8.98
		c6.87,0,10.04,3.7,10.04,8.98v2.75c0,5.28-3.17,8.98-10.04,8.98c-6.76,0-9.94-3.7-9.94-8.98V74.37z M559.8,125.64h-8.77
		c-7.5,0-10.46-2.85-10.46-6.66c0-2.33,1.06-4.12,3.17-5.28h18.82c6.98,0,9.2,2.01,9.2,5.28
		C571.75,123.31,567.73,125.64,559.8,125.64z"/>
	<path d="M506.7,111.52c-6.55,0-10.25-3.59-10.89-9.41h-0.53c-2.01,6.76-8.03,10.68-16.49,10.68c-10.89,0-17.97-6.13-17.97-16.38
		c0-10.99,8.14-16.49,24.21-16.49h9.62v-3.59c0-6.87-3.28-10.46-10.78-10.46c-6.87,0-10.78,2.96-13.74,7.19l-7.72-6.55
		c3.38-6.02,10.99-10.78,22.83-10.78c14.27,0,22.94,6.87,22.94,19.98v25.69h6.45v10.15H506.7z M494.64,95.04v-7.29h-9.3
		c-7.4,0-11.1,2.43-11.1,6.98v2.11c0,4.33,3.49,6.66,9.09,6.66C489.78,103.49,494.64,100.21,494.64,95.04z"/>
</g>
<circle cx="144.37" cy="84.77" r="33.78"/>
<path class="st7" d="M168.91,66.91c0.39,5.11-1.4,10.83-2.77,15.62c-1.44,5.01-3.82,9.38-7.55,14.26
	c-6.67,8.73-13.14,15.37-20.3,17.74c1.96,0.4,4,0.61,6.08,0.61c16.77,0,30.36-13.59,30.36-30.36
	C174.73,78.09,172.57,71.92,168.91,66.91z"/>
<path class="st8" d="M545.83,59.88c-32.7-32.7-85.72-32.7-118.41,0"/>
</svg>
