<?xml version="1.0" encoding="utf-8"?>
<!-- Generator: Adobe Illustrator 25.2.3, SVG Export Plug-In . SVG Version: 6.00 Build 0)  -->
<svg version="1.1" id="Capa_1" xmlns="http://www.w3.org/2000/svg" xmlns:xlink="http://www.w3.org/1999/xlink" x="0px" y="0px"
	 viewBox="0 0 623.62 170.08" style="enable-background:new 0 0 623.62 170.08;" xml:space="preserve">
<style type="text/css">
	.st0{fill:#452859;}
	.st1{fill:#C7971E;}
	.st2{fill:none;stroke:#452859;stroke-width:5;stroke-miterlimit:10;}
	.st3{fill:none;stroke:#C7971E;stroke-width:5;stroke-miterlimit:10;}
	.st4{fill:#BAD7A6;}
	.st5{fill:#4062AC;}
	.st6{fill:none;stroke:#BAD7A6;stroke-width:5;stroke-miterlimit:10;}
	.st7{fill:#FFFFFF;}
	.st8{fill:none;stroke:#000000;stroke-width:5;stroke-miterlimit:10;}
	.st9{fill:none;stroke:#4062AC;stroke-width:5;stroke-miterlimit:10;}
	.st10{fill:none;stroke:#FFFFFF;stroke-width:5;stroke-miterlimit:10;}
</style>
<g>
	<path class="st5" d="M42.93,100.23h13.53V67.04H42.93V56.36h27.06v14.9h0.85c2.01-7.72,6.66-14.9,17.55-14.9h5.92v12.68h-11.2
		c-8.56,0-13.11,5.81-13.11,12.79v18.39h18.92v10.68H42.93V100.23z"/>
	<path class="st5" d="M180.34,100.23h13.53V67.04h-13.53V56.36h27.06v14.9h0.85c2.01-7.72,6.66-14.9,17.55-14.9h5.92v12.68h-11.2
		c-8.56,0-13.11,5.81-13.11,12.79v18.39h18.92v10.68h-45.98V100.23z"/>
	<path class="st5" d="M276.53,110.91c-10.36,0-15.22-6.13-15.22-14.8V67.04h-15.86V56.36h10.78c4.33,0,6.03-1.48,6.03-6.02V37.13
		h12.58v19.24h22.2v10.68h-22.2v33.19h22.2v10.68H276.53z"/>
	<path class="st5" d="M315.65,83.74c0-17.65,10.15-28.64,26.11-28.64c15.75,0,25.69,10.89,25.69,27.38v4.44h-38.26v1.37
		c0,7.82,5.18,13.21,14.06,13.21c6.66,0,11.52-2.96,14.8-7.5l7.72,7.72c-3.91,5.71-11.42,10.46-22.94,10.46
		C325.37,112.17,315.65,101.18,315.65,83.74z M329.17,78.14v0.74h24.73v-0.95c0-7.82-4.65-12.9-12.05-12.9
		C334.25,65.03,329.17,70.32,329.17,78.14z"/>
	<path class="st5" d="M423.81,58.47 M419.6,56.56c-2.84-0.94-6.2-1.46-9.88-1.46c-13.85,0-22.94,7.19-22.94,19.24
		c0,7.93,3.91,13.74,10.36,16.81v0.53c-5.81,1.37-9.83,3.7-9.83,9.09c0,4.44,2.64,6.87,6.87,8.24v0.85
		c-6.34,1.59-10.04,4.55-10.04,10.57c0,7.82,6.13,12.9,25.9,12.9c19.98,0,29.38-5.29,29.38-16.7c0-9.09-6.02-15.43-21.14-15.43
		h-12.37c-4.54,0-8.24-0.32-8.24-3.7c0-2.54,2.22-4.02,4.23-4.76c2.43,0.63,5.07,0.85,7.82,0.85c13.85,0,23.04-7.08,23.04-19.24
		c0-7.01-3.01-12.26-8.2-15.44c-0.26-0.12-0.5-0.26-0.73-0.41 M399.79,72.96c0-5.28,3.17-8.98,9.94-8.98
		c6.87,0,10.04,3.7,10.04,8.98v2.75c0,5.28-3.17,8.98-10.04,8.98c-6.76,0-9.94-3.7-9.94-8.98V72.96z M414.8,124.22h-8.77
		c-7.5,0-10.46-2.85-10.46-6.66c0-2.33,1.06-4.12,3.17-5.28h18.82c6.98,0,9.2,2.01,9.2,5.28
		C426.74,121.9,422.72,124.22,414.8,124.22z"/>
	<path class="st5" d="M561.16,59.26 M556.96,57.35c-2.84-0.94-6.2-1.46-9.88-1.46c-13.85,0-22.94,7.19-22.94,19.24
		c0,7.93,3.91,13.74,10.36,16.81v0.53c-5.81,1.37-9.83,3.7-9.83,9.09c0,4.44,2.64,6.87,6.87,8.24v0.85
		c-6.34,1.59-10.04,4.55-10.04,10.57c0,7.82,6.13,12.9,25.9,12.9c19.98,0,29.38-5.29,29.38-16.7c0-9.09-6.02-15.43-21.14-15.43
		h-12.37c-4.54,0-8.24-0.32-8.24-3.7c0-2.54,2.22-4.02,4.23-4.76c2.43,0.63,5.07,0.85,7.82,0.85c13.85,0,23.04-7.08,23.04-19.24
		c0-7.01-3.01-12.26-8.2-15.44c-0.26-0.12-0.5-0.26-0.73-0.41 M537.14,73.75c0-5.28,3.17-8.98,9.94-8.98
		c6.87,0,10.04,3.7,10.04,8.98v2.75c0,5.28-3.17,8.98-10.04,8.98c-6.76,0-9.94-3.7-9.94-8.98V73.75z M552.15,125.02h-8.77
		c-7.5,0-10.46-2.85-10.46-6.66c0-2.33,1.06-4.12,3.17-5.28h18.82c6.98,0,9.2,2.01,9.2,5.28
		C564.09,122.69,560.08,125.02,552.15,125.02z"/>
	<path class="st5" d="M499.04,110.91c-6.55,0-10.25-3.59-10.89-9.41h-0.53c-2.01,6.76-8.03,10.68-16.49,10.68
		c-10.89,0-17.97-6.13-17.97-16.38c0-10.99,8.14-16.49,24.21-16.49h9.62v-3.59c0-6.87-3.28-10.46-10.78-10.46
		c-6.87,0-10.78,2.96-13.74,7.19l-7.72-6.55c3.38-6.02,10.99-10.78,22.83-10.78c14.27,0,22.94,6.87,22.94,19.98v25.69h6.45v10.15
		H499.04z M486.99,94.42v-7.29h-9.3c-7.4,0-11.1,2.43-11.1,6.98v2.11c0,4.33,3.49,6.66,9.09,6.66
		C482.13,102.87,486.99,99.6,486.99,94.42z"/>
</g>
<circle class="st5" cx="136.71" cy="84.15" r="33.78"/>
<path class="st4" d="M161.26,66.29c0.39,5.11-1.4,10.83-2.77,15.62c-1.44,5.01-3.82,9.38-7.55,14.26
	c-6.67,8.73-13.14,15.37-20.3,17.74c1.96,0.4,4,0.61,6.08,0.61c16.77,0,30.36-13.59,30.36-30.36
	C167.08,77.47,164.91,71.3,161.26,66.29z"/>
<path class="st9" d="M538.18,59.26c-32.7-32.7-85.72-32.7-118.41,0"/>
</svg>
