<?xml version="1.0" encoding="utf-8"?>
<!-- Generator: Adobe Illustrator 26.0.0, SVG Export Plug-In . SVG Version: 6.00 Build 0)  -->
<svg version="1.1" id="Capa_1" xmlns="http://www.w3.org/2000/svg" xmlns:xlink="http://www.w3.org/1999/xlink" x="0px" y="0px"
	 viewBox="0 0 500 500" style="enable-background:new 0 0 500 500;" xml:space="preserve">
<style type="text/css">
	.st0{fill:#923E00;}
	.st1{fill:#FFFFFF;}
</style>
<g>
	<circle class="st0" cx="250" cy="250" r="158.4"/>
</g>
<g>
	<path class="st1" d="M341.7,207.4c0,9.5-5,18.4-15,26.6c-6,5-15.1,10.5-27.4,16.5c5,8.6,7.5,16.4,7.5,23.3c0,14.4-9.3,25-27.9,31.9
		c-13.3,4.9-28.8,7.4-46.5,7.4h-50.3l34.9-99.3h34.8l-29.7,83.8h4.9c11.3,0,20.8-1.3,28.7-3.9c11.5-3.9,17.3-10.4,17.3-19.3
		c0-2.8-1.3-6.2-3.9-10.2c-2.6-4-3.9-6.9-3.9-8.7c0-0.9,0.1-1.5,0.2-1.9c1.3-2.8,4.8-5.6,10.6-8.3c7.9-3.8,13.7-7.3,17.4-10.5
		c6.2-5.4,9.3-11.5,9.3-18.6c0-9.9-7.6-14.9-22.7-14.9H166.8l14.9-24.4h113c14.8,0,26,2,33.4,6C337.2,187.8,341.7,196,341.7,207.4z"
		/>
</g>
</svg>
