<?xml version="1.0" encoding="utf-8"?>
<!-- Generator: Adobe Illustrator 26.3.1, SVG Export Plug-In . SVG Version: 6.00 Build 0)  -->
<svg version="1.1" id="Capa_1" xmlns="http://www.w3.org/2000/svg" xmlns:xlink="http://www.w3.org/1999/xlink" x="0px" y="0px"
	 viewBox="0 0 500 500" style="enable-background:new 0 0 500 500;" xml:space="preserve">
<style type="text/css">
	.st0{fill:none;stroke:#000000;stroke-width:33.3333;stroke-linecap:round;stroke-miterlimit:133.3333;}
	.st1{fill:none;stroke:#000000;stroke-width:15;stroke-linecap:round;stroke-miterlimit:133.3333;}
	.st2{fill:none;stroke:#000000;stroke-width:20;stroke-linecap:round;stroke-miterlimit:133.3333;}
</style>
<path class="st0" d="M250.5,84.4V483"/>
<path class="st0" d="M483,84.4V483"/>
<path class="st0" d="M18,84.4V483"/>
<path class="st0" d="M483,483c0,0-27.4-66.4-123.1-66.4S250.5,483,250.5,483"/>
<path class="st0" d="M18,483c0,0,27.4-66.4,123.1-66.4S250.5,483,250.5,483"/>
<path class="st0" d="M483,84.4c0,0-27.4-66.4-123.1-66.4S250.5,84.4,250.5,84.4"/>
<path class="st0" d="M18,84.4c0,0,27.4-66.4,123.1-66.4s109.4,66.4,109.4,66.4"/>
<path class="st1" d="M295.3,134.4c0,0,16.7-40.5,75-40.5s66.7,40.5,66.7,40.5"/>
<path class="st1" d="M295.5,203.6c0,0,16.7-40.5,75-40.5s66.7,40.5,66.7,40.5"/>
<path class="st2" d="M63.9,136.9c0,0,16.7-40.5,75-40.5s66.7,40.5,66.7,40.5"/>
<path class="st2" d="M63.9,324.3c0,0,16.7-40.5,75-40.5s66.7,40.5,66.7,40.5"/>
<path class="st2" d="M63.9,137.4V321"/>
<path class="st2" d="M205.6,137.8v183.6"/>
<path class="st1" d="M295.5,270.4c0,0,16.7-40.5,75-40.5s66.7,40.5,66.7,40.5"/>
<path class="st1" d="M295.5,335.9c0,0,16.7-40.5,75-40.5s66.7,40.5,66.7,40.5"/>
</svg>
