<?xml version="1.0" encoding="utf-8"?>
<!-- Generator: Adobe Illustrator 26.3.1, SVG Export Plug-In . SVG Version: 6.00 Build 0)  -->
<svg version="1.1" id="Capa_1" xmlns="http://www.w3.org/2000/svg" xmlns:xlink="http://www.w3.org/1999/xlink" x="0px" y="0px"
	 viewBox="0 0 500 500" style="enable-background:new 0 0 500 500;" xml:space="preserve">
<style type="text/css">
	.st0{fill:none;stroke:#000000;stroke-width:10;stroke-linecap:round;stroke-linejoin:round;stroke-miterlimit:133.3333;}
	.st1{fill:#FFFFFF;}
	.st2{enable-background:new    ;}
</style>
<g id="File_On">
	<path d="M388.8,162l-92.9-91.9c-5.2-5.3-12.3-8.1-19.6-8.1H147.4c-25.9-0.1-46.8,21.1-46.8,47.2v281.4
		c0.1,26.1,20.9,47.2,46.8,47.4h203.1c25.8-0.1,46.7-21.2,46.8-47.4V182.2C397.3,174.6,394.2,167.3,388.8,162z M365.1,164.9h-43.7
		c-15.4,0-28-12.6-28-28.4V94L365.1,164.9z M378.5,390.6c0,15.6-12.5,28.4-28,28.4H147.4c-15.4,0-28-12.6-28-28.4V109.2
		c0-15.6,12.5-28.4,28-28.4h127.2v55.6c0,26.2,20.9,47.4,46.8,47.4h57.1L378.5,390.6L378.5,390.6z"/>
</g>
<g id="Complete">
	<g id="arrow-up">
		<g>
			<polyline id="Right-2" class="st0" points="139.2,114.6 158.4,104.3 177.7,114.6 			"/>
			<line class="st0" x1="158.4" y1="143.2" x2="158.4" y2="109.1"/>
		</g>
	</g>
</g>
<g id="Complete_00000181068553099027139900000009042591153967473575_">
	<g id="arrow-up_00000044136805015062163300000000545112905471992727_">
		<g>
			<polyline id="Right-2_00000128456240778239039760000018032621655097174145_" class="st0" points="210.9,114.9 230.2,104.6 
				249.4,114.9 			"/>
			<line class="st0" x1="230.2" y1="143.4" x2="230.2" y2="109.4"/>
		</g>
	</g>
</g>
<g id="Complete_00000019653513206206960710000001903781133881019777_">
	<g id="arrow-up_00000016070482453803089250000010111928175194250929_">
		<g>
			<polyline id="Right-2_00000072979474780753684790000008474110797633425587_" class="st0" points="139.4,197 158.6,207.3 
				177.9,197 			"/>
			<line class="st0" x1="158.6" y1="168.4" x2="158.6" y2="202.5"/>
		</g>
	</g>
</g>
<g id="Complete_00000069372567000602833580000016676690853417862572_">
	<g id="arrow-up_00000138532208447615859810000000468362082901529994_">
		<g>
			<polyline id="Right-2_00000110449646233336742470000016840253553840489866_" class="st0" points="210.9,197 230.2,207.3 
				249.4,197 			"/>
			<line class="st0" x1="230.2" y1="168.4" x2="230.2" y2="202.5"/>
		</g>
	</g>
</g>
<g id="Complete_00000052093600088288100150000005446181516657042862_">
	<g id="arrow-up_00000131326479183893788460000007218814660576439695_">
		<g>
			<polyline id="Right-2_00000000925648702541308330000005201512036970444428_" class="st0" points="149.7,277.3 139.4,258 
				149.7,238.5 			"/>
			<line class="st0" x1="177.9" y1="258" x2="144.2" y2="258"/>
		</g>
	</g>
</g>
<g id="Complete_00000008871493531588448580000002341070679948388248_">
	<g id="arrow-up_00000087385414910061236250000006559636448551618494_">
		<g>
			<polyline id="Right-2_00000016035060481122692590000004624454539112451993_" class="st0" points="223.8,277.3 234,258 
				223.8,238.5 			"/>
			<line class="st0" x1="195.5" y1="258" x2="229.2" y2="258"/>
		</g>
	</g>
</g>
<g id="Complete_00000127044859542728051940000018153726225152772538_">
	<g id="arrow-up_00000032625212458216330110000013249163595325268366_">
		<g>
			<polyline id="Right-2_00000075136878227637701390000006520037445074984885_" class="st0" points="264.9,277.3 254.8,258 
				264.9,238.5 			"/>
			<line class="st0" x1="293.2" y1="258" x2="259.5" y2="258"/>
		</g>
	</g>
</g>
<g id="Complete_00000150074984159623732440000002158933353864512896_">
	<g id="arrow-up_00000168811287491438725670000009125948990559877006_">
		<g>
			<polyline id="Right-2_00000066482860846489784530000013281445947394717629_" class="st0" points="338.2,277.3 348.6,258 
				338.2,238.5 			"/>
			<line class="st0" x1="310.1" y1="258" x2="343.8" y2="258"/>
		</g>
	</g>
</g>
<path d="M184.7,350.8c0,2.9-2.4,5.3-5.2,5.3h-36.7c-2.9,0-5.2-2.5-5.2-5.3v-37.1c0-2.9,2.4-5.3,5.2-5.3h36.7c2.9,0,5.2,2.5,5.2,5.3
	V350.8z"/>
<path class="st1" d="M151.3,320.5c0-2,1.4-3.1,3.3-3.1h7.8c4.2,0,7.6,2.9,7.6,7.3c0,2.9-1.1,4.8-3.7,6v0.1c3.4,0.5,6.2,3.4,6.2,7
	c0,5.9-3.9,8.9-9.4,8.9h-8.4c-1.8,0-3.3-1.1-3.3-3.1V320.5L151.3,320.5z M157.5,329h3.2c2,0,3.3-1.1,3.3-3.3c0-2-1.5-2.9-3.3-2.9
	h-3.2V329L157.5,329z M157.5,341.3h4.7c2.3,0,3.9-1.2,3.9-3.6c0-2-1.5-3.3-4.3-3.3h-4.3L157.5,341.3L157.5,341.3z"/>
<path d="M255.9,350.8c0,2.9-2.3,5.3-5.2,5.3h-36.4c-2.8,0-5.2-2.3-5.2-5.3v-36.8c0-2.9,2.3-5.3,5.2-5.3h36.4c2.8,0,5.2,2.3,5.2,5.3
	V350.8L255.9,350.8z"/>
<path class="st1" d="M228.2,320.6c0.7-1.9,2.3-3.4,4.3-3.4c2.1,0,3.6,1.4,4.3,3.4l8,22.2c0.2,0.7,0.3,1.2,0.3,1.5
	c0,1.5-1.3,2.7-2.8,2.7c-1.7,0-2.6-1-2.9-2.1l-1.2-3.8h-11.2l-1.2,3.8c-0.4,1.2-1.2,2.2-2.9,2.2c-1.6,0-3-1.2-3-2.9
	c0-0.7,0.2-1.1,0.3-1.4L228.2,320.6L228.2,320.6z M228.6,335.4h7.7l-3.7-11.8h-0.1L228.6,335.4L228.6,335.4z"/>
<g class="st2">
	<path d="M285.1,338l1.8-2.1c1.1,1.2,2.4,1.8,3.7,1.8c1.5,0,2.4-0.7,2.4-2c0-1.1-0.5-1.5-2-1.8l-1.5-0.2c-2.7-0.5-3.9-2.1-3.9-4.4
		c0-2.9,2-4.7,5.4-4.7c2.3,0,4.1,0.8,5.2,2l-1.8,2.1c-0.8-0.8-2-1.4-3.3-1.4c-1.5,0-2.1,0.7-2.1,1.8c0,1.1,0.7,1.5,2.1,1.8l1.5,0.3
		c2.4,0.5,3.9,1.9,3.9,4.3c0,2.9-2,5-5.8,5C288.2,340.4,286.2,339.5,285.1,338z"/>
	<path d="M305.4,327.6v12.6h-3.3v-12.6h-4.3V325h12v2.6H305.4z"/>
	<path d="M319.5,340.2l-0.9-3.7h-4.1l-0.9,3.7h-3.3l4.1-15.2h4.6l4.1,15.2H319.5z M316.8,328.1h-0.2l-1.5,5.8h3.1L316.8,328.1z"/>
	<path d="M328,340.2h-3.2V325h5.9c2.9,0,4.6,1.9,4.6,4.8c0,2.1-1,3.8-2.6,4.3l2.9,6h-3.6l-2.6-5.6H328L328,340.2L328,340.2z
		 M329.8,332c1.5,0,2-0.6,2-1.9v-0.7c0-1.4-0.5-1.9-2-1.9H328v4.4H329.8L329.8,332z"/>
	<path d="M344.2,327.6v12.6H341v-12.6h-4.3V325h11.9v2.6H344.2z"/>
</g>
</svg>
