<?xml version="1.0" encoding="utf-8"?>
<!-- Generator: Adobe Illustrator 26.0.0, SVG Export Plug-In . SVG Version: 6.00 Build 0)  -->
<svg version="1.1" id="Capa_1" xmlns="http://www.w3.org/2000/svg" xmlns:xlink="http://www.w3.org/1999/xlink" x="0px" y="0px"
	 viewBox="0 0 1920 1080" style="enable-background:new 0 0 1920 1080;" xml:space="preserve">
<style type="text/css">
	.st0{fill-rule:evenodd;clip-rule:evenodd;fill:#00BCEB;}
	.st1{display:none;}
	.st2{display:inline;}
	.st3{fill-rule:evenodd;clip-rule:evenodd;fill:#FFFFFF;}
</style>
<g transform="matrix(10 0 0 10 540 540)">
	<g>
		<g transform="matrix(1 0 0 1 -37.14 18.74)">
			<path vector-effect="non-scaling-stroke" class="st0" d="M42.2,15.5V9.3l-0.1,0.1c-1.4,0.7-2.9,1.1-4.4,1.1
				c-1.6,0.1-3.2-0.3-4.5-1.3c-0.9-0.7-1.6-1.7-1.9-2.8c-0.4-1.2-0.4-2.5-0.1-3.7c0.3-1.2,1-2.4,2-3.2c0.9-0.7,2-1.2,3.1-1.3
				c2-0.2,4.1,0.2,5.9,1.1l0.1,0.1v-6.2l-0.3-0.1c-1.8-0.6-3.7-0.8-5.6-0.7c-1.7,0-3.4,0.4-5,1.1c-1.6,0.7-3,1.8-4.1,3.2
				c-3.5,4.4-3.5,10.5-0.2,15c1.6,2.1,3.9,3.6,6.5,4.2c2.7,0.7,5.6,0.6,8.2-0.3L42.2,15.5"/>
		</g>
		<g transform="matrix(1 0 0 1 12.36 18.74)">
			<path vector-effect="non-scaling-stroke" class="st0" d="M53.7,15.5V9.3l-0.1,0.1c-1.4,0.7-2.9,1.1-4.4,1.1
				c-1.6,0.1-3.2-0.3-4.5-1.3c-0.9-0.7-1.6-1.7-1.9-2.8c-0.4-1.2-0.4-2.5-0.1-3.7c0.3-1.2,1-2.4,2-3.2c0.9-0.7,2-1.2,3.1-1.3
				c2-0.2,4.1,0.2,5.9,1.1l0.1,0.1v-6.2l-0.3-0.1c-1.8-0.6-3.7-0.8-5.6-0.7c-1.7,0-3.4,0.4-5,1.1c-1.6,0.7-3,1.8-4.1,3.2
				c-3.5,4.4-3.5,10.5-0.2,15c1.6,2.1,3.9,3.6,6.5,4.2c2.7,0.7,5.6,0.6,8.2-0.3L53.7,15.5"/>
		</g>
		<g transform="matrix(1 0 0 1 10.42 18.72)">
			<path vector-effect="non-scaling-stroke" class="st0" d="M16.4,10.4l0,5.3l0.4,0.1c1.2,0.2,2.4,0.4,3.7,0.5
				c1.1,0.1,2.2,0.1,3.3,0.1c1-0.1,2.1-0.3,3.1-0.6c1.2-0.3,2.2-0.9,3.2-1.7c0.8-0.7,1.5-1.6,1.8-2.6c0.7-1.7,0.6-3.6,0-5.3
				c-0.4-0.9-0.9-1.7-1.7-2.3c-0.7-0.6-1.5-1.1-2.4-1.4l-4-1.5c-0.5-0.2-0.9-0.6-1.1-1c-0.2-0.4-0.2-0.8,0-1.2
				c0.1-0.1,0.2-0.3,0.3-0.4c0.2-0.2,0.4-0.3,0.6-0.4c0.4-0.2,0.9-0.4,1.4-0.4c0.8-0.1,1.7-0.1,2.6,0c1,0.1,2,0.3,3,0.5l0.2,0v-4.9
				L30.2-7c-1-0.2-2-0.4-3-0.5c-1.3-0.2-2.6-0.2-4,0c-1.7,0.2-3.2,0.8-4.6,1.8C17.8-5,17.1-4.1,16.7-3c-0.6,1.6-0.6,3.4,0,5
				c0.3,0.8,0.8,1.5,1.4,2.1c0.5,0.5,1.1,1,1.8,1.3c0.9,0.5,1.8,0.8,2.8,1.1c0.3,0.1,0.6,0.2,0.9,0.3L24.1,7L24.3,7
				c0.5,0.2,0.9,0.4,1.3,0.8c0.2,0.2,0.4,0.5,0.6,0.8c0.1,0.3,0.1,0.6,0,0.9c-0.1,0.5-0.5,0.9-0.9,1.1c-0.5,0.2-1,0.4-1.5,0.5
				c-0.8,0.1-1.6,0.2-2.4,0.1c-1-0.1-2.1-0.2-3.1-0.4c-0.5-0.1-1.1-0.2-1.6-0.4L16.4,10.4z M2.7,15.9h5.8V-7.2H2.7V15.9z M70.1-0.4
				c1.7-1.4,4-1.7,6-1s3.5,2.6,3.8,4.8c0.3,2.2-0.5,4.3-2.3,5.7c-2.6,2-6.4,1.6-8.5-1C67.2,5.5,67.5,1.7,70.1-0.4 M61.7,4.4
				c0.1,3.7,1.8,7.1,4.6,9.4c2.9,2.3,6.6,3.1,10.2,2.3c4.8-0.9,8.6-4.7,9.5-9.6c0.9-4.9-1.4-9.7-5.6-12.3C76.6-8.1,71.9-8.2,68-6.1
				C64.2-4,61.7,0,61.7,4.4"/>
		</g>
		<g transform="matrix(1 0 0 1 -51.66 -8.39)">
			<path vector-effect="non-scaling-stroke" class="st0" d="M27.1,1.3c0.1,1.1,0.8,2.1,1.8,2.5s2.2,0.2,3-0.6
				c0.5-0.5,0.9-1.2,0.9-1.9v-6.4c0-1.6-1.3-2.8-2.9-2.8s-2.8,1.3-2.9,2.8V1.3"/>
		</g>
		<g transform="matrix(1 0 0 1 -38.71 -11.6)">
			<path vector-effect="non-scaling-stroke" class="st0" d="M30.1,4.5c0.1,1.5,1.4,2.7,2.9,2.7c1.5,0,2.8-1.2,2.9-2.7V-9.8
				c-0.1-1.6-1.3-2.8-2.9-2.8c-1.6,0-2.8,1.2-2.9,2.8V4.5"/>
		</g>
		<g transform="matrix(1 0 0 1 -25.83 -13.67)">
			<path vector-effect="non-scaling-stroke" class="st0" d="M33.1,12.4c0.1,1.5,1.4,2.7,2.9,2.7c1.5,0,2.8-1.2,2.9-2.7v-31.1
				c-0.1-1.5-1.3-2.7-2.9-2.7s-2.8,1.2-2.9,2.7V12.4"/>
		</g>
		<g transform="matrix(1 0 0 1 -12.84 -11.6)">
			<path vector-effect="non-scaling-stroke" class="st0" d="M36.1,4.5c0.1,1.5,1.4,2.7,2.9,2.7c1.5,0,2.8-1.2,2.9-2.7V-9.8
				c-0.1-1.6-1.3-2.8-2.9-2.8c-1.6,0-2.8,1.2-2.9,2.8V4.5"/>
		</g>
		<g transform="matrix(1 0 0 1 0.09 -8.39)">
			<path vector-effect="non-scaling-stroke" class="st0" d="M39.1,1.3c0.1,1.1,0.8,2.1,1.8,2.5c1,0.4,2.2,0.2,3-0.6
				c0.5-0.5,0.9-1.2,0.9-1.9v-6.4c0-1.6-1.3-2.8-2.9-2.8c-1.6,0-2.8,1.3-2.9,2.8V1.3"/>
		</g>
		<g transform="matrix(1 0 0 1 13.04 -11.6)">
			<path vector-effect="non-scaling-stroke" class="st0" d="M42.1,4.5c0.1,1.5,1.4,2.7,2.9,2.7c1.5,0,2.8-1.2,2.9-2.7V-9.8
				c-0.1-1.6-1.3-2.8-2.9-2.8s-2.8,1.2-2.9,2.8V4.5"/>
		</g>
		<g transform="matrix(1 0 0 1 25.92 -13.67)">
			<path vector-effect="non-scaling-stroke" class="st0" d="M45.1,12.4c0.1,1.5,1.4,2.7,2.9,2.7c1.5,0,2.8-1.2,2.9-2.7v-31.1
				c-0.1-1.5-1.3-2.7-2.9-2.7c-1.5,0-2.8,1.2-2.9,2.7V12.4"/>
		</g>
		<g transform="matrix(1 0 0 1 38.91 -11.6)">
			<path vector-effect="non-scaling-stroke" class="st0" d="M48.1,4.5c0.1,1.5,1.4,2.7,2.9,2.7c1.5,0,2.8-1.2,2.9-2.7V-9.8
				c-0.1-1.6-1.3-2.8-2.9-2.8s-2.8,1.2-2.9,2.8V4.5"/>
		</g>
		<g transform="matrix(1 0 0 1 51.71 -8.39)">
			<path vector-effect="non-scaling-stroke" class="st0" d="M51.1,1.3c0.1,1.1,0.8,2.1,1.8,2.5s2.2,0.2,3-0.6
				c0.5-0.5,0.9-1.2,0.9-1.9v-6.4c0-1.6-1.3-2.8-2.9-2.8c-1.6,0-2.8,1.3-2.9,2.8V1.3"/>
		</g>
	</g>
</g>
<g transform="matrix(10 0 0 10 540 540)" class="st1">
	<g class="st2">
		<g transform="matrix(1 0 0 1 -37.14 18.74)">
			<path vector-effect="non-scaling-stroke" class="st3" d="M42.2,15.5V9.3l-0.1,0c-1.4,0.7-2.9,1.1-4.4,1.1
				c-1.6,0.1-3.2-0.3-4.5-1.3c-0.9-0.7-1.6-1.7-1.9-2.8c-0.4-1.2-0.4-2.5-0.1-3.7c0.3-1.2,1-2.4,2-3.2c0.9-0.7,2-1.2,3.1-1.3
				c2-0.2,4.1,0.2,5.9,1.1l0.1,0.1v-6.2l-0.3-0.1c-1.8-0.6-3.7-0.8-5.6-0.7c-1.7,0-3.4,0.4-5,1.2c-1.6,0.7-3,1.8-4.1,3.2
				c-3.4,4.4-3.5,10.5-0.2,15c1.6,2.1,3.9,3.6,6.5,4.2c2.7,0.7,5.6,0.6,8.3-0.3L42.2,15.5"/>
		</g>
		<g transform="matrix(1 0 0 1 12.36 18.74)">
			<path vector-effect="non-scaling-stroke" class="st3" d="M53.7,15.5V9.3l-0.1,0c-1.4,0.7-2.9,1.1-4.4,1.1
				c-1.6,0.1-3.2-0.3-4.5-1.3c-0.9-0.7-1.6-1.7-1.9-2.8c-0.4-1.2-0.4-2.5-0.1-3.7c0.3-1.2,1-2.4,2-3.2c0.9-0.7,2-1.2,3.1-1.3
				c2-0.2,4.1,0.2,5.9,1.1l0.1,0.1v-6.2l-0.3-0.1c-1.8-0.6-3.7-0.8-5.6-0.7c-1.7,0-3.4,0.4-5,1.2c-1.6,0.7-3,1.8-4.1,3.2
				c-3.4,4.4-3.5,10.5-0.2,15c1.6,2.1,3.9,3.6,6.5,4.2c2.7,0.7,5.6,0.6,8.3-0.3L53.7,15.5"/>
		</g>
		<g transform="matrix(1 0 0 1 10.42 18.72)">
			<path vector-effect="non-scaling-stroke" class="st3" d="M16.4,10.4l0,5.3l0.4,0.1c1.2,0.2,2.5,0.4,3.7,0.5
				c1.1,0.1,2.2,0.1,3.3,0.1c1-0.1,2.1-0.3,3.1-0.6c1.2-0.3,2.2-0.9,3.2-1.7c0.8-0.7,1.5-1.6,1.8-2.6c0.7-1.7,0.7-3.6,0-5.3
				c-0.4-0.9-0.9-1.7-1.7-2.3c-0.7-0.6-1.5-1.1-2.4-1.4l-4-1.5c-0.5-0.2-0.9-0.6-1.1-1c-0.2-0.4-0.2-0.8,0-1.2
				c0.1-0.1,0.2-0.2,0.3-0.4C23-2,23.2-2.1,23.4-2.2c0.4-0.2,0.9-0.4,1.4-0.4c0.8-0.1,1.7-0.1,2.5,0c1,0.1,2,0.3,3,0.5l0.2,0v-4.9
				L30.2-7c-1-0.2-2-0.4-3-0.5c-1.3-0.2-2.6-0.2-4,0c-1.7,0.1-3.3,0.8-4.6,1.8C17.8-5,17.1-4.1,16.7-3c-0.6,1.6-0.6,3.4,0,5
				c0.3,0.8,0.8,1.5,1.4,2.1c0.5,0.5,1.1,1,1.8,1.3c0.9,0.5,1.8,0.8,2.8,1.1c0.3,0.1,0.6,0.2,0.9,0.3l0.5,0.2l0.1,0
				c0.5,0.2,0.9,0.4,1.3,0.8C25.8,8,26,8.3,26.1,8.6c0.1,0.3,0.1,0.6,0,0.9c-0.1,0.5-0.5,0.9-0.9,1.1c-0.5,0.2-1,0.4-1.5,0.5
				c-0.8,0.1-1.6,0.2-2.4,0.1c-1-0.1-2.1-0.2-3.1-0.4c-0.5-0.1-1.1-0.2-1.6-0.4L16.4,10.4z M2.7,15.9h5.8V-7.2H2.7V15.9z M70.1-0.4
				c1.7-1.4,4-1.7,6-0.9s3.5,2.6,3.8,4.8c0.3,2.2-0.5,4.3-2.3,5.7c-2.6,2-6.4,1.6-8.5-1C67.2,5.5,67.5,1.7,70.1-0.4 M61.6,4.3
				c0.1,3.7,1.7,7.1,4.6,9.3c2.9,2.3,6.6,3.1,10.2,2.3c4.8-0.9,8.6-4.7,9.5-9.6s-1.4-9.7-5.6-12.3C76.6-8.1,71.9-8.2,68-6.2
				C64.2-4.1,61.7,0,61.6,4.3"/>
		</g>
		<g transform="matrix(1 0 0 1 -51.66 -8.39)">
			<path vector-effect="non-scaling-stroke" class="st3" d="M27.1,1.3c0.1,1.1,0.8,2.1,1.8,2.5s2.2,0.2,3-0.6
				c0.5-0.5,0.9-1.2,0.9-1.9v-6.4c0-1.6-1.3-2.8-2.9-2.8s-2.8,1.3-2.9,2.8V1.3"/>
		</g>
		<g transform="matrix(1 0 0 1 -38.71 -11.6)">
			<path vector-effect="non-scaling-stroke" class="st3" d="M30.1,4.5C30.2,6,31.5,7.2,33,7.2c1.5,0,2.8-1.2,2.9-2.7V-9.8
				c-0.1-1.6-1.3-2.8-2.9-2.8s-2.8,1.2-2.9,2.8V4.5"/>
		</g>
		<g transform="matrix(1 0 0 1 -25.83 -13.67)">
			<path vector-effect="non-scaling-stroke" class="st3" d="M33.1,12.4c0.1,1.5,1.4,2.7,2.9,2.7c1.5,0,2.8-1.2,2.9-2.7v-31.1
				c-0.1-1.5-1.3-2.7-2.9-2.7s-2.8,1.2-2.9,2.7V12.4"/>
		</g>
		<g transform="matrix(1 0 0 1 -12.84 -11.6)">
			<path vector-effect="non-scaling-stroke" class="st3" d="M36.1,4.5C36.2,6,37.5,7.2,39,7.2c1.5,0,2.8-1.2,2.9-2.7V-9.8
				c-0.1-1.6-1.3-2.8-2.9-2.8s-2.8,1.2-2.9,2.8V4.5"/>
		</g>
		<g transform="matrix(1 0 0 1 0.09 -8.39)">
			<path vector-effect="non-scaling-stroke" class="st3" d="M39.1,1.3c0.1,1.1,0.8,2.1,1.8,2.5c1,0.4,2.2,0.2,3-0.6
				c0.5-0.5,0.9-1.2,0.9-1.9v-6.4c0-1.6-1.3-2.8-2.9-2.8c-1.6,0-2.8,1.3-2.9,2.8V1.3"/>
		</g>
		<g transform="matrix(1 0 0 1 13.04 -11.6)">
			<path vector-effect="non-scaling-stroke" class="st3" d="M42.1,4.5C42.2,6,43.5,7.2,45,7.2c1.5,0,2.8-1.2,2.9-2.7V-9.8
				c-0.1-1.6-1.3-2.8-2.9-2.8c-1.6,0-2.8,1.2-2.9,2.8V4.5"/>
		</g>
		<g transform="matrix(1 0 0 1 25.92 -13.67)">
			<path vector-effect="non-scaling-stroke" class="st3" d="M45.1,12.4c0.1,1.5,1.4,2.7,2.9,2.7c1.5,0,2.8-1.2,2.9-2.7v-31.1
				c-0.1-1.5-1.3-2.7-2.9-2.7s-2.8,1.2-2.9,2.7V12.4"/>
		</g>
		<g transform="matrix(1 0 0 1 38.91 -11.6)">
			<path vector-effect="non-scaling-stroke" class="st3" d="M48.1,4.5C48.2,6,49.5,7.2,51,7.2c1.5,0,2.8-1.2,2.9-2.7V-9.8
				c-0.1-1.6-1.3-2.8-2.9-2.8s-2.8,1.2-2.9,2.8V4.5"/>
		</g>
		<g transform="matrix(1 0 0 1 51.71 -8.39)">
			<path vector-effect="non-scaling-stroke" class="st3" d="M51.1,1.3c0.1,1.1,0.8,2.1,1.8,2.5c1,0.4,2.2,0.2,3-0.6
				c0.5-0.5,0.9-1.2,0.9-1.9v-6.4c0-1.6-1.3-2.8-2.9-2.8c-1.6,0-2.8,1.3-2.9,2.8V1.3"/>
		</g>
	</g>
</g>
</svg>
