<?xml version="1.0" encoding="utf-8"?>
<!-- Generator: Adobe Illustrator 26.0.0, SVG Export Plug-In . SVG Version: 6.00 Build 0)  -->
<svg version="1.1" id="Capa_1" xmlns="http://www.w3.org/2000/svg" xmlns:xlink="http://www.w3.org/1999/xlink" x="0px" y="0px"
	 viewBox="0 0 500 500" style="enable-background:new 0 0 500 500;" xml:space="preserve">
<style type="text/css">
	.st0{fill:#FFFFFF;}
</style>
<polyline class="st0" points="303.98,135.34 267.29,103.93 230.03,124.26 217.05,177.22 188.83,164.28 156.66,198.15 158.35,219.09 
	185.44,207.39 197.3,230.18 199.55,260.36 299.04,260.36 322.04,214.17 355.34,221.56 359.29,217.86 332.76,173.52 275.75,185.22 
	265.6,166.13 277.45,140.27 "/>
<polyline class="st0" points="199.22,266.7 199.22,290.52 300.42,290.52 300.42,266.7 "/>
<ellipse class="st0" cx="368.52" cy="233.56" rx="12.55" ry="13.69"/>
<ellipse class="st0" cx="151.02" cy="235.27" rx="12.55" ry="13.69"/>
<ellipse class="st0" cx="320.18" cy="141.08" rx="12.55" ry="13.69"/>
<g>
	<path class="st0" d="M36.32,321.99l60.95-15.3v74.2l-60.95,15.18V321.99z M81.25,345.84l-15.18,3.85v-12.65l17.59-4.46v-14.93
		l-33.61,8.43v59.02l16.02-3.97v-16.74l15.18-3.85L81.25,345.84L81.25,345.84z"/>
	<path class="st0" d="M158.22,380.89l-0.72,0.12l-60.22,15.06v-74.08l0.84-0.24l60.11-15.06L158.22,380.89L158.22,380.89z
		 M145.33,324.04c-2.65-2.89-6.38-4.46-10.72-4.46c-2.05,0-4.34,0.36-6.63,0.96c-7.71,1.93-13.61,6.14-17.7,12.53
		c-3.97,6.38-6.02,14.45-5.9,24.09c0.24,19.99,8.07,28.18,23.13,24.45c7.83-1.93,13.73-6.14,17.83-12.65
		c3.73-6.02,5.78-14.21,5.78-24.09C151.11,335.36,149.19,328.37,145.33,324.04z M127.74,366.32c-0.24,0-0.84,0.24-1.81,0.24
		c-4.34,0-6.63-4.58-6.74-13.61c0-4.82,0.6-8.79,2.17-11.8c1.32-2.89,3.37-4.58,6.14-5.3c2.29-0.6,4.1-0.24,5.42,0.96
		c2.41,1.81,3.49,5.78,3.49,12.41c-0.12,14.93-6.26,16.62-8.43,16.98L127.74,366.32z"/>
	<path class="st0" d="M219.17,380.89l-0.72,0.12l-60.22,15.06v-74.08l0.84-0.24l60.11-15.06L219.17,380.89L219.17,380.89z
		 M206.28,324.04c-2.65-2.89-6.38-4.46-10.72-4.46c-2.05,0-4.34,0.36-6.63,0.96c-7.71,1.93-13.61,6.14-17.7,12.53
		c-3.97,6.38-6.02,14.45-5.9,24.09c0.24,19.99,8.07,28.18,23.13,24.45c7.83-1.93,13.73-6.14,17.83-12.65
		c3.73-6.02,5.78-14.21,5.78-24.09C212.06,335.36,210.14,328.37,206.28,324.04z M188.69,366.32c-0.24,0-0.84,0.24-1.81,0.24
		c-4.34,0-6.63-4.58-6.74-13.61c0-4.82,0.6-8.79,2.17-11.8c1.32-2.89,3.37-4.58,6.14-5.3c2.29-0.6,4.09-0.24,5.42,0.96
		c2.41,1.81,3.49,5.78,3.49,12.41c-0.12,14.93-6.26,16.62-8.43,16.98L188.69,366.32z"/>
	<path class="st0" d="M280.24,380.89l-0.84,0.12l-60.22,15.06v-74.08l0.84-0.24l60.22-15.06V380.89z M266.62,361.62l-17.83,4.46
		v-43.96l-16.14,4.09v58.9l33.97-8.43V361.62z"/>
	<path class="st0" d="M340.46,381.01l-60.22,15.06v-74.08l0.84-0.24l60.22-15.06v74.2L340.46,381.01z M302.64,323.8v59.14
		l16.02-3.97v-59.02L302.64,323.8z"/>
	<path class="st0" d="M341.3,321.99l0.84-0.24l60.22-15.06v74.2l-0.84,0.12l-60.22,15.06V321.99z M388.88,318.5
		c-5.06-0.24-9.88,0.36-14.45,1.81c-8.67,2.77-14.82,7.71-18.07,14.57c-1.32,3.01-2.05,6.02-2.05,9.03c0,4.94,1.81,8.79,5.66,11.08
		c0.96,0.48,2.53,1.32,4.82,2.29c2.29,0.84,3.97,1.69,4.94,2.53c1.45,0.72,2.17,2.05,2.17,3.61c0,1.32-0.48,2.41-1.81,3.61
		c-1.93,1.81-5.78,2.77-9.88,2.17c-2.17-0.36-4.09-0.84-5.3-1.81l-1.08-0.72v17.35h0.12c5.06,0.24,9.75-0.12,13.97-1.21
		c6.87-1.69,12.41-5.3,16.5-10.6c3.49-4.7,5.42-9.51,5.42-14.45c0-3.13-0.84-5.66-2.53-7.71c-1.21-1.45-3.13-2.89-5.66-4.34
		l-6.63-3.25c-1.56-0.72-2.29-1.93-2.29-3.25c0-1.21,0.48-2.29,1.56-3.13c3.01-2.53,7.23-2.89,13.61-1.32l1.08,0.24v-16.5
		L388.88,318.5L388.88,318.5z"/>
	<path class="st0" d="M402.37,321.99l0.84-0.24l60.11-15.06v74.2l-0.72,0.12l-60.22,15.06L402.37,321.99L402.37,321.99z
		 M413.45,341.74l11.08-2.89v44.21l15.9-4.09v-44.08l11.92-3.01v-14.82l-38.91,9.64L413.45,341.74L413.45,341.74z"/>
</g>
</svg>
