<?xml version="1.0" encoding="utf-8"?>
<!-- Generator: Adobe Illustrator 26.0.0, SVG Export Plug-In . SVG Version: 6.00 Build 0)  -->
<svg version="1.1" id="Capa_1" xmlns="http://www.w3.org/2000/svg" xmlns:xlink="http://www.w3.org/1999/xlink" x="0px" y="0px"
	 viewBox="0 0 500 500" style="enable-background:new 0 0 500 500;" xml:space="preserve">
<style type="text/css">
	.st0{fill:#F11010;}
	.st1{fill:#B50101;}
	.st2{display:none;fill:#999999;}
	.st3{display:none;fill:#4D4D4D;}
	.st4{display:none;}
	.st5{display:inline;fill:#FFFFFF;}
</style>
<polyline class="st0" points="80.4,193.7 89,193.7 89,238.2 162.6,238.2 162.6,213.2 171.8,213.2 171.8,247.5 80.4,247.5 "/>
<polygon class="st1" points="126.7,180 70.9,216.4 76.2,223.4 126.7,190.5 175.4,223.4 180.4,215.9 "/>
<g>
	<path d="M49.7,321.6v-65.8h12.6v65.8L49.7,321.6L49.7,321.6z"/>
	<path d="M96.1,270.3c4.3,0,7.5,1.5,9.8,4.6c2.3,3.1,3.4,7.5,3.4,13.4v33.3h-12v-29.9c0-3.5-0.4-6.2-1.1-8c-0.7-1.8-2.1-2.7-4.1-2.7
		c-2.5,0-4.3,1.2-5.3,3.7c-1,2.5-1.5,6.7-1.5,12.7v24.2h-12v-50.4h9.5l1.3,6.4h0.8c0.8-1.6,1.7-2.9,2.7-4c1.1-1.1,2.3-1.9,3.7-2.5
		C92.8,270.6,94.4,270.3,96.1,270.3z"/>
	<path d="M165.5,270.3c4.3,0,7.5,1.5,9.6,4.5c2.1,3,3.2,7.5,3.2,13.7v33.2h-12V292c0-3.7-0.4-6.5-1.2-8.3c-0.8-1.8-2.1-2.7-3.8-2.7
		c-2.4,0-4,1.2-4.9,3.7c-0.9,2.5-1.4,6.3-1.4,11.4v25.5h-12.1v-29.8c0-2.5-0.2-4.5-0.5-6.1c-0.3-1.6-0.9-2.8-1.6-3.6
		c-0.7-0.8-1.6-1.2-2.7-1.2c-1.7,0-3,0.6-4,1.9s-1.6,3.1-2,5.6c-0.4,2.4-0.6,5.5-0.6,9.1v24.1h-12v-50.4h9.5l1.3,6.4h0.8
		c0.7-1.6,1.5-2.9,2.7-4c1.1-1.1,2.4-1.9,4-2.5c1.5-0.6,3.2-0.9,5.1-0.9c2.9,0,5.2,0.7,6.9,2s2.9,3.1,3.6,5.2h0.9
		c1.1-2.3,2.6-4.1,4.4-5.4C160.5,270.9,162.7,270.3,165.5,270.3z"/>
	<path d="M224.9,296.3c0,3.5-0.4,6.8-1.1,10c-0.7,3.1-1.8,5.9-3.3,8.4c-1.5,2.4-3.5,4.3-5.9,5.8c-2.4,1.4-5.4,2.1-8.9,2.1
		c-3.3,0-6.1-0.7-8.5-2.1s-4.4-3.3-5.9-5.7c-1.6-2.4-2.7-5.2-3.5-8.4c-0.8-3.2-1.1-6.5-1.1-10.1c0-5.1,0.7-9.6,2-13.5
		c1.3-3.9,3.4-7,6.3-9.2c2.8-2.2,6.5-3.3,11-3.3c3.9,0,7.2,1,10.1,3c2.9,2,5.1,4.9,6.6,8.8C224.1,286,224.9,290.7,224.9,296.3z
		 M198.7,296.5c0,3.5,0.2,6.4,0.7,8.8c0.5,2.4,1.3,4.2,2.3,5.4s2.4,1.8,4,1.8c1.6,0,3-0.6,4-1.8c1-1.2,1.7-3,2.2-5.4
		c0.5-2.4,0.7-5.4,0.7-9c0-3.5-0.2-6.5-0.7-8.8c-0.5-2.3-1.2-4.1-2.2-5.3c-1-1.2-2.3-1.8-4-1.8c-2.5,0-4.2,1.3-5.4,3.9
		C199.3,287,198.7,291,198.7,296.5z"/>
	<path d="M263.2,321.6l-3.4-15.8h-14.6l-3.4,15.8h-13.5l15.9-65.8h16.3l16.2,65.8H263.2z M257.8,294.8l-3.6-17.4
		c-0.2-1.4-0.5-2.8-0.7-4.2s-0.4-2.7-0.6-4s-0.4-2.5-0.5-3.6c-0.1,1-0.2,2.2-0.4,3.5c-0.2,1.3-0.4,2.6-0.6,4
		c-0.2,1.4-0.5,2.8-0.8,4.2l-3.5,17.6H257.8L257.8,294.8z"/>
	<path d="M308.1,321.6h-29.6v-7.5l15.7-32.8h-14.8v-10.1h28v8.1l-15,32.3h15.7L308.1,321.6L308.1,321.6z"/>
	<path d="M331.8,312.1c0.8,0,1.7-0.1,2.7-0.3c0.9-0.2,1.9-0.6,2.9-1.1v9.6c-1.3,0.8-2.8,1.3-4.3,1.7c-1.6,0.4-3.2,0.6-5,0.6
		c-2.9,0-5.2-0.6-7-1.7s-3.1-2.9-4-5.3c-0.8-2.4-1.3-5.3-1.3-8.9v-25.4h-4.9v-6.4l5.9-3.1l2.8-11h8.2v10.6h9v9.9h-9v25
		c0,2,0.3,3.5,0.9,4.4C329.3,311.6,330.4,312.1,331.8,312.1z"/>
	<path d="M360.6,270.4c3.8,0,7,0.9,9.6,2.8c2.6,1.9,4.6,4.5,6,7.9c1.3,3.4,2,7.4,2,12.1v6.7h-24c0.1,4.4,0.9,7.7,2.4,9.7
		c1.6,2.1,3.9,3.1,7.2,3.1c2.1,0,4.1-0.3,6-0.8s3.9-1.5,6.1-2.9v10c-2,1.2-4.2,2.1-6.4,2.6c-2.3,0.6-4.7,0.8-7.4,0.8
		c-4.6,0-8.4-1-11.3-3.1c-2.9-2.1-5-5.1-6.4-8.9c-1.3-3.9-2-8.4-2-13.7c0-5.7,0.7-10.5,2-14.4c1.4-3.9,3.4-6.9,6.1-8.9
		C353.2,271.4,356.6,270.4,360.6,270.4z M360.9,279.8c-2,0-3.6,0.9-4.7,2.7c-1.2,1.8-1.8,4.7-1.9,8.7h12.8c0-2.4-0.2-4.4-0.7-6.1
		c-0.5-1.7-1.2-3-2.1-3.9C363.3,280.3,362.2,279.8,360.9,279.8z"/>
	<path d="M403.4,322.5c-4.2,0-7.7-0.9-10.5-2.8c-2.8-1.9-4.9-4.7-6.3-8.5c-1.4-3.8-2.1-8.7-2.1-14.5c0-5.1,0.7-9.6,2-13.6
		c1.3-4,3.4-7.1,6.3-9.4c2.8-2.3,6.4-3.4,10.8-3.4c2.5,0,4.7,0.3,6.7,0.8s3.9,1.4,5.6,2.5l-3.3,9.6c-1.4-0.8-2.7-1.5-4.1-1.9
		c-1.3-0.4-2.7-0.6-4-0.6c-1.6,0-3.1,0.6-4.2,1.8s-2.1,3-2.7,5.4c-0.6,2.4-0.9,5.3-0.9,8.7c0,3.4,0.3,6.3,0.9,8.6
		c0.6,2.3,1.5,4,2.7,5.2c1.2,1.2,2.6,1.7,4.4,1.7c1.7,0,3.4-0.3,5.2-0.9c1.7-0.6,3.4-1.5,5.1-2.7v10.3c-1.6,1.3-3.4,2.2-5.4,2.8
		C407.5,322.2,405.4,322.5,403.4,322.5z"/>
	<path d="M440.6,270.3c4.9,0,8.6,1.5,11.2,4.5c2.6,3,3.8,7.5,3.8,13.5v33.3h-8.8l-1.9-6.7h-0.3c-1,1.7-2.1,3.1-3.3,4.3
		c-1.2,1.1-2.5,2-3.9,2.5s-3.2,0.8-5.2,0.8c-2.8,0-5-0.8-6.8-2.3c-1.7-1.5-3-3.4-3.8-5.8c-0.8-2.4-1.2-4.9-1.2-7.6
		c0-5.2,1.5-9.2,4.4-11.9c2.9-2.7,7-4.2,12.4-4.4l6.3-0.3v-2c0-2.8-0.4-4.8-1.3-6.2c-0.9-1.4-2.3-2-4.2-2c-1.4,0-3,0.3-4.7,0.9
		c-1.7,0.6-3.6,1.5-5.6,2.7l-3.3-9c2.3-1.4,4.8-2.4,7.5-3.1C434.6,270.7,437.5,270.3,440.6,270.3z M443.6,298.3l-3.4,0.2
		c-2.5,0.1-4.4,0.8-5.7,2.1c-1.2,1.3-1.9,3.2-1.9,5.7c0,2.3,0.4,3.9,1.1,5c0.8,1.1,1.9,1.7,3.4,1.7c1.9,0,3.4-0.9,4.6-2.7
		c1.2-1.8,1.8-4.3,1.8-7.4L443.6,298.3L443.6,298.3z"/>
</g>
<polyline class="st2" points="80.3,193.7 88.9,193.7 88.9,238.1 162.4,238.1 162.4,213.2 171.6,213.2 171.6,247.4 80.3,247.4 "/>
<polygon class="st3" points="126.5,180 70.8,216.4 76.1,223.4 126.5,190.5 175.2,223.4 180.2,215.9 "/>
<g class="st4">
	<path class="st5" d="M49.6,321.5v-65.7h12.6v65.7L49.6,321.5L49.6,321.5z"/>
	<path class="st5" d="M95.9,270.2c4.3,0,7.5,1.5,9.8,4.6s3.4,7.5,3.4,13.4v33.3h-12v-29.8c0-3.5-0.4-6.2-1.1-8
		c-0.7-1.8-2.1-2.7-4.1-2.7c-2.5,0-4.3,1.2-5.3,3.7c-1,2.5-1.5,6.7-1.5,12.7v24.2h-12v-50.3h9.5l1.3,6.4h0.8c0.7-1.6,1.7-2.9,2.7-4
		s2.3-1.9,3.7-2.5C92.7,270.5,94.2,270.2,95.9,270.2z"/>
	<path class="st5" d="M165.3,270.2c4.3,0,7.5,1.5,9.6,4.5c2.1,3,3.2,7.5,3.2,13.7v33.1h-12v-29.6c0-3.7-0.4-6.5-1.2-8.3
		c-0.8-1.8-2.1-2.7-3.8-2.7c-2.4,0-4,1.2-4.9,3.7c-0.9,2.5-1.4,6.3-1.4,11.4v25.5h-12v-29.7c0-2.5-0.2-4.5-0.5-6.1
		c-0.3-1.6-0.9-2.8-1.6-3.5s-1.6-1.2-2.7-1.2c-1.7,0-3,0.6-4,1.9c-0.9,1.3-1.6,3.1-2,5.6c-0.4,2.4-0.6,5.5-0.6,9.1v24h-12v-50.3h9.5
		l1.3,6.4h0.8c0.7-1.6,1.5-2.9,2.7-4c1.1-1.1,2.4-1.9,4-2.5c1.5-0.6,3.2-0.9,5.1-0.9c2.9,0,5.2,0.7,6.9,2c1.7,1.4,2.9,3.1,3.6,5.1
		h0.9c1.1-2.3,2.6-4.1,4.4-5.3C160.3,270.9,162.5,270.2,165.3,270.2z"/>
	<path class="st5" d="M224.6,296.2c0,3.5-0.4,6.8-1.1,10c-0.7,3.1-1.8,5.9-3.3,8.4c-1.5,2.4-3.5,4.3-5.9,5.8
		c-2.4,1.4-5.4,2.1-8.9,2.1c-3.3,0-6.1-0.7-8.5-2.1c-2.4-1.4-4.4-3.3-5.9-5.7c-1.6-2.4-2.7-5.2-3.5-8.4c-0.8-3.2-1.1-6.5-1.1-10.1
		c0-5.1,0.7-9.5,2-13.5c1.3-3.9,3.4-7,6.2-9.2c2.8-2.2,6.5-3.3,11-3.3c3.9,0,7.2,1,10.1,3s5.1,4.9,6.6,8.8
		C223.9,285.9,224.6,290.6,224.6,296.2z M198.5,296.4c0,3.5,0.2,6.4,0.7,8.8c0.5,2.4,1.3,4.1,2.3,5.3c1,1.2,2.4,1.8,4,1.8
		c1.6,0,3-0.6,4-1.8c1-1.2,1.7-3,2.2-5.4c0.5-2.4,0.7-5.4,0.7-8.9c0-3.5-0.2-6.5-0.7-8.8c-0.5-2.3-1.2-4.1-2.2-5.3
		c-1-1.2-2.3-1.8-4-1.8c-2.5,0-4.2,1.3-5.3,3.9C199,286.9,198.5,290.9,198.5,296.4z"/>
	<path class="st5" d="M262.9,321.5l-3.4-15.8h-14.6l-3.4,15.8h-13.5l15.9-65.7h16.3l16.2,65.7H262.9z M257.5,294.7l-3.5-17.4
		c-0.2-1.4-0.5-2.8-0.7-4.2c-0.2-1.4-0.4-2.7-0.6-4c-0.2-1.3-0.4-2.5-0.5-3.6c-0.1,1-0.2,2.2-0.4,3.5c-0.2,1.3-0.4,2.6-0.6,4
		c-0.2,1.4-0.5,2.8-0.8,4.2l-3.5,17.6L257.5,294.7L257.5,294.7z"/>
	<path class="st5" d="M307.8,321.5h-29.6v-7.5l15.6-32.8h-14.7v-10.1h28v8.1l-15,32.2h15.7L307.8,321.5L307.8,321.5z"/>
	<path class="st5" d="M331.5,311.9c0.8,0,1.7-0.1,2.7-0.3c0.9-0.2,1.9-0.6,2.9-1.1v9.6c-1.3,0.7-2.8,1.3-4.3,1.7
		c-1.6,0.4-3.2,0.6-5,0.6c-2.9,0-5.2-0.6-7-1.7c-1.8-1.2-3.1-2.9-4-5.3c-0.8-2.4-1.3-5.3-1.3-8.9v-25.4h-4.9v-6.4l5.9-3.1l2.8-11
		h8.2v10.6h9v9.9h-9v24.9c0,2,0.3,3.5,0.9,4.4C329,311.5,330,311.9,331.5,311.9z"/>
	<path class="st5" d="M360.2,270.3c3.8,0,7,0.9,9.6,2.8c2.6,1.9,4.6,4.5,6,7.9c1.3,3.4,2,7.4,2,12.1v6.7h-24
		c0.1,4.4,0.9,7.6,2.4,9.7c1.6,2.1,3.9,3.1,7.1,3.1c2.1,0,4.1-0.3,6-0.8s3.9-1.5,6.1-2.9v10c-2,1.2-4.1,2.1-6.4,2.6
		s-4.7,0.8-7.4,0.8c-4.6,0-8.4-1-11.3-3.1c-2.9-2.1-5-5-6.4-8.9c-1.3-3.9-2-8.4-2-13.7c0-5.7,0.7-10.4,2-14.4
		c1.4-3.9,3.4-6.9,6.1-8.9C352.8,271.3,356.2,270.3,360.2,270.3z M360.5,279.7c-2,0-3.5,0.9-4.7,2.7c-1.2,1.8-1.8,4.7-1.9,8.7h12.8
		c0-2.4-0.2-4.4-0.7-6.1c-0.5-1.7-1.2-3-2.1-3.9S361.8,279.7,360.5,279.7z"/>
	<path class="st5" d="M403,322.4c-4.2,0-7.7-0.9-10.5-2.8c-2.8-1.9-4.9-4.7-6.3-8.5c-1.4-3.8-2.1-8.7-2.1-14.5c0-5.1,0.7-9.6,2-13.6
		c1.3-4,3.4-7.1,6.2-9.3c2.8-2.3,6.4-3.4,10.8-3.4c2.5,0,4.7,0.3,6.7,0.8s3.9,1.4,5.6,2.5l-3.3,9.6c-1.4-0.8-2.7-1.5-4.1-1.9
		s-2.7-0.6-4-0.6c-1.6,0-3.1,0.6-4.2,1.8c-1.2,1.2-2.1,3-2.7,5.3c-0.6,2.4-0.9,5.3-0.9,8.7c0,3.4,0.3,6.3,0.9,8.6
		c0.6,2.3,1.5,4,2.7,5.2c1.2,1.2,2.6,1.7,4.4,1.7c1.7,0,3.4-0.3,5.2-0.9c1.7-0.6,3.4-1.5,5.1-2.7v10.2c-1.6,1.3-3.4,2.2-5.4,2.8
		C407,322.1,405,322.4,403,322.4z"/>
	<path class="st5" d="M440.1,270.2c4.9,0,8.6,1.5,11.2,4.5c2.6,3,3.8,7.5,3.8,13.5v33.3h-8.8l-1.9-6.7h-0.3c-1,1.7-2.1,3.1-3.3,4.3
		s-2.5,2-3.9,2.5c-1.5,0.6-3.2,0.8-5.2,0.8c-2.8,0-5-0.7-6.8-2.2c-1.7-1.5-3-3.4-3.8-5.8c-0.8-2.4-1.2-4.9-1.2-7.6
		c0-5.2,1.5-9.2,4.4-11.9c2.9-2.7,7-4.1,12.4-4.4l6.2-0.3v-2c0-2.8-0.4-4.8-1.3-6.2c-0.9-1.4-2.3-2-4.2-2c-1.4,0-3,0.3-4.7,0.9
		c-1.7,0.6-3.6,1.5-5.6,2.7l-3.3-8.9c2.3-1.4,4.8-2.4,7.5-3.1C434.2,270.6,437.1,270.2,440.1,270.2z M443.1,298.1l-3.4,0.2
		c-2.5,0.1-4.4,0.8-5.7,2.1c-1.2,1.3-1.9,3.2-1.9,5.7c0,2.2,0.4,3.9,1.1,5c0.8,1.1,1.9,1.7,3.3,1.7c1.9,0,3.4-0.9,4.6-2.7
		c1.2-1.8,1.8-4.3,1.8-7.4L443.1,298.1L443.1,298.1z"/>
</g>
</svg>
