<?xml version="1.0" encoding="UTF-8"?>
<svg xmlns="http://www.w3.org/2000/svg" xmlns:xlink="http://www.w3.org/1999/xlink" version="1.1" id="Capa_1" x="0px" y="0px" viewBox="0 0 450 125" style="enable-background:new 0 0 450 125;" xml:space="preserve">
<style type="text/css">
	.st0{fill:url(#SVGID_1_);}
	.st1{fill:url(#SVGID_00000145033065821397130490000003460710753509610425_);}
	.st2{fill:url(#SVGID_00000145769224157069322940000006800476305256421310_);}
	.st3{fill:url(#SVGID_00000168812829508380467360000011314368676492964766_);}
	.st4{fill:url(#SVGID_00000098934133812151030680000004619574700838996869_);}
	.st5{fill:url(#SVGID_00000147926812740396829090000012334623163650715291_);}
	.st6{fill:url(#SVGID_00000101061241420942579740000005053772691878151827_);}
	.st7{fill:none;stroke:#97BE0D;stroke-width:5;stroke-miterlimit:10;}
	.st8{fill:url(#SVGID_00000101076691739197042880000000705581304436798879_);}
	.st9{fill:url(#SVGID_00000117660648716560466380000003414700575494574009_);}
	.st10{fill:url(#SVGID_00000158736063611863988120000007468477403931582351_);}
	.st11{fill:url(#SVGID_00000142177528807586007710000011555438225293118598_);}
</style>
<linearGradient id="SVGID_1_" gradientUnits="userSpaceOnUse" x1="132.3397" y1="61.4276" x2="132.3397" y2="100.8723">
	<stop offset="0" style="stop-color:#97BE0D"></stop>
	<stop offset="1" style="stop-color:#42A62A"></stop>
</linearGradient>
<path class="st0" d="M114.9,100.9V62.4h7.4l1,4.9c3.9-3.9,8.3-5.8,13.1-5.8c4.5,0,7.8,1.3,10.1,3.9c2.2,2.6,3.3,6.3,3.3,11.2v24.3  h-9.2V77.6c0-3.1-0.5-5.4-1.5-7c-1-1.5-2.7-2.3-5.3-2.3c-2,0-3.8,0.5-5.4,1.5c-1.6,1-2.8,2.3-3.6,3.8c-0.4,1.8-0.7,4.6-0.7,8.4v18.7  H114.9z"></path>
<linearGradient id="SVGID_00000077302340998031553130000012689963083427558809_" gradientUnits="userSpaceOnUse" x1="178.0012" y1="61.4276" x2="178.0012" y2="101.6079">
	<stop offset="0" style="stop-color:#97BE0D"></stop>
	<stop offset="1" style="stop-color:#42A62A"></stop>
</linearGradient>
<path style="fill:url(#SVGID_00000077302340998031553130000012689963083427558809_);" d="M180.2,101.6c-6.2,0-11-1.8-14.4-5.3  c-3.4-3.6-5.2-8.5-5.2-14.8c0-6.1,1.6-11,4.9-14.6c3.2-3.6,7.7-5.4,13.3-5.5c5.3,0,9.4,1.7,12.3,5c2.9,3.3,4.4,7.7,4.4,13.2  c0,0.4,0,1,0,1.9c0,0.9,0,1.5,0,2h-25.6c0.1,3.6,1.1,6.4,3,8.4c1.9,2,4.5,3,7.8,3c4.2,0,8.2-1.1,12.1-3.3l1.3,6.5  C190.1,100.4,185.5,101.6,180.2,101.6z M170,77.7h16.8c0-3.1-0.7-5.5-2.1-7.2c-1.4-1.7-3.4-2.5-5.9-2.5c-2.4,0-4.3,0.8-6,2.5  C171.1,72.1,170.2,74.5,170,77.7z"></path>
<linearGradient id="SVGID_00000070082813403993148480000017723585863572259984_" gradientUnits="userSpaceOnUse" x1="219.742" y1="61.4276" x2="219.742" y2="101.6079">
	<stop offset="0" style="stop-color:#97BE0D"></stop>
	<stop offset="1" style="stop-color:#42A62A"></stop>
</linearGradient>
<path style="fill:url(#SVGID_00000070082813403993148480000017723585863572259984_);" d="M223.3,101.6c-5.9,0-10.5-1.8-13.7-5.3  c-3.3-3.5-4.9-8.5-4.9-15c0-6.3,1.7-11.2,5.2-14.7c3.4-3.5,8-5.2,13.6-5.2c4.5,0,8.3,1,11.4,2.9l-2.2,6.6c-3.2-1.7-6.1-2.5-8.9-2.5  c-3.1,0-5.5,1.1-7.3,3.3c-1.8,2.2-2.7,5.5-2.7,9.7c0,4.3,0.9,7.6,2.6,9.8c1.8,2.2,4.3,3.4,7.5,3.4c3.4,0,6.6-1,9.7-3l0.9,7  c-1.6,1.1-3.3,1.8-5,2.3C227.7,101.4,225.7,101.6,223.3,101.6z"></path>
<linearGradient id="SVGID_00000174578524847665838440000008170189432554316191_" gradientUnits="userSpaceOnUse" x1="256.929" y1="51.8992" x2="256.929" y2="101.3978">
	<stop offset="0" style="stop-color:#97BE0D"></stop>
	<stop offset="1" style="stop-color:#42A62A"></stop>
</linearGradient>
<path style="fill:url(#SVGID_00000174578524847665838440000008170189432554316191_);" d="M263.6,101.4c-2.6,0-4.8-0.3-6.5-0.9  c-1.7-0.6-3.1-1.6-4.1-2.9s-1.7-2.9-2.1-4.7c-0.4-1.8-0.6-4-0.6-6.7V67.9H244l0.4-5l6.6-0.6l2.9-10.4l5.6,0v10.5h9.6v5.6h-9.6v18.4  c0,2.9,0.4,5,1.3,6.2c0.8,1.2,2.4,1.9,4.7,1.9c1.3,0,2.8-0.1,4.3-0.4l0.2,6.6c0,0-0.3,0.1-0.9,0.2c-0.5,0.1-1,0.2-1.5,0.3  c-0.5,0.1-1.1,0.2-1.8,0.2C264.9,101.4,264.2,101.4,263.6,101.4z"></path>
<linearGradient id="SVGID_00000085240569348504866780000001724798033333739189_" gradientUnits="userSpaceOnUse" x1="296.8381" y1="61.4276" x2="296.8381" y2="101.6079">
	<stop offset="0" style="stop-color:#97BE0D"></stop>
	<stop offset="1" style="stop-color:#42A62A"></stop>
</linearGradient>
<path style="fill:url(#SVGID_00000085240569348504866780000001724798033333739189_);" d="M292.5,101.6c-3.6,0-6.5-1-8.7-3  c-2.2-2-3.3-4.8-3.3-8.5c0-4,1.3-7,3.9-8.9c2.6-1.9,6.6-3.1,11.8-3.7c0.7-0.1,1.5-0.2,2.3-0.3c0.8-0.1,1.8-0.2,2.8-0.3  c1.1-0.1,1.9-0.2,2.5-0.2v-2c0-2.3-0.5-4-1.6-5.1c-1.1-1.1-2.7-1.6-4.9-1.6c-3.1,0-7,0.9-11.6,2.6c0-0.1-0.4-1.1-1.2-3.2  c-0.7-2.1-1.1-3.1-1.2-3.2c4.5-1.9,9.4-2.9,14.7-2.9c5.2,0,8.9,1.1,11.3,3.4c2.4,2.3,3.5,5.9,3.5,10.9v25.1h-6.8  c0-0.1-0.3-0.9-0.8-2.3c-0.5-1.5-0.7-2.3-0.7-2.3c-1.9,1.9-3.8,3.2-5.6,4.1S295.1,101.6,292.5,101.6z M295,95.1c2.1,0,4-0.5,5.5-1.5  s2.7-2.2,3.4-3.7v-7.4c-0.1,0-0.7,0-1.8,0.1c-1.2,0.1-1.8,0.1-1.9,0.1c-3.7,0.3-6.4,1-8.2,2.1c-1.7,1.1-2.6,2.8-2.6,5.2  c0,1.6,0.5,2.9,1.4,3.8S293.2,95.1,295,95.1z"></path>
<linearGradient id="SVGID_00000094579935998545468110000012998135852066963598_" gradientUnits="userSpaceOnUse" x1="364.0121" y1="10.197" x2="364.0121" y2="101.893">
	<stop offset="0" style="stop-color:#009EE0"></stop>
	<stop offset="1" style="stop-color:#00519E"></stop>
</linearGradient>
<path style="fill:url(#SVGID_00000094579935998545468110000012998135852066963598_);" d="M332.8,101.9c-5.4,0-8.1-2.8-8.1-8.4V18.6  c0-5.6,2.7-8.4,8.1-8.4c5.4,0,8.1,2.8,8.1,8.4v30h46.1v-30c0-5.6,2.7-8.4,8.1-8.4c5.4,0,8.1,2.8,8.1,8.4v74.9c0,5.6-2.7,8.4-8.1,8.4  c-5.4,0-8.1-2.8-8.1-8.4V62.2h-46.1v31.3C340.9,99.1,338.2,101.9,332.8,101.9z"></path>
<linearGradient id="SVGID_00000124861777881793563710000011578024662964434089_" gradientUnits="userSpaceOnUse" x1="428.0356" y1="74.965" x2="428.0356" y2="115.197">
	<stop offset="0" style="stop-color:#009EE0"></stop>
	<stop offset="1" style="stop-color:#00519E"></stop>
</linearGradient>
<path style="fill:url(#SVGID_00000124861777881793563710000011578024662964434089_);" d="M418.3,115.2c-1.2,0-2.1-0.3-2.6-0.8  c-0.5-0.5-0.8-1.3-0.8-2.4c0-0.6,0.2-1.3,0.5-1.9c0.3-0.6,0.8-1.2,1.5-1.9l11.3-12c1.7-1.8,3-3.4,3.7-4.9c0.7-1.5,1.1-3,1.1-4.5  c0-3.8-2.3-5.7-6.9-5.7c-1.3,0-2.5,0.2-3.8,0.5c-1.3,0.4-2.6,1-3.9,1.8c-0.8,0.6-1.6,0.7-2.3,0.5c-0.7-0.2-1.3-0.7-1.6-1.4  c-0.4-0.7-0.5-1.4-0.4-2.2c0.1-0.8,0.6-1.5,1.4-2c1.6-1.1,3.4-1.9,5.4-2.5c2-0.6,4-0.8,6-0.8c4.2,0,7.5,1,9.8,2.9  c2.3,1.9,3.4,4.7,3.4,8.2c0,2.4-0.6,4.7-1.7,6.9c-1.1,2.2-2.9,4.6-5.4,7.1l-8.7,9.1H439c2.1,0,3.1,1,3.1,2.9c0,2-1,3-3.1,3H418.3z"></path>
<line class="st7" x1="48.4" y1="91.4" x2="17.5" y2="69.5"></line>
<line class="st7" x1="17.5" y1="69.5" x2="47.4" y2="41.6"></line>
<radialGradient id="SVGID_00000095304891087065024610000011197593495514139815_" cx="47.1377" cy="42.0121" r="10" gradientTransform="matrix(0.9957 0 0 0.9964 0.9643 0.2205)" gradientUnits="userSpaceOnUse">
	<stop offset="0" style="stop-color:#97BE0D"></stop>
	<stop offset="0.4169" style="stop-color:#95BD0E"></stop>
	<stop offset="0.5941" style="stop-color:#8EBB10"></stop>
	<stop offset="0.7258" style="stop-color:#81B814"></stop>
	<stop offset="0.8349" style="stop-color:#70B31A"></stop>
	<stop offset="0.9291" style="stop-color:#59AC22"></stop>
	<stop offset="1" style="stop-color:#42A62A"></stop>
</radialGradient>
<ellipse style="fill:url(#SVGID_00000095304891087065024610000011197593495514139815_);" cx="47.9" cy="42.1" rx="10" ry="10"></ellipse>
<radialGradient id="SVGID_00000044870268258175854300000013294179534844254093_" cx="16.1377" cy="70.0121" r="10" gradientTransform="matrix(0.9957 0 0 0.9964 0.9643 0.2205)" gradientUnits="userSpaceOnUse">
	<stop offset="0" style="stop-color:#97BE0D"></stop>
	<stop offset="0.4169" style="stop-color:#95BD0E"></stop>
	<stop offset="0.5941" style="stop-color:#8EBB10"></stop>
	<stop offset="0.7258" style="stop-color:#81B814"></stop>
	<stop offset="0.8349" style="stop-color:#70B31A"></stop>
	<stop offset="0.9291" style="stop-color:#59AC22"></stop>
	<stop offset="1" style="stop-color:#42A62A"></stop>
</radialGradient>
<ellipse style="fill:url(#SVGID_00000044870268258175854300000013294179534844254093_);" cx="17" cy="70" rx="10" ry="10"></ellipse>
<radialGradient id="SVGID_00000150789656382678458630000001903367733094730394_" cx="47.1377" cy="92.0121" r="10" gradientTransform="matrix(0.9957 0 0 0.9964 0.9643 0.2205)" gradientUnits="userSpaceOnUse">
	<stop offset="0" style="stop-color:#97BE0D"></stop>
	<stop offset="0.4169" style="stop-color:#95BD0E"></stop>
	<stop offset="0.5941" style="stop-color:#8EBB10"></stop>
	<stop offset="0.7258" style="stop-color:#81B814"></stop>
	<stop offset="0.8349" style="stop-color:#70B31A"></stop>
	<stop offset="0.9291" style="stop-color:#59AC22"></stop>
	<stop offset="1" style="stop-color:#42A62A"></stop>
</radialGradient>
<ellipse style="fill:url(#SVGID_00000150789656382678458630000001903367733094730394_);" cx="47.9" cy="91.9" rx="10" ry="10"></ellipse>
<linearGradient id="SVGID_00000060002170953475647240000009932019739578119069_" gradientUnits="userSpaceOnUse" x1="85.7077" y1="62.0114" x2="85.7077" y2="101.8687">
	<stop offset="0" style="stop-color:#97BE0D"></stop>
	<stop offset="1" style="stop-color:#42A62A"></stop>
</linearGradient>
<path style="fill:url(#SVGID_00000060002170953475647240000009932019739578119069_);" d="M85.5,101.9c-5.6,0-10.1-1.8-13.3-5.5  c-3.2-3.7-4.9-8.5-4.9-14.5c0-6.2,1.6-11,4.9-14.6C75.4,63.8,80,62,85.9,62c5.7,0,10.2,1.8,13.4,5.4c3.2,3.6,4.8,8.5,4.8,14.5  c0,6.1-1.6,10.9-4.9,14.5C96,100.1,91.4,101.9,85.5,101.9z M85.7,95c3.1,0,5.4-1.1,6.9-3.4c1.6-2.2,2.3-5.5,2.3-9.7  c0-4.2-0.8-7.5-2.3-9.7c-1.6-2.2-3.9-3.3-7-3.3c-3.1,0-5.4,1.1-7,3.4c-1.6,2.2-2.3,5.5-2.3,9.7c0,4.2,0.8,7.4,2.4,9.6  C80.3,93.8,82.6,95,85.7,95z"></path>
</svg>
