<?xml version="1.0" encoding="utf-8"?>
<!-- Generator: Adobe Illustrator 26.0.0, SVG Export Plug-In . SVG Version: 6.00 Build 0)  -->
<svg version="1.1" id="Capa_1" xmlns="http://www.w3.org/2000/svg" xmlns:xlink="http://www.w3.org/1999/xlink" x="0px" y="0px"
	 viewBox="0 0 720 216" style="enable-background:new 0 0 720 216;" xml:space="preserve">
<style type="text/css">
	.st0{fill:#662482;}
	.st1{fill:none;stroke:#662482;stroke-width:5;stroke-miterlimit:10;}
	.st2{fill:#F29100;}
	.st3{fill:none;stroke:#F29100;stroke-width:5;stroke-miterlimit:10;}
	.st4{fill:#1D1D1B;}
	.st5{fill:none;stroke:#1D1D1B;stroke-width:5;stroke-miterlimit:10;}
	.st6{fill:#ECECEC;}
	.st7{fill:none;stroke:#ECECEC;stroke-width:5;stroke-miterlimit:10;}
</style>
<path class="st2" d="M86.45,124.21h3.45c2.97,0,5.38-2.36,5.38-5.28V96.65c0-2.92-2.41-5.28-5.38-5.28h-3.45
	c-2.97,0-5.38-2.36-5.38-5.28v0c0-2.92,2.41-5.28,5.38-5.28h17.67c2.97,0,5.38,2.36,5.38,5.28v9.47h0.89
	c2.11-7.64,7-14.75,18.43-14.75h0.84c2.97,0,5.38,2.36,5.38,5.28v1.99c0,2.92-2.41,5.28-5.38,5.28h-6.39
	c-9,0-13.77,5.75-13.77,12.66v12.92c0,2.92,2.41,5.28,5.38,5.28H124c2.97,0,5.38,2.36,5.38,5.28v0c0,2.92-2.41,5.28-5.38,5.28H86.45
	c-2.97,0-5.38-2.36-5.38-5.28v0C81.07,126.58,83.48,124.21,86.45,124.21z"/>
<path class="st2" d="M329.61,134.79c-10.84,0-15.93-5.98-15.93-14.44V97.2c0-2.88-2.47-5.21-5.51-5.21h-5.57
	c-3.04,0-5.51-2.33-5.51-5.21v0c0-2.88,2.47-5.21,5.51-5.21h5.77c4.53,0,6.3-1.44,6.3-5.88v-7.68c0-2.88,2.47-5.21,5.51-5.21h2.14
	c3.04,0,5.51,2.33,5.51,5.21v8.35c0,2.88,2.47,5.21,5.51,5.21h12.21c3.04,0,5.51,2.33,5.51,5.21v0c0,2.88-2.47,5.21-5.51,5.21
	h-12.21c-3.04,0-5.51,2.33-5.51,5.21v21.97c0,2.88,2.47,5.21,5.51,5.21h12.21c3.04,0,5.51,2.33,5.51,5.21l0,0
	c0,2.88-2.47,5.21-5.51,5.21H329.61z"/>
<path class="st2" d="M369.35,102.96c1.93-13.79,11.99-22.16,26.91-22.16c16.44,0,26.81,10.33,26.81,25.97v2.81
	c0,0.77-0.69,1.4-1.54,1.4h-38.39v1.3c0,7.42,5.41,12.54,14.67,12.54c6.28,0,11.03-2.29,14.41-5.91c0.58-0.63,1.63-0.67,2.27-0.09
	l5.89,5.35c0.56,0.51,0.61,1.31,0.12,1.87c-2.78,3.22-6.97,6.03-12.66,7.59C386.73,139.44,366.56,122.83,369.35,102.96z
	 M383.13,102.67v0.7h25.81v-0.9c0-7.42-4.85-12.24-12.58-12.24C388.43,90.23,383.13,95.25,383.13,102.67z"/>
<path class="st2" d="M479.84,83.91 M475.73,82.15c-2.78-0.87-6.06-1.35-9.65-1.35c-13.53,0-22.41,6.62-22.41,17.71
	c0,7.3,3.82,12.65,10.12,15.47v0.49c-5.68,1.27-9.6,3.41-9.6,8.37c0,4.09,2.58,6.33,6.71,7.59v0.78c-6.2,1.46-9.81,4.18-9.81,9.73
	c0,7.2,5.99,11.87,25.3,11.87c19.52,0,28.71-4.87,28.71-15.38c0-8.37-5.89-14.21-20.65-14.21h-12.08c-4.44,0-8.05-0.29-8.05-3.41
	c0-1.2,0.57-2.14,1.39-2.86c1.18-1.04,2.84-1.44,4.43-1.17c1.89,0.32,3.89,0.43,5.95,0.43c13.53,0,22.51-6.52,22.51-17.71
	c0-6.46-2.94-11.29-8.01-14.22c-0.25-0.11-0.49-0.24-0.71-0.38 M456.37,97.25c0-4.87,3.1-8.27,9.71-8.27c6.71,0,9.81,3.41,9.81,8.27
	v2.53c0,4.87-3.1,8.27-9.81,8.27c-6.61,0-9.71-3.41-9.71-8.27V97.25z M471.03,144.45h-8.57c-7.33,0-10.22-2.63-10.22-6.13
	c0-0.02,0-0.04,0-0.06c0.03-2.69,2.49-4.8,5.34-4.8h16.14c6.82,0,8.98,1.85,8.98,4.87C482.7,142.3,478.78,144.45,471.03,144.45z"/>
<path class="st2" d="M559.14,133.6c-6.58,0-10.29-3.4-10.93-8.9h-0.53c-2.02,6.4-8.06,10.1-16.55,10.1
	c-10.93,0-18.03-5.8-18.03-15.5c0-10.4,8.17-15.6,24.29-15.6h6.42c1.79,0,3.24-1.37,3.24-3.05v-0.35c0-6.5-3.29-9.9-10.82-9.9
	c-5.53,0-9.15,1.8-11.89,4.57c-1.16,1.18-3.12,1.25-4.42,0.21l-3-2.4c-1.33-1.06-1.56-2.95-0.45-4.21
	c3.96-4.5,11.01-7.77,21.14-7.77c14.32,0,23.02,6.5,23.02,18.9v21.25c0,1.68,1.45,3.05,3.24,3.05l0,0c1.79,0,3.24,1.37,3.24,3.05
	v3.5c0,1.68-1.45,3.05-3.24,3.05H559.14z M547.04,118v-3.85c0-1.68-1.45-3.05-3.24-3.05h-6.1c-7.43,0-11.14,2.3-11.14,6.6v2
	c0,4.1,3.5,6.3,9.12,6.3C542.16,126,547.04,122.9,547.04,118z"/>
<path class="st3" d="M595.01,89.84c-32.7-32.7-85.72-32.7-118.41,0"/>
<ellipse class="st2" cx="180.07" cy="107.8" rx="26.99" ry="27"/>
<path class="st0" d="M207.06,107.64c-0.03-5.12-6.84-6.83-9.47-2.44c-2.39,3.97-5.34,7.6-8.35,10.63
	c-4.06,4.09-8.98,8.58-14.05,11.36l-0.09,0.05c-3.34,1.82-2.39,6.85,1.37,7.34c1.14,0.15,2.31,0.23,3.5,0.23
	c14.96,0,27.08-12.09,27.08-27C207.07,107.75,207.07,107.69,207.06,107.64z"/>
<path class="st2" d="M230.47,124.22h3.45c2.97,0,5.38-2.37,5.38-5.28V96.65c0-2.92-2.41-5.28-5.38-5.28h-3.45
	c-2.97,0-5.38-2.37-5.38-5.28v0c0-2.92,2.41-5.28,5.38-5.28h17.67c2.97,0,5.38,2.37,5.38,5.28v9.47h0.89
	c2.11-7.64,7-14.75,18.43-14.75h0.84c2.97,0,5.38,2.37,5.38,5.28v1.99c0,2.92-2.41,5.28-5.38,5.28h-6.39
	c-9,0-13.77,5.75-13.77,12.66v12.92c0,2.92,2.41,5.28,5.38,5.28h9.12c2.97,0,5.38,2.37,5.38,5.28l0,0c0,2.92-2.41,5.28-5.38,5.28
	h-37.55c-2.97,0-5.38-2.37-5.38-5.28l0,0C225.09,126.59,227.5,124.22,230.47,124.22z"/>
<path class="st2" d="M623.83,83.91 M619.73,82.15c-2.78-0.87-6.06-1.35-9.65-1.35c-13.53,0-22.41,6.62-22.41,17.71
	c0,7.3,3.82,12.65,10.12,15.47v0.49c-5.68,1.26-9.6,3.41-9.6,8.37c0,4.09,2.58,6.32,6.71,7.59v0.78c-6.2,1.46-9.81,4.18-9.81,9.73
	c0,7.2,5.99,11.87,25.3,11.87c19.52,0,28.71-4.86,28.71-15.37c0-8.37-5.89-14.2-20.65-14.2h-12.08c-4.44,0-8.05-0.29-8.05-3.41
	c0-1.2,0.57-2.14,1.39-2.86c1.18-1.04,2.84-1.44,4.43-1.17c1.89,0.32,3.89,0.43,5.95,0.43c13.53,0,22.51-6.52,22.51-17.71
	c0-6.46-2.94-11.29-8.01-14.21c-0.25-0.11-0.49-0.24-0.71-0.38 M600.37,97.25c0-4.86,3.1-8.27,9.71-8.27c6.71,0,9.81,3.41,9.81,8.27
	v2.53c0,4.86-3.1,8.27-9.81,8.27c-6.61,0-9.71-3.41-9.71-8.27V97.25z M615.03,144.44h-8.57c-7.33,0-10.22-2.63-10.22-6.13
	c0-0.02,0-0.04,0-0.06c0.03-2.69,2.49-4.8,5.34-4.8h16.14c6.81,0,8.98,1.85,8.98,4.86C626.7,142.3,622.77,144.44,615.03,144.44z"/>
</svg>
