<?xml version="1.0" encoding="utf-8"?>
<!-- Generator: Adobe Illustrator 26.0.0, SVG Export Plug-In . SVG Version: 6.00 Build 0)  -->
<svg version="1.1" id="Capa_1" xmlns="http://www.w3.org/2000/svg" xmlns:xlink="http://www.w3.org/1999/xlink" x="0px" y="0px"
	 viewBox="0 0 1920 1080" style="enable-background:new 0 0 1920 1080;" xml:space="preserve">
<style type="text/css">
	.st0{display:none;fill-rule:evenodd;clip-rule:evenodd;fill:url(#SVGID_1_);}
	.st1{display:none;fill-rule:evenodd;clip-rule:evenodd;fill:#1D2939;}
	.st2{display:none;fill:#1D2939;}
	.st3{fill:none;}
	.st4{fill-rule:evenodd;clip-rule:evenodd;fill:url(#SVGID_00000157297012922440889720000017349429872049812871_);}
	.st5{fill-rule:evenodd;clip-rule:evenodd;fill:#FFFFFF;}
	.st6{fill:#FFFFFF;}
</style>
<linearGradient id="SVGID_1_" gradientUnits="userSpaceOnUse" x1="106.4817" y1="384.4387" x2="386.9351" y2="676.8318" gradientTransform="matrix(1 0 0 -1 0 1082)">
	<stop  offset="0" style="stop-color:#7A5AF8"/>
	<stop  offset="1" style="stop-color:#F63D68"/>
</linearGradient>
<path class="st0" d="M252.3,417.7c-70.6,0-127.9,57.2-127.9,127.9c0,53,32.2,98.4,78.1,117.8c6.8,2.9,10,10.7,7.1,17.5
	c-2.9,6.8-10.7,10-17.5,7.1c-55.5-23.5-94.5-78.4-94.5-142.5c0-85.4,69.2-154.6,154.6-154.6s154.6,69.2,154.6,154.6
	c0,64.1-39,119.1-94.5,142.5c-6.8,2.9-14.7-0.3-17.5-7.1c-2.9-6.8,0.3-14.7,7.1-17.5c45.9-19.4,78.1-64.9,78.1-117.8
	C380.2,474.9,322.9,417.7,252.3,417.7z"/>
<path class="st1" d="M168.3,494.1c6.7-3.1,14.7-0.1,17.7,6.6l27,59.5l27-59.5c2.2-4.8,6.9-7.8,12.2-7.8c5.3,0,10,3.1,12.2,7.8
	l27,59.5l27-59.5c3.1-6.7,11-9.7,17.7-6.6c6.7,3.1,9.7,11,6.6,17.7l-39.2,86.3c-2.2,4.8-6.9,7.8-12.2,7.8c-5.3,0-10-3.1-12.2-7.8
	l-27-59.5l-27,59.5c-2.2,4.8-6.9,7.8-12.2,7.8c-5.3,0-10-3.1-12.2-7.8l-39.2-86.3C158.6,505.1,161.6,497.2,168.3,494.1z"/>
<path class="st2" d="M544.1,618.8c-18.6,0-33.3-5.2-44.2-15.5c-10.9-10.5-16.4-25.6-16.4-45.3v-35.4c0-19.7,5.5-34.7,16.4-45.1
	c10.9-10.5,25.7-15.8,44.2-15.8c18.6,0,33.3,5.3,44.2,15.8c11.1,10.4,16.6,25.4,16.6,45.1V558c0,19.7-5.5,34.8-16.6,45.3
	C577.4,613.6,562.6,618.8,544.1,618.8z M544.1,597.9c11.9,0,21.1-3.5,27.6-10.4c6.5-7.1,9.7-16.6,9.7-28.7v-37.1
	c0-12.1-3.2-21.6-9.7-28.5c-6.5-7-15.7-10.6-27.6-10.6c-11.7,0-20.8,3.5-27.4,10.6c-6.6,6.9-9.9,16.4-9.9,28.5v37.1
	c0,12.1,3.3,21.7,9.9,28.7C523.3,594.4,532.4,597.9,544.1,597.9z"/>
<path class="st2" d="M620.2,659V509.4H642v15.3h3.5c2.7-4.7,6.8-9,12.3-12.7c5.6-3.7,13.6-5.6,24-5.6c8.9,0,17,2.2,24.4,6.5
	c7.5,4.3,13.5,10.6,17.9,18.8c4.6,8.1,6.9,17.8,6.9,29.3v3.2c0,11.5-2.2,21.4-6.7,29.6c-4.5,8.1-10.4,14.2-17.9,18.6
	c-7.5,4.3-15.7,6.5-24.6,6.5c-6.9,0-12.7-0.9-17.5-2.6c-4.7-1.7-8.6-3.9-11.4-6.5c-2.9-2.7-5.2-5.5-6.9-8.4h-3.5V659H620.2z
	 M675.3,599.4c9.8,0,17.8-3.1,24-9.3c6.2-6.2,9.3-15,9.3-26.5v-1.9c0-11.4-3.2-20.1-9.5-26.3c-6.2-6.2-14.1-9.3-23.7-9.3
	c-9.5,0-17.4,3.1-23.7,9.3c-6.2,6.2-9.3,15-9.3,26.3v1.9c0,11.5,3.1,20.4,9.3,26.5C657.8,596.3,665.8,599.4,675.3,599.4z"/>
<path class="st2" d="M794.3,618.8c-10.8,0-20.2-2.2-28.3-6.7c-8.1-4.6-14.4-11-19-19.2c-4.5-8.3-6.7-18-6.7-28.9v-2.6
	c0-11.1,2.2-20.7,6.7-28.9c4.5-8.3,10.6-14.7,18.6-19.2c8.1-4.6,17.3-6.9,27.8-6.9c10.2,0,19.1,2.3,26.8,6.9
	c7.8,4.5,13.8,10.7,18.1,18.8c4.3,8.1,6.5,17.5,6.5,28.3v8.4H763c0.3,9.4,3.4,16.8,9.3,22.4c6,5.5,13.5,8.2,22.4,8.2
	c8.3,0,14.6-1.9,18.8-5.6c4.3-3.7,7.6-8.1,9.9-12.9l18.3,9.5c-2,4-5,8.3-8.8,12.7c-3.7,4.5-8.7,8.2-14.9,11.2
	C811.8,617.3,803.9,618.8,794.3,618.8z M763.2,551.7h58.9c-0.6-8.1-3.5-14.3-8.6-18.8c-5.2-4.6-11.9-6.9-20.3-6.9
	c-8.3,0-15.2,2.3-20.5,6.9C767.5,537.4,764.4,543.7,763.2,551.7z"/>
<path class="st2" d="M858.6,615.8V509.4h21.8v16h3.5c2-4.3,5.6-8.3,10.8-12.1c5.2-3.7,12.9-5.6,23.1-5.6c8.1,0,15.2,1.8,21.4,5.4
	c6.3,3.6,11.3,8.7,14.9,15.3c3.6,6.5,5.4,14.3,5.4,23.5v63.9h-22.2v-62.1c0-9.2-2.3-16-6.9-20.3c-4.6-4.5-10.9-6.7-19-6.7
	c-9.2,0-16.6,3-22.2,9.1c-5.5,6-8.2,14.8-8.2,26.3v53.7H858.6z"/>
<path class="st2" d="M987,615.8l-22.2-151.1h23.3l18.1,135.3h3.5l23.3-135.3h40.8l23.3,135.3h3.5l17.9-135.3h23.3l-22.2,151.1h-40.8
	L1055,478.6h-3.5L1028,615.8H987z"/>
<path class="st2" d="M1199.2,618.8c-10.8,0-20.2-2.2-28.3-6.7c-8.1-4.6-14.4-11-19-19.2c-4.5-8.3-6.7-18-6.7-28.9v-2.6
	c0-11.1,2.2-20.7,6.7-28.9c4.5-8.3,10.6-14.7,18.6-19.2c8.1-4.6,17.3-6.9,27.8-6.9c10.2,0,19.1,2.3,26.8,6.9
	c7.8,4.5,13.8,10.7,18.1,18.8c4.3,8.1,6.5,17.5,6.5,28.3v8.4h-81.8c0.3,9.4,3.4,16.8,9.3,22.4c6,5.5,13.5,8.2,22.4,8.2
	c8.3,0,14.6-1.9,18.8-5.6c4.3-3.7,7.6-8.1,9.9-12.9l18.3,9.5c-2,4-5,8.3-8.8,12.7c-3.7,4.5-8.7,8.2-14.9,11.2
	C1216.7,617.3,1208.8,618.8,1199.2,618.8z M1168.1,551.7h58.9c-0.6-8.1-3.5-14.3-8.6-18.8c-5.2-4.6-11.9-6.9-20.3-6.9
	c-8.3,0-15.2,2.3-20.5,6.9C1172.4,537.4,1169.2,543.7,1168.1,551.7z"/>
<path class="st2" d="M1325,618.8c-10.4,0-18.3-1.9-24-5.6c-5.5-3.7-9.6-7.9-12.3-12.5h-3.5v15.1h-21.8V464.7h22.2v59.1h3.5
	c1.7-2.9,4-5.6,6.9-8.2c2.9-2.7,6.7-5,11.4-6.7c4.7-1.7,10.6-2.6,17.5-2.6c8.9,0,17.1,2.2,24.6,6.5c7.5,4.3,13.5,10.6,17.9,18.8
	c4.5,8.2,6.7,18,6.7,29.3v3.2c0,11.5-2.3,21.4-6.9,29.6c-4.5,8.1-10.4,14.2-17.9,18.6C1342,616.7,1333.9,618.8,1325,618.8z
	 M1318.5,599.4c9.6,0,17.6-3.1,23.7-9.3c6.3-6.2,9.5-15,9.5-26.5v-1.9c0-11.4-3.1-20.1-9.3-26.3c-6.2-6.2-14.2-9.3-24-9.3
	c-9.5,0-17.4,3.1-23.7,9.3c-6.2,6.2-9.3,15-9.3,26.3v1.9c0,11.5,3.1,20.4,9.3,26.5C1301.1,596.3,1309,599.4,1318.5,599.4z"/>
<path class="st2" d="M1388.8,615.8V509.4h22.2v106.4H1388.8z M1400,495c-4.3,0-8-1.4-11-4.1c-2.9-2.9-4.3-6.5-4.3-11
	c0-4.5,1.4-8.1,4.3-10.8c3-2.9,6.7-4.3,11-4.3c4.5,0,8.1,1.4,11,4.3c2.9,2.7,4.3,6.3,4.3,10.8c0,4.5-1.4,8.1-4.3,11
	C1408.1,493.6,1404.4,495,1400,495z"/>
<path class="st2" d="M1431,615.8V509.4h21.8v16h3.5c2-4.3,5.6-8.3,10.8-12.1c5.2-3.7,12.9-5.6,23.1-5.6c8.1,0,15.2,1.8,21.4,5.4
	c6.3,3.6,11.3,8.7,14.9,15.3c3.6,6.5,5.4,14.3,5.4,23.5v63.9h-22.2v-62.1c0-9.2-2.3-16-6.9-20.3c-4.6-4.5-10.9-6.7-19-6.7
	c-9.2,0-16.6,3-22.2,9.1c-5.5,6-8.2,14.8-8.2,26.3v53.7H1431z"/>
<path class="st2" d="M1583.9,618.8c-7.6,0-14.5-1.3-20.5-3.9c-5.9-2.6-10.6-6.4-14.2-11.4c-3.5-5-5.2-11.1-5.2-18.3
	c0-7.3,1.7-13.4,5.2-18.1c3.6-4.9,8.4-8.6,14.5-11c6.2-2.4,13.2-3.7,20.9-3.7h32.4v-6.9c0-6.2-1.9-11.1-5.6-14.9
	c-3.7-3.7-9.5-5.6-17.3-5.6c-7.6,0-13.5,1.8-17.5,5.4c-4,3.6-6.7,8.3-8,14l-20.7-6.7c1.7-5.8,4.5-10.9,8.2-15.5
	c3.9-4.7,9-8.6,15.3-11.4c6.3-2.9,14-4.3,22.9-4.3c13.8,0,24.7,3.5,32.6,10.6c7.9,7,11.9,17,11.9,30v43.8c0,4.3,2,6.5,6,6.5h9.1
	v18.6h-16.6c-5,0-9.1-1.3-12.3-3.9c-3.2-2.6-4.7-6.1-4.7-10.6v-0.6h-3.2c-1.2,2.2-2.9,4.7-5.2,7.6c-2.3,2.9-5.7,5.4-10.1,7.6
	C1597.1,617.8,1591.2,618.8,1583.9,618.8z M1587.1,600.5c8.9,0,16.1-2.5,21.6-7.6c5.5-5.2,8.2-12.2,8.2-21.1v-2.2h-31.1
	c-5.9,0-10.6,1.3-14.2,3.9c-3.6,2.4-5.4,6.1-5.4,11s1.9,8.8,5.6,11.7C1575.5,599,1580.6,600.5,1587.1,600.5z"/>
<path class="st2" d="M1666.8,615.8V509.4h21.8v12.5h3.5c1.7-4.5,4.5-7.7,8.2-9.7c3.9-2.2,8.6-3.2,14.2-3.2h12.7V529h-13.6
	c-7.2,0-13.1,2-17.7,6c-4.6,3.9-6.9,9.9-6.9,18.1v62.6H1666.8z"/>
<path class="st2" d="M1778.5,618.8c-13.5,0-24.7-3-33.7-9.1c-8.9-6-14.4-15.2-16.4-27.4l20.7-5c1.1,5.9,3.1,10.6,5.8,14
	c2.7,3.5,6.1,5.9,10.1,7.3c4.2,1.4,8.6,2.2,13.4,2.2c7.1,0,12.4-1.4,16.2-4.1c3.9-2.7,5.8-6.3,5.8-10.6s-1.8-7.5-5.4-9.5
	c-3.6-2-8.9-3.7-16-5l-7.3-1.3c-7.2-1.3-13.7-3.2-19.6-5.6c-5.9-2.4-10.6-5.8-14-10.1c-3.5-4.3-5.2-9.9-5.2-16.6
	c0-10.1,3.7-17.8,11.2-23.3c7.5-5.6,17.4-8.4,29.8-8.4c11.9,0,21.7,2.7,29.3,8.2c7.8,5.3,12.8,12.6,15.1,21.8l-20.7,5.8
	c-1.3-6.5-4-11-8.2-13.6c-4.2-2.7-9.4-4.1-15.5-4.1c-6,0-10.8,1.2-14.2,3.5c-3.5,2.2-5.2,5.3-5.2,9.3c0,4.3,1.7,7.5,5,9.5
	c3.5,2,8.1,3.5,13.8,4.5l7.6,1.3c7.6,1.3,14.6,3.1,20.9,5.4c6.3,2.3,11.3,5.6,14.9,9.9c3.7,4.3,5.6,10.1,5.6,17.3
	c0,10.6-4,18.9-11.9,24.8C1802.6,615.9,1791.9,618.8,1778.5,618.8z"/>
<g id="Mesa-de-trabajo1" transform="matrix(0.842392,0,0,0.734913,0,0)">
	<rect x="113.7" y="530.5" class="st3" width="2051.6" height="409.4"/>
	<g transform="matrix(1,0,0,1,0.0605188,0.209031)">
		<g transform="matrix(1.1871,0,0,1.36071,0.232157,-0.0093017)">
			
				<linearGradient id="SVGID_00000140708171450314029620000014452238876974132885_" gradientUnits="userSpaceOnUse" x1="0.9203" y1="1080.6941" x2="1.8229" y2="1080.6941" gradientTransform="matrix(310.5384 -323.7585 -323.7586 -310.5384 349704.8125 336592.625)">
				<stop  offset="0" style="stop-color:#7A5AF8"/>
				<stop  offset="1" style="stop-color:#F63D68"/>
			</linearGradient>
			<path style="fill-rule:evenodd;clip-rule:evenodd;fill:url(#SVGID_00000140708171450314029620000014452238876974132885_);" d="
				M252.3,417.9c-70.6,0-127.8,57.2-127.8,127.8c0,52.9,32.2,98.4,78.1,117.8c6.8,2.9,10,10.7,7.1,17.5c-2.9,6.8-10.7,10-17.5,7.1
				c-55.5-23.4-94.4-78.4-94.4-142.4c0-85.4,69.2-154.5,154.5-154.5s154.6,69.2,154.6,154.5c0,64.1-39,119-94.4,142.4
				c-6.8,2.9-14.7-0.3-17.5-7.1c-2.9-6.8,0.3-14.7,7.1-17.5c45.9-19.4,78.1-64.8,78.1-117.8C380.1,475.2,322.9,417.9,252.3,417.9z"
				/>
		</g>
		<g transform="matrix(1.1871,0,0,1.36071,0.232157,-0.0093017)">
			<path class="st5" d="M168.4,494.3c6.7-3.1,14.7-0.1,17.7,6.6l27,59.5l27-59.5c2.2-4.8,6.9-7.8,12.2-7.8c5.3,0,10,3.1,12.2,7.8
				l27,59.5l27-59.5c3.1-6.7,11-9.7,17.7-6.6c6.7,3.1,9.7,11,6.6,17.7l-39.2,86.3c-2.2,4.8-6.9,7.8-12.2,7.8s-10-3.1-12.2-7.8
				l-27-59.5l-27,59.5c-2.2,4.8-6.9,7.8-12.2,7.8c-5.3,0-10-3.1-12.2-7.8l-39.2-86.3C158.7,505.3,161.7,497.4,168.4,494.3z"/>
		</g>
		<g transform="matrix(1.1871,0,0,1.36071,0.232157,-0.0093017)">
			<path class="st6" d="M544,619c-18.6,0-33.3-5.2-44.2-15.5c-10.9-10.5-16.4-25.6-16.4-45.3v-35.4c0-19.7,5.5-34.7,16.4-45.1
				c10.9-10.5,25.7-15.7,44.2-15.7s33.3,5.2,44.2,15.7c11.1,10.4,16.6,25.4,16.6,45.1v35.4c0,19.7-5.5,34.8-16.6,45.3
				C577.2,613.8,562.5,619,544,619z M544,598.1c11.9,0,21.1-3.5,27.6-10.4c6.5-7.1,9.7-16.6,9.7-28.7v-37.1
				c0-12.1-3.2-21.6-9.7-28.5c-6.5-7-15.7-10.6-27.6-10.6c-11.6,0-20.8,3.5-27.4,10.6c-6.6,6.9-9.9,16.4-9.9,28.5V559
				c0,12.1,3.3,21.6,9.9,28.7C523.2,594.6,532.3,598.1,544,598.1z"/>
		</g>
		<g transform="matrix(1.1871,0,0,1.36071,0.232157,-0.0093017)">
			<path class="st6" d="M620.1,659.1V509.6h21.8v15.3h3.5c2.7-4.8,6.8-9,12.3-12.7c5.6-3.7,13.6-5.6,23.9-5.6c8.9,0,17,2.2,24.4,6.5
				c7.5,4.3,13.4,10.6,17.9,18.8c4.6,8.1,6.9,17.8,6.9,29.3v3.2c0,11.5-2.2,21.3-6.7,29.5c-4.5,8.1-10.4,14.2-17.9,18.6
				c-7.5,4.3-15.7,6.5-24.6,6.5c-6.9,0-12.7-0.9-17.5-2.6c-4.8-1.7-8.6-3.9-11.4-6.5c-2.9-2.7-5.2-5.5-6.9-8.4h-3.4v57.6H620.1z
				 M675.1,599.6c9.8,0,17.8-3.1,23.9-9.3c6.2-6.2,9.3-15,9.3-26.5v-1.9c0-11.4-3.2-20.1-9.5-26.3c-6.2-6.2-14.1-9.3-23.7-9.3
				c-9.5,0-17.4,3.1-23.7,9.3c-6.2,6.2-9.3,15-9.3,26.3v1.9c0,11.5,3.1,20.3,9.3,26.5C657.7,596.5,665.6,599.6,675.1,599.6z"/>
		</g>
		<g transform="matrix(1.1871,0,0,1.36071,0.232157,-0.0093017)">
			<path class="st6" d="M794,619c-10.8,0-20.2-2.2-28.2-6.7c-8.1-4.6-14.4-11-19-19.2c-4.5-8.3-6.7-18-6.7-28.9v-2.6
				c0-11.1,2.2-20.7,6.7-28.9c4.5-8.3,10.6-14.7,18.5-19.2c8.1-4.6,17.3-6.9,27.8-6.9c10.2,0,19.1,2.3,26.7,6.9
				c7.8,4.5,13.8,10.7,18.1,18.8c4.3,8.1,6.5,17.5,6.5,28.2v8.4h-81.7c0.3,9.3,3.4,16.8,9.3,22.4c6,5.5,13.5,8.2,22.4,8.2
				c8.3,0,14.6-1.9,18.8-5.6c4.3-3.7,7.6-8.1,9.9-12.9l18.3,9.5c-2,4-5,8.3-8.8,12.7c-3.7,4.5-8.7,8.2-14.9,11.2
				C811.6,617.5,803.7,619,794,619z M763,551.9h58.9c-0.6-8.1-3.4-14.3-8.6-18.8c-5.2-4.6-11.9-6.9-20.3-6.9
				c-8.3,0-15.2,2.3-20.5,6.9C767.3,537.6,764.1,543.8,763,551.9z"/>
		</g>
		<g transform="matrix(1.1871,0,0,1.36071,0.232157,-0.0093017)">
			<path class="st6" d="M858.3,616V509.6h21.8v16h3.5c2-4.3,5.6-8.3,10.8-12.1c5.2-3.7,12.9-5.6,23.1-5.6c8.1,0,15.2,1.8,21.4,5.4
				c6.3,3.6,11.3,8.7,14.9,15.3c3.6,6.5,5.4,14.3,5.4,23.5V616h-22.2v-62.1c0-9.2-2.3-16-6.9-20.3c-4.6-4.5-10.9-6.7-19-6.7
				c-9.2,0-16.6,3-22.2,9.1c-5.5,6-8.2,14.8-8.2,26.3V616H858.3z"/>
		</g>
		<g transform="matrix(1.1871,0,0,1.36071,0.232157,-0.0093017)">
			<path class="st6" d="M986.7,616l-22.2-151h23.3l18.1,135.2h3.4l23.3-135.2h40.8l23.3,135.2h3.4L1118,465h23.3l-22.2,151h-40.8
				l-23.7-137.2h-3.4L1027.6,616H986.7z"/>
		</g>
		<g transform="matrix(1.1871,0,0,1.36071,0.232157,-0.0093017)">
			<path class="st6" d="M1198.7,619c-10.8,0-20.2-2.2-28.3-6.7c-8.1-4.6-14.4-11-19-19.2c-4.5-8.3-6.7-18-6.7-28.9v-2.6
				c0-11.1,2.2-20.7,6.7-28.9c4.5-8.3,10.6-14.7,18.6-19.2c8.1-4.6,17.3-6.9,27.8-6.9c10.2,0,19.1,2.3,26.7,6.9
				c7.8,4.5,13.8,10.7,18.1,18.8c4.3,8.1,6.5,17.5,6.5,28.2v8.4h-81.7c0.3,9.3,3.4,16.8,9.3,22.4c6,5.5,13.5,8.2,22.4,8.2
				c8.3,0,14.6-1.9,18.8-5.6c4.3-3.7,7.6-8.1,9.9-12.9l18.3,9.5c-2,4-5,8.3-8.8,12.7c-3.7,4.5-8.7,8.2-14.9,11.2
				C1216.2,617.5,1208.3,619,1198.7,619z M1167.6,551.9h58.9c-0.6-8.1-3.5-14.3-8.6-18.8c-5.2-4.6-11.9-6.9-20.3-6.9
				c-8.3,0-15.2,2.3-20.5,6.9C1171.9,537.6,1168.8,543.8,1167.6,551.9z"/>
		</g>
		<g transform="matrix(1.1871,0,0,1.36071,0.232157,-0.0093017)">
			<path class="st6" d="M1324.4,619c-10.4,0-18.3-1.9-23.9-5.6c-5.5-3.7-9.6-7.9-12.3-12.5h-3.5V616h-21.8V465h22.2v59.1h3.4
				c1.7-2.9,4-5.6,6.9-8.2c2.9-2.7,6.7-5,11.4-6.7c4.8-1.7,10.6-2.6,17.5-2.6c8.9,0,17.1,2.2,24.6,6.5c7.5,4.3,13.4,10.6,17.9,18.8
				c4.5,8.2,6.7,18,6.7,29.3v3.2c0,11.5-2.3,21.3-6.9,29.5c-4.5,8.1-10.4,14.2-17.9,18.6C1341.4,616.8,1333.3,619,1324.4,619z
				 M1317.9,599.6c9.6,0,17.5-3.1,23.7-9.3c6.3-6.2,9.5-15,9.5-26.5v-1.9c0-11.4-3.1-20.1-9.3-26.3c-6.2-6.2-14.2-9.3-23.9-9.3
				c-9.5,0-17.4,3.1-23.7,9.3c-6.2,6.2-9.3,15-9.3,26.3v1.9c0,11.5,3.1,20.3,9.3,26.5C1300.5,596.5,1308.4,599.6,1317.9,599.6z"/>
		</g>
		<g transform="matrix(1.1871,0,0,1.36071,0.232157,-0.0093017)">
			<path class="st6" d="M1388.1,616V509.6h22.2V616H1388.1z M1399.4,495.2c-4.3,0-8-1.4-11-4.1c-2.9-2.9-4.3-6.5-4.3-11
				s1.4-8.1,4.3-10.8c3-2.9,6.7-4.3,11-4.3c4.5,0,8.1,1.4,11,4.3c2.9,2.7,4.3,6.3,4.3,10.8s-1.4,8.1-4.3,11
				C1407.5,493.8,1403.8,495.2,1399.4,495.2z"/>
		</g>
		<g transform="matrix(1.1871,0,0,1.36071,0.232157,-0.0093017)">
			<path class="st6" d="M1430.4,616V509.6h21.8v16h3.4c2-4.3,5.6-8.3,10.8-12.1c5.2-3.7,12.9-5.6,23.1-5.6c8.1,0,15.2,1.8,21.3,5.4
				c6.3,3.6,11.3,8.7,14.9,15.3c3.6,6.5,5.4,14.3,5.4,23.5V616h-22.2v-62.1c0-9.2-2.3-16-6.9-20.3c-4.6-4.5-10.9-6.7-19-6.7
				c-9.2,0-16.6,3-22.2,9.1c-5.5,6-8.2,14.8-8.2,26.3V616H1430.4z"/>
		</g>
		<g transform="matrix(1.1871,0,0,1.36071,0.232157,-0.0093017)">
			<path class="st6" d="M1583.1,619c-7.6,0-14.5-1.3-20.5-3.9c-5.9-2.6-10.6-6.4-14.2-11.4c-3.4-5-5.2-11.1-5.2-18.3
				c0-7.3,1.7-13.4,5.2-18.1c3.6-4.9,8.4-8.6,14.5-11c6.2-2.4,13.2-3.7,20.9-3.7h32.4v-6.9c0-6.2-1.9-11.1-5.6-14.9
				c-3.7-3.7-9.5-5.6-17.3-5.6c-7.6,0-13.4,1.8-17.5,5.4c-4,3.6-6.7,8.3-8,14l-20.7-6.7c1.7-5.8,4.5-10.9,8.2-15.5
				c3.9-4.7,9-8.6,15.3-11.4c6.3-2.9,13.9-4.3,22.9-4.3c13.8,0,24.7,3.5,32.6,10.6c7.9,7,11.9,17,11.9,30v43.8c0,4.3,2,6.5,6,6.5
				h9.1V616h-16.6c-5,0-9.1-1.3-12.3-3.9c-3.2-2.6-4.7-6.1-4.7-10.6v-0.6h-3.2c-1.2,2.2-2.9,4.7-5.2,7.5c-2.3,2.9-5.7,5.4-10.1,7.5
				C1596.4,618,1590.5,619,1583.1,619z M1586.4,600.6c8.9,0,16.1-2.5,21.6-7.5c5.5-5.2,8.2-12.2,8.2-21.1v-2.2h-31.1
				c-5.9,0-10.6,1.3-14.2,3.9c-3.6,2.4-5.4,6.1-5.4,11c0,4.9,1.9,8.8,5.6,11.6C1574.8,599.2,1579.9,600.6,1586.4,600.6z"/>
		</g>
		<g transform="matrix(1.1871,0,0,1.36071,0.232157,-0.0093017)">
			<path class="st6" d="M1666,616V509.6h21.8v12.5h3.4c1.7-4.5,4.5-7.7,8.2-9.7c3.9-2.2,8.6-3.2,14.2-3.2h12.7v20.1h-13.6
				c-7.2,0-13.1,2-17.7,6c-4.6,3.9-6.9,9.9-6.9,18.1V616H1666z"/>
		</g>
		<g transform="matrix(1.1871,0,0,1.36071,0.232157,-0.0093017)">
			<path class="st6" d="M1777.7,619c-13.5,0-24.7-3-33.6-9.1c-8.9-6-14.4-15.2-16.4-27.4l20.7-5c1.1,5.9,3.1,10.6,5.8,14
				c2.7,3.5,6.1,5.9,10.1,7.3c4.2,1.4,8.6,2.2,13.4,2.2c7,0,12.4-1.4,16.2-4.1c3.9-2.7,5.8-6.3,5.8-10.6c0-4.3-1.8-7.5-5.4-9.5
				c-3.6-2-8.9-3.7-16-5l-7.3-1.3c-7.2-1.3-13.7-3.2-19.6-5.6c-5.9-2.4-10.6-5.8-14-10.1c-3.4-4.3-5.2-9.8-5.2-16.6
				c0-10.1,3.7-17.8,11.2-23.3c7.5-5.6,17.4-8.4,29.8-8.4c11.9,0,21.7,2.7,29.3,8.2c7.8,5.3,12.8,12.6,15.1,21.8l-20.7,5.8
				c-1.3-6.5-4-11-8.2-13.6c-4.2-2.7-9.4-4.1-15.5-4.1c-6,0-10.8,1.2-14.2,3.5c-3.4,2.2-5.2,5.2-5.2,9.3c0,4.3,1.6,7.5,5,9.5
				c3.4,2,8.1,3.5,13.8,4.5l7.6,1.3c7.6,1.3,14.6,3.1,20.9,5.4s11.3,5.6,14.9,9.9c3.7,4.3,5.6,10.1,5.6,17.3
				c0,10.6-4,18.9-11.9,24.8C1801.7,616,1791.1,619,1777.7,619z"/>
		</g>
	</g>
</g>
</svg>
