<?xml version="1.0" encoding="utf-8"?>
<!-- Generator: Adobe Illustrator 26.0.0, SVG Export Plug-In . SVG Version: 6.00 Build 0)  -->
<svg version="1.1" id="Capa_1" xmlns="http://www.w3.org/2000/svg" xmlns:xlink="http://www.w3.org/1999/xlink" x="0px" y="0px"
	 viewBox="0 0 500 500" style="enable-background:new 0 0 500 500;" xml:space="preserve">
<style type="text/css">
	.st0{fill:url(#SVGID_1_);}
	.st1{fill:url(#SVGID_00000063617440482771886740000012752472419149695164_);}
	.st2{fill:url(#SVGID_00000183941757062579039270000005288364441317736624_);}
	.st3{fill:#FFFFFF;}
	.st4{fill:#F8981D;}
</style>
<g transform="matrix(.569 0 0 .569 199.451 -82.735)">
	
		<linearGradient id="SVGID_1_" gradientUnits="userSpaceOnUse" x1="-20085.8652" y1="-17051.791" x2="-20006.4473" y2="-17098.7188" gradientTransform="matrix(0.1187 0 0 0.1187 2244.4512 2401.0623)">
		<stop  offset="0" style="stop-color:#909CA9"/>
		<stop  offset="1" style="stop-color:#EDEDEE"/>
	</linearGradient>
	<path class="st0" d="M-42.96,276.99l-45.83,14.97l-39.87,17.6l-11.16,2.94c-2.84,2.7-5.82,5.44-9.04,8.21
		c-3.53,3.05-6.82,5.82-9.35,7.83c-2.81,2.22-6.96,6.37-9.08,9.01c-3.15,3.95-5.65,8.14-6.72,11.36c-1.91,5.82-0.97,11.71,2.7,17.15
		c4.71,6.93,14.1,13.99,25.05,18.81c5.58,2.46,14.97,5.61,22.03,7.38c11.74,2.98,34.47,6.2,46.97,6.69c2.53,0.1,5.92,0.1,6.06,0
		c0.28-0.17,2.22-3.88,4.47-8.49c7.69-15.69,13.23-30.42,16.25-42.99c1.8-7.62,3.22-17.77,4.16-29.79
		c0.24-3.36,0.35-14.62,0.14-18.43c-0.31-6.24-0.87-11.29-1.73-16.25c-0.14-0.73-0.17-1.39-0.1-1.42c0.14-0.1,0.55-0.24,6.2-1.87
		L-42.96,276.99L-42.96,276.99L-42.96,276.99L-42.96,276.99z M-53.42,283.12c0.42,0,1.52,10.63,1.8,17.36
		c0.07,1.42,0.03,2.36-0.03,2.36c-0.28,0-5.85-3.29-9.84-5.78c-3.46-2.18-10.05-6.55-11.09-7.38c-0.35-0.24-0.31-0.28,2.53-1.25
		C-65.23,286.8-53.8,283.12-53.42,283.12z M-76.77,290.82c0.31,0,1.11,0.45,3.01,1.63c7.14,4.47,16.84,9.87,20.99,11.67
		c1.28,0.55,1.42,0.35-1.52,2.36c-6.3,4.3-14.17,8.52-23.8,12.78c-1.7,0.76-3.12,1.35-3.15,1.35c-0.07,0,0.14-0.87,0.42-1.91
		c2.32-8.63,3.64-17.36,3.71-24.35c0.03-3.46,0.03-3.46,0.35-3.57C-76.84,290.82-76.8,290.82-76.77,290.82L-76.77,290.82z
		 M-81.58,292.65c0.21,0.21,0.07,7.97-0.21,10.08c-0.62,5.06-1.59,9.77-3.19,15.07c-0.38,1.28-0.73,2.36-0.8,2.42
		c-0.14,0.17-4.89-4.47-6.44-6.27c-2.7-3.12-4.81-6.24-6.37-9.28c-0.8-1.56-2.04-4.61-1.94-4.71
		C-99.98,299.58-81.72,292.51-81.58,292.65L-81.58,292.65z M-104.24,301.55c0.03,0,0.07,0,0.1,0.03c0.07,0.07,0.31,0.62,0.52,1.25
		c1.11,3.01,3.6,7.45,5.75,10.29c2.36,3.12,5.44,6.44,8,8.63c0.83,0.69,1.59,1.35,1.7,1.45c0.21,0.21,0.28,0.17-5.37,2.32
		c-6.55,2.49-13.68,4.99-21.86,7.62c-1.95,0.63-3.9,1.26-5.85,1.91c-0.31,0.1-0.21-0.07,0.69-1.49
		c4.05-6.34,10.22-18.78,13.68-27.58c0.59-1.52,1.18-3.05,1.28-3.39c0.14-0.49,0.31-0.66,0.76-0.9
		C-104.58,301.62-104.34,301.55-104.24,301.55L-104.24,301.55z M-111.17,304.43c0.1,0.07-1.66,3.78-3.4,7.17
		c-3.36,6.55-7.03,12.99-11.95,20.82c-0.83,1.35-1.63,2.6-1.73,2.74c-0.17,0.24-0.24,0.17-0.8-0.9c-1.18-2.32-2.15-5.3-2.67-8.04
		c-0.52-2.7-0.42-7.41,0.17-10.32c0.45-2.15,0.42-2.11,1.45-2.63C-125.65,311.01-111.3,304.29-111.17,304.43L-111.17,304.43z
		 M-51.41,306.85v1.45c0,7.73-0.83,18.33-2.04,26.05c-0.21,1.35-0.38,2.46-0.42,2.49c0,0-1-0.28-2.18-0.62
		c-5.2-1.63-10.84-4.02-15.94-6.82c-3.36-1.84-8.24-4.85-8.11-4.99c0.03-0.03,1.49-0.8,3.19-1.7c6.79-3.53,13.3-7.34,18.95-11.12
		c2.11-1.42,5.3-3.71,5.99-4.33L-51.41,306.85L-51.41,306.85z M-137.32,317.11c0.14,0,0.1,0.28-0.1,1.52
		c-0.14,0.9-0.31,2.56-0.38,3.71c-0.28,5.06,0.55,8.8,3.05,13.93c0.69,1.42,1.25,2.6,1.21,2.63c-0.24,0.21-23.18,6.93-30.38,8.9
		c-2.15,0.59-4.02,1.11-4.16,1.14c-0.24,0.07-0.28,0.04-0.17-0.55c0.8-5.09,4.68-11.74,10.08-17.36c3.6-3.74,6.48-5.92,11.4-8.73
		c3.53-2.01,8.97-5.02,9.39-5.16C-137.39,317.11-137.36,317.11-137.32,317.11L-137.32,317.11z M-83.28,326.77
		c0.03-0.03,0.87,0.42,1.87,1c7.41,4.3,17.74,8.28,26.54,10.32l0.8,0.17l-1.11,0.62c-4.61,2.56-19.75,8.87-35.23,14.65
		c-2.25,0.83-4.47,1.66-4.89,1.84c-0.42,0.17-0.8,0.28-0.8,0.24c0-0.04,0.62-1.25,1.42-2.74c4.33-8.11,8.7-17.98,10.91-24.84
		C-83.49,327.4-83.31,326.81-83.28,326.77L-83.28,326.77z M-88.79,328.57c0.04,0.04-0.24,0.76-0.59,1.59
		c-3.01,7.31-6.96,15.28-12.02,24.22c-1.28,2.29-2.36,4.12-2.39,4.12c-0.03,0-1.07-0.62-2.32-1.39
		c-7.34-4.5-13.86-10.05-18.12-15.42l-0.62-0.76l3.15-0.87c11.29-3.08,20.89-6.41,30.42-10.5
		C-89.93,329.03-88.82,328.57-88.79,328.57z M-54.56,340.53C-54.56,340.53-54.53,340.56-54.56,340.53c0.03,0.8-1.73,7.93-3.19,13.09
		c-1.21,4.33-2.25,7.73-4.16,13.72c-0.83,2.63-1.56,4.82-1.59,4.82c-0.03,0-0.24-0.03-0.45-0.1c-10.29-1.87-19.5-4.47-28.16-7.93
		c-2.43-0.97-5.89-2.53-6.1-2.7c-0.07-0.07,2.01-1.04,4.64-2.18c15.76-6.89,32.11-14.72,37.73-18.08
		C-55.18,340.73-54.66,340.53-54.56,340.53L-54.56,340.53z M-133.58,343.23c0.07,0.07-4.33,6.41-10.5,15.03
		c-2.15,3.01-4.64,6.55-5.58,7.86c-0.94,1.32-2.36,3.4-3.15,4.64l-1.46,2.25l-1.56-1.32c-1.84-1.52-5.02-4.78-6.44-6.58
		c-2.98-3.71-4.99-7.62-5.79-11.19c-0.38-1.66-0.38-2.49-0.04-2.6c0.52-0.14,9.77-2.32,18.43-4.33c4.82-1.11,10.39-2.42,12.4-2.91
		C-135.24,343.61-133.61,343.23-133.58,343.23L-133.58,343.23z M-129.15,344.93l1.11,1.25c4.99,5.58,10.08,9.7,16.25,13.3
		c1.11,0.62,1.94,1.18,1.87,1.21c-0.24,0.17-21.41,7.69-31.21,11.08c-5.51,1.94-10.05,3.5-10.08,3.5c-0.03,0-0.35-0.21-0.69-0.45
		l-0.62-0.45l1-1.45c3.26-4.71,7.34-9.87,16.25-20.61L-129.15,344.93L-129.15,344.93z M-101.5,364.71c0.03-0.03,1.56,0.52,3.43,1.21
		c4.5,1.7,8.07,2.77,12.85,3.98c5.89,1.49,14.41,2.94,19.43,3.36c0.76,0.07,1.18,0.14,1.04,0.24c-0.24,0.14-5.33,1.84-9.08,3.01
		c-5.96,1.87-24.15,7.24-38.97,11.5c-2.74,0.8-5.09,1.46-5.23,1.49c-0.35,0.07-1.49-0.24-1.49-0.38c0-0.07,0.83-1.14,1.84-2.32
		c4.99-5.96,9.94-12.61,14.06-18.91C-102.47,366.16-101.5,364.74-101.5,364.71L-101.5,364.71z M-107.6,364.88
		c0.03,0.03-2.42,3.98-6.72,10.77c-1.84,2.88-3.88,6.13-4.61,7.27c-0.69,1.11-1.73,2.84-2.32,3.81l-1,1.77l-0.52-0.14
		c-1.25-0.35-10.01-3.43-12.33-4.37c-2.88-1.14-5.85-2.53-8.07-3.71c-2.77-1.49-6.24-3.71-5.96-3.78c0.07-0.03,4.82-1.32,10.53-2.88
		c15.17-4.12,23.59-6.51,29.1-8.24C-108.5,365.09-107.63,364.85-107.6,364.88L-107.6,364.88z M-64.47,375h0.03
		c0.14,0.35-5.47,15.94-7.52,20.85c-0.45,1.11-0.62,1.39-0.87,1.35c-0.59-0.03-8.73-1.18-13.68-1.9
		c-8.63-1.32-23.11-3.85-26.74-4.68l-0.83-0.17l5.16-1.18c11.09-2.49,16.42-3.85,21.82-5.51c6.82-2.08,13.58-4.68,20.4-7.86
		C-65.61,375.41-64.71,375.03-64.47,375L-64.47,375z"/>
	
		<linearGradient id="SVGID_00000061468723649920153730000009002789203693078203_" gradientUnits="userSpaceOnUse" x1="-20082.7324" y1="-18606.1797" x2="-20018.8301" y2="-18606.1797" gradientTransform="matrix(0.1187 0 0 0.1187 2244.4512 2401.0623)">
		<stop  offset="0" style="stop-color:#939FAB"/>
		<stop  offset="1" style="stop-color:#DCDEE1"/>
	</linearGradient>
	<path style="fill:url(#SVGID_00000061468723649920153730000009002789203693078203_);" d="M-90.21,170.15
		c-0.76-0.1-13.06,4.33-20.99,7.55c-10.7,4.37-19.02,8.52-24.15,12.12c-1.91,1.35-4.3,3.74-4.68,4.68
		c-0.14,0.35-0.21,0.76-0.21,1.18l4.64,4.4l11.05,3.53l26.29,4.71l30.07,5.16l0.31-2.6c-0.1,0-0.17-0.03-0.28-0.03l-3.95-0.62
		l-0.8-1.42c-4.09-7.21-8.59-16.14-11.22-22.17c-2.04-4.68-3.98-10.08-5.06-13.96C-89.76,170.33-89.83,170.19-90.21,170.15
		L-90.21,170.15L-90.21,170.15L-90.21,170.15z M-90.76,171.92h0.04c0.03,0.03,0.17,1,0.31,2.15c0.59,4.85,1.66,9.53,3.36,14.58
		c1.28,3.81,1.28,3.6-0.21,3.15c-3.53-0.97-19.36-3.71-30.83-5.3c-1.84-0.24-3.4-0.49-3.4-0.52c-0.14-0.14,8.28-4.54,11.99-6.27
		C-104.76,177.53-91.73,172.1-90.76,171.92L-90.76,171.92z M-124.16,187.44l1.35,0.45c7.34,2.49,25.81,6.03,35.99,6.86
		c1.14,0.1,2.11,0.21,2.15,0.21c0.03,0.03-0.93,0.55-2.18,1.14c-4.92,2.46-10.32,5.47-14.06,7.79c-1.11,0.69-2.11,1.25-2.25,1.25
		c-0.14,0-0.87-0.14-1.63-0.24l-1.39-0.21l-3.46-3.4c-6.1-5.92-10.88-10.5-12.71-12.23L-124.16,187.44z M-125.54,188.52l4.88,6.1
		c2.67,3.36,5.37,6.65,5.96,7.38c0.59,0.73,1.07,1.32,1.04,1.35c-0.14,0.1-7.07-1.25-10.74-2.08c-3.78-0.87-5.33-1.28-7.66-2.01
		l-1.91-0.62v-0.49c0.03-2.32,2.98-5.79,7.97-9.32L-125.54,188.52L-125.54,188.52z M-84.04,196.83c0.14,0,0.31,0.31,0.73,1.25
		c1.18,2.6,4.85,9.6,5.75,10.95c0.28,0.45,0.76,0.49-4.12-0.31c-11.74-1.91-15.52-2.53-15.52-2.6c0-0.03,0.35-0.28,0.8-0.52
		c3.64-2.01,7.31-4.57,10.57-7.31c0.8-0.66,1.52-1.28,1.66-1.39C-84.15,196.83-84.08,196.8-84.04,196.83L-84.04,196.83z"/>
	
		<radialGradient id="SVGID_00000170972390716684182830000002816743006835322806_" cx="-3868.0535" cy="-9998.7871" r="84.8427" gradientTransform="matrix(-0.114 -0.0171 0.0346 -0.228 -167.5106 -2093.499)" gradientUnits="userSpaceOnUse">
		<stop  offset="0" style="stop-color:#EE352C"/>
		<stop  offset="1" style="stop-color:#A91D22"/>
	</radialGradient>
	<path style="fill:url(#SVGID_00000170972390716684182830000002816743006835322806_);" d="M-139.78,194.02c0,0-0.76,1.21-0.03,3.01
		c0.45,1.11,1.77,2.46,3.26,3.85c0,0,15.42,15.03,17.29,17.18c8.52,9.84,12.23,19.54,12.58,32.91c0.21,8.59-1.42,16.14-5.47,24.91
		c-7.21,15.73-22.41,33.08-45.87,52.34l3.43-1.14c2.22-1.66,5.23-3.43,12.3-7.31c16.32-8.94,34.68-17.15,57.19-25.6
		c32.42-12.19,85.74-26.47,116.09-31.11l3.15-0.49l-0.49-0.76c-2.77-4.3-4.68-6.96-6.96-9.8c-6.65-8.24-14.72-14.93-24.6-20.47
		c-13.58-7.59-31.14-13.51-53.38-17.91c-4.19-0.83-13.41-2.43-20.89-3.57c-15.87-2.46-26.12-4.16-37.41-6.1
		c-4.05-0.69-10.12-1.73-14.13-2.6c-2.08-0.45-6.06-1.39-9.18-2.46C-135.42,197.94-139.02,196.97-139.78,194.02L-139.78,194.02z
		 M-130.84,202.68c0.03-0.03,0.59,0.17,1.32,0.42c1.32,0.45,3.01,0.97,5.02,1.52c1.52,0.42,3.04,0.82,4.57,1.21
		c2.08,0.52,3.81,1,3.84,1c0.24,0.24,3.74,11.43,4.92,15.73c0.45,1.63,0.8,3.01,0.76,3.01c-0.04,0.04-0.42-0.55-0.87-1.35
		c-4.05-7.14-10.46-14.38-17.88-20.2C-130.12,203.34-130.84,202.72-130.84,202.68L-130.84,202.68z M-113.8,207.4
		c0.17,0,0.94,0.1,1.87,0.31c5.89,1.32,16.46,3.33,23.21,4.47c1.14,0.17,2.04,0.38,2.04,0.45c0,0.07-0.42,0.31-0.94,0.59
		c-1.14,0.59-5.75,3.33-7.27,4.36c-3.85,2.56-7.31,5.33-9.8,7.83c-1,1-1.87,1.84-1.87,1.84s-0.21-0.59-0.38-1.32
		c-1.25-4.82-3.85-11.95-6.2-16.97c-0.38-0.8-0.69-1.52-0.69-1.59C-113.83,207.43-113.83,207.4-113.8,207.4L-113.8,207.4z
		 M-83.8,213.11c0.21,0.07,0.55,1.25,1.25,3.85c1.28,5.02,1.87,10.64,1.66,15.87c-0.07,1.45-0.14,2.81-0.21,2.98l-0.1,0.35
		l-1.8-0.59c-3.71-1.18-9.73-2.94-14.9-4.4c-2.95-0.8-5.33-1.52-5.33-1.59c0-0.21,4.3-4.5,6.13-6.13
		C-93.6,220.35-84.11,213.01-83.8,213.11L-83.8,213.11z M-81.41,213.46c0.1-0.1,14.34,2.36,20.82,3.6
		c4.82,0.94,11.81,2.39,12.23,2.56c0.21,0.07-0.52,0.48-2.84,1.52c-9.15,4.12-15.94,7.83-22.69,12.33
		c-1.77,1.18-3.26,2.15-3.29,2.15c-0.03,0-0.07-1-0.07-2.22c0-6.58-1.32-13.23-3.74-18.85C-81.24,214.01-81.44,213.49-81.41,213.46z
		 M-44.58,220.73c0.1,0.1-0.35,2.91-0.76,4.57c-1.25,5.16-4.61,12.82-8.73,20.02c-0.73,1.28-1.39,2.32-1.46,2.36
		c-0.07,0.03-1-0.49-2.08-1.11c-4.02-2.36-8.59-4.57-13.58-6.65c-1.39-0.59-2.6-1.07-2.63-1.14c-0.24-0.21,10.91-7.59,16.8-11.12
		C-52.34,224.82-44.72,220.59-44.58,220.73L-44.58,220.73z M-41.95,221.15c0.31,0,6.62,1.73,9.91,2.7
		c8.14,2.43,17.49,5.85,23.59,8.63l2.53,1.14l-1.77,0.42c-14.9,3.43-27.64,7.38-39.94,12.37c-1,0.42-1.91,0.76-1.97,0.76
		c-0.07,0,0.28-0.8,0.73-1.77c3.71-7.86,6.1-16.07,6.69-23.07C-42.16,221.67-42.06,221.15-41.95,221.15L-41.95,221.15z
		 M-104.72,235.56c0.1-0.1,4.92,1.04,7.52,1.77c3.95,1.11,12.33,3.91,12.33,4.12c0,0.03-0.94,0.83-2.04,1.8
		c-4.54,3.78-8.9,7.76-14.13,12.82c-1.56,1.49-2.88,2.7-2.94,2.7c-0.07,0-0.1-0.21-0.07-0.49c0.8-5.82,0.62-13.3-0.48-20.89
		C-104.65,236.43-104.76,235.59-104.72,235.56z M-3.53,235.66c0.07,0.07-2.22,3.67-3.67,5.72c-2.08,2.98-5.13,6.93-12.02,15.59
		c-3.64,4.57-7.73,9.73-9.08,11.47c-1.39,1.73-2.53,3.19-2.56,3.19c-0.03,0-0.48-0.62-0.97-1.39c-3.88-5.82-8.52-10.91-14.03-15.49
		c-1.04-0.87-2.18-1.8-2.56-2.08c-0.38-0.28-0.69-0.55-0.69-0.59c0-0.1,5.89-2.63,10.36-4.43c7.83-3.19,18.5-7,26.5-9.46
		C-8.07,236.88-3.6,235.59-3.53,235.66L-3.53,235.66z M-0.86,236.36c0.14-0.03,0.97,0.38,1.97,0.97
		c8.42,4.82,16.66,11.02,23.18,17.39c1.84,1.8,6.37,6.51,6.3,6.55c0,0-1.59,0.14-3.46,0.28c-14.58,1.11-33.26,4.19-51.2,8.52
		c-1.21,0.28-2.29,0.52-2.36,0.52c-0.07,0,1.28-1.35,2.98-2.98c10.53-10.15,15.35-16.56,21.03-27.99
		C-1.63,237.92-0.93,236.46-0.86,236.36C-0.9,236.36-0.9,236.36-0.86,236.36L-0.86,236.36z M-78.01,244.26
		c0.49,0.1,4.99,2.22,8.38,3.91c3.12,1.56,7.79,4.05,8.04,4.26c0.03,0.03-1.63,0.9-3.67,1.91c-6.51,3.26-12.09,6.34-17.91,9.87
		c-1.66,1-3.05,1.84-3.08,1.84c-0.14,0-0.1-0.14,0.83-1.84c3.12-5.68,5.61-12.47,7.03-19.09C-78.26,244.6-78.12,244.26-78.01,244.26
		L-78.01,244.26z M-82.52,245.09c0.1,0.1-1.07,4.36-1.8,6.69c-1.42,4.4-3.81,9.91-6.13,14.06c-0.55,0.97-1.39,2.39-1.84,3.19
		l-0.87,1.39l-1.94-1.87c-2.25-2.18-4.09-3.53-6.44-4.75c-0.94-0.48-1.66-0.9-1.66-0.97c0-0.28,5.92-5.65,10.46-9.53
		C-89.48,250.49-82.62,244.98-82.52,245.09L-82.52,245.09z M-54.98,256.42l1.7,1.11c3.88,2.53,8.45,5.89,11.95,8.83
		c1.97,1.63,5.78,5.06,6.55,5.89l0.42,0.45l-2.81,0.8c-15.87,4.4-28.13,8.31-42.44,13.58c-1.59,0.59-2.94,1.07-3.05,1.07
		c-0.21,0-0.38,0.17,3.19-3.12c9.15-8.42,17.25-17.7,23.28-26.74L-54.98,256.42L-54.98,256.42z M-62.22,258.22
		c0.07,0.07-4.68,6.75-7.52,10.53c-3.39,4.5-9.42,12.06-13.58,16.97c-1.73,2.04-3.22,3.74-3.29,3.78c-0.1,0.03-0.14-0.48-0.14-1.28
		c0-4.19-1.07-8.66-2.94-12.47c-0.8-1.59-0.94-1.97-0.76-2.15c0.66-0.59,10.74-6.34,17.11-9.77
		C-69.04,261.54-62.32,258.15-62.22,258.22L-62.22,258.22z M-106,268.96c0.1,0,0.9,0.42,1.8,0.9c2.22,1.21,4.19,2.56,5.96,4.02
		c0.07,0.07-0.83,0.8-2.01,1.66c-3.29,2.36-8.28,6.13-11.19,8.45c-3.05,2.43-3.15,2.49-2.81,1.97c2.29-3.5,3.43-5.47,4.64-8
		c1.07-2.25,2.15-4.92,2.91-7.24C-106.42,269.72-106.07,268.96-106,268.96L-106,268.96z M-94.33,278.1
		c0.17-0.03,0.38,0.28,1.32,1.66c1.97,2.94,3.5,6.89,3.88,10.08l0.07,0.69l-4.75,1.84c-8.49,3.29-16.32,6.55-21.62,8.97
		c-1.49,0.69-4.09,1.94-5.78,2.77c-1.7,0.87-3.08,1.52-3.08,1.49c0-0.03,1.07-0.83,2.39-1.8c10.36-7.52,19.33-15.76,26.05-24.01
		c0.73-0.87,1.39-1.66,1.45-1.7L-94.33,278.1L-94.33,278.1z M-99.7,279.42c0.14,0.14-3.81,4.61-6.51,7.34
		c-6.69,6.82-13.3,12.16-21.51,17.36c-1.04,0.66-1.97,1.25-2.08,1.32c-0.24,0.14,0.07-0.21,3.67-4.12c2.29-2.46,4.02-4.54,5.99-7.1
		c1.32-1.7,1.56-1.94,3.46-3.29C-111.58,287.25-99.84,279.28-99.7,279.42z"/>
</g>
<path class="st3" d="M57.37,157.87c-0.36,0-0.73,0.03-1.09,0.03c-7.34,0.39-12.3,3.62-15.19,9.94c-2.48,5.71-2.21,13.17,0.03,18.91
	c2.6,5.61,6.8,8.57,13.8,9.69c1.48,0.24,2.48,1.06,5.35,4.41L63.8,205h6.41l-4.26-4.3c-2.36-2.36-4.26-4.41-4.26-4.59
	c0-0.18,0.9-0.57,1.99-0.91c3.6-1.09,6.58-3.87,8.67-8.12c1.69-3.42,1.93-4.48,2.18-8.73C75.16,165.69,68.48,157.78,57.37,157.87
	L57.37,157.87L57.37,157.87z M62.98,190.98c-3.12,1.51-7.65,1.81-10.6,0.73c-3.06-1.12-6.01-4.3-7.34-7.89
	c-1.48-3.93-1.27-11.18,0.42-14.44c2.72-5.2,6.32-7.59,11.57-7.59c7.79,0,12.23,4.77,12.81,13.75
	C70.3,183.03,67.79,188.65,62.98,190.98L62.98,190.98z M173.69,168.69c-2.69,0-4.75,1.09-6.13,3.23l-1.09,1.7v-4.41h-4.65v26.47
	h4.65v-8.46c0-7.74,0.1-8.64,1.18-10.76c1.49-2.9,4.05-4.35,6.53-3.66l1.66,0.49v-4.59L173.69,168.69L173.69,168.69L173.69,168.69z
	 M146.36,168.45c-0.91,0-1.88,0.12-2.84,0.33c-6.23,1.63-9.73,7.59-9.52,13.72c0,5.13,1,7.7,3.47,10.39
	c5.08,4.16,9.67,4.5,15.86,2.26c1.06-0.45,2.21-0.97,2.21-0.97v-4.16l-2.21,1.14c-5.01,2.18-8.79,2.18-11.81-0.39
	c-1.93-1.96-2.78-4.32-3.17-7.01h18.76v-3.57C157.11,172.92,152.73,168.33,146.36,168.45L146.36,168.45L146.36,168.45z
	 M138.77,180.05c0,0,0.69-4.54,3.26-6.32c1.24-0.87,2.66-1.3,4.05-1.3c1.39,0,2.78,0.45,3.93,1.33c2.36,1.81,2.75,6.25,2.75,6.25
	h-13.99L138.77,180.05L138.77,180.05L138.77,180.05z M26.61,175.28c-5.04-3.06-7.28-5.26-7.01-7.86c0.78-7.19,9.67-6.19,14.58-3.47
	l0.03-4.84c0,0-2.72-1.18-6.62-1.24c-5.98-0.09-9.85,1.87-11.66,5.86c-2.66,5.89-0.3,10.33,8.21,15.28c4.78,2.78,6.89,5.2,6.89,7.83
	c0,5.44-6.56,7.34-13.32,3.93c-1.39-0.69-2.57-1.27-2.63-1.27c-0.24,1.54-0.12,5.23-0.12,5.23s2.08,0.87,5.2,1.48
	c7.73,1.54,14.77-2.09,15.43-7.97C36.19,182.7,34.19,179.8,26.61,175.28L26.61,175.28L26.61,175.28z M214.87,168.38
	c-0.91,0-1.87,0.12-2.88,0.34c-6.22,1.63-9.72,7.59-9.48,13.72c0,5.13,0.99,7.67,3.47,10.36c5.08,4.17,9.67,4.5,15.89,2.27
	c1.05-0.45,2.2-0.96,2.2-0.96v-4.17l-2.2,1.15c-5.02,2.18-8.8,2.18-11.81-0.39c-1.94-1.96-2.78-4.29-3.17-7.01h18.73v-3.57
	c0-7.24-4.38-11.84-10.75-11.72L214.87,168.38L214.87,168.38z M207.28,179.99c0,0,0.7-4.53,3.27-6.35c1.23-0.88,2.65-1.3,4.04-1.3
	c1.39,0,2.78,0.45,3.93,1.33c2.36,1.81,2.75,6.28,2.75,6.28h-13.99L207.28,179.99L207.28,179.99z M122.01,175.34
	c-5.04-3.05-7.27-5.26-7-7.86c0.78-7.19,9.67-6.19,14.58-3.47l0.03-4.84c0,0-2.72-1.18-6.62-1.23c-5.98-0.09-9.85,1.87-11.66,5.86
	c-2.66,5.89-0.27,10.33,8.22,15.28c4.77,2.78,6.89,5.16,6.89,7.79c0,5.44-6.55,7.37-13.32,3.92c-1.39-0.69-2.56-1.26-2.63-1.26
	c-0.24,1.54-0.12,5.23-0.12,5.23s2.05,0.84,5.16,1.48c7.74,1.55,14.78-2.08,15.44-7.97C131.56,182.77,129.56,179.87,122.01,175.34
	L122.01,175.34L122.01,175.34z M242.21,168.63c-2.69,0-4.77,1.09-6.13,3.24l-1.09,1.69v-4.41h-4.65v26.46h4.65v-8.46
	c0-7.73,0.09-8.64,1.18-10.75c1.49-2.9,4.05-4.35,6.53-3.65l1.66,0.48v-4.6L242.21,168.63L242.21,168.63z M85.01,175.18v-16.86
	h-4.69v37.34h19.73v-4.41H85.01L85.01,175.18L85.01,175.18z M193.48,180.44l-3.87,10.06l-3.72-10.12l-3.78-11.21h-4.8
	c3.11,8.82,6.5,17.79,9.91,26.49c1.48,0.03,2.96,0,4.44,0l5.22-13.11l5.32-13.38h-4.59C197.62,169.18,195.59,174.49,193.48,180.44
	L193.48,180.44L193.48,180.44z M95.82,148.15c0.76,0,1.39-0.24,1.91-0.76c0.51-0.51,0.78-1.12,0.78-1.87c0-0.76-0.27-1.39-0.78-1.87
	c-0.52-0.48-1.12-0.73-1.87-0.73c-0.76,0-1.39,0.24-1.91,0.76c-0.52,0.51-0.76,1.14-0.76,1.87c0,0.76,0.24,1.39,0.76,1.87
	C94.43,147.9,95.06,148.15,95.82,148.15L95.82,148.15L95.82,148.15z M94.16,143.86c0.45-0.45,1-0.66,1.7-0.66
	c0.66,0,1.21,0.21,1.66,0.66c0.45,0.45,0.69,1,0.69,1.66c0,0.67-0.24,1.24-0.69,1.69c-0.46,0.45-1,0.67-1.66,0.67
	c-0.67,0-1.21-0.21-1.66-0.67c-0.45-0.45-0.69-1.03-0.69-1.69C93.5,144.85,93.7,144.31,94.16,143.86z M95.27,145.76h0.3
	c0.22,0,0.43,0.21,0.61,0.6l0.36,0.82h0.57l-0.45-0.91c-0.18-0.36-0.36-0.57-0.58-0.63c0.27-0.06,0.48-0.15,0.63-0.33
	c0.15-0.16,0.21-0.37,0.21-0.61c0-0.28-0.09-0.48-0.27-0.64c-0.21-0.17-0.54-0.27-0.97-0.27h-0.96v3.38h0.48v-1.42L95.27,145.76
	L95.27,145.76z M95.27,144.19h0.42c0.3,0,0.52,0.06,0.64,0.15c0.11,0.09,0.15,0.21,0.15,0.42c0,0.39-0.24,0.58-0.69,0.58h-0.52
	L95.27,144.19L95.27,144.19L95.27,144.19z M17.79,145.46c0-1.18-0.03-2.05-0.06-2.57h0.03c0.12,0.61,0.27,1.06,0.39,1.36l4.5,10.06
	h0.76l4.5-10.15c0.12-0.28,0.24-0.69,0.39-1.27h0.03c-0.09,1-0.12,1.88-0.12,2.57v8.88h1.54v-13.2h-1.93l-4.14,9.18
	c-0.15,0.36-0.36,0.91-0.63,1.63h-0.06c-0.09-0.36-0.3-0.9-0.6-1.57l-4.05-9.27h-2.05v13.2h1.48v-8.85L17.79,145.46L17.79,145.46z
	 M33.14,145.48h1.33v8.22h-1.33V145.48z M33.8,142.47c0.28,0,0.51-0.09,0.69-0.28c0.18-0.18,0.31-0.42,0.31-0.69
	c0-0.27-0.09-0.51-0.3-0.69c-0.19-0.18-0.43-0.28-0.7-0.28c-0.27,0-0.51,0.09-0.69,0.28c-0.18,0.18-0.3,0.42-0.3,0.69
	c0,0.3,0.09,0.51,0.3,0.69C33.31,142.38,33.53,142.47,33.8,142.47L33.8,142.47L33.8,142.47z M43.95,153.89v-1.45
	c-0.73,0.54-1.51,0.81-2.32,0.81c-0.97,0-1.76-0.33-2.33-0.97c-0.57-0.63-0.88-1.51-0.88-2.6c0-1.14,0.3-2.05,0.94-2.74
	c0.61-0.67,1.39-1,2.36-1c0.79,0,1.54,0.24,2.24,0.73v-1.54c-0.63-0.33-1.36-0.49-2.18-0.49c-1.51,0-2.69,0.49-3.57,1.42
	c-0.87,0.94-1.32,2.21-1.32,3.74c0,1.36,0.39,2.51,1.21,3.39c0.85,0.9,1.93,1.36,3.26,1.36C42.38,154.52,43.22,154.31,43.95,153.89
	L43.95,153.89z M47.76,149.5c0-1.08,0.24-1.96,0.69-2.56c0.42-0.54,0.94-0.82,1.54-0.82c0.51,0,0.88,0.09,1.14,0.3v-1.57
	c-0.21-0.09-0.51-0.12-0.9-0.12c-0.54,0-1.03,0.18-1.45,0.52c-0.45,0.36-0.81,0.9-1.02,1.59h-0.03v-1.93h-1.51v9.42h1.51v-4.84
	H47.76z M56.43,154.53c1.42,0,2.56-0.46,3.41-1.36c0.85-0.9,1.27-2.11,1.27-3.62c0-1.54-0.39-2.72-1.18-3.6
	c-0.78-0.88-1.87-1.3-3.29-1.3c-1.42,0-2.56,0.42-3.41,1.24c-0.91,0.9-1.39,2.17-1.39,3.8c0,1.42,0.39,2.6,1.21,3.47
	C53.89,154.07,55.01,154.52,56.43,154.53L56.43,154.53L56.43,154.53z M54.28,146.85c0.58-0.61,1.33-0.91,2.27-0.91
	c0.97,0,1.7,0.3,2.24,0.91c0.54,0.63,0.81,1.54,0.81,2.75c0,1.15-0.24,2.05-0.76,2.66c-0.51,0.63-1.27,0.97-2.27,0.97
	c-0.97,0-1.72-0.34-2.3-0.97c-0.57-0.64-0.85-1.51-0.85-2.66C53.38,148.45,53.68,147.52,54.28,146.85L54.28,146.85z M67.72,153.71
	c0.57-0.51,0.88-1.14,0.88-1.93c0-0.69-0.24-1.27-0.69-1.72c-0.37-0.36-0.94-0.69-1.76-1.03c-0.73-0.3-1.18-0.58-1.42-0.79
	c-0.24-0.24-0.39-0.54-0.39-0.97c0-0.39,0.15-0.69,0.45-0.94c0.3-0.24,0.69-0.36,1.21-0.36c0.81,0,1.51,0.21,2.15,0.67v-1.51
	c-0.61-0.3-1.27-0.45-2.03-0.45c-0.97,0-1.79,0.27-2.39,0.78c-0.63,0.51-0.94,1.18-0.94,1.96c0,0.69,0.21,1.27,0.6,1.69
	c0.33,0.36,0.9,0.73,1.69,1.06c0.76,0.33,1.27,0.63,1.54,0.88c0.27,0.24,0.39,0.54,0.39,0.9c0,0.88-0.6,1.33-1.78,1.33
	c-0.91,0-1.72-0.3-2.45-0.9v1.63c0.66,0.4,1.45,0.58,2.32,0.58C66.24,154.53,67.11,154.25,67.72,153.71L67.72,153.71L67.72,153.71z
	 M74.91,144.64c-1.42,0-2.56,0.42-3.41,1.24c-0.9,0.9-1.39,2.17-1.39,3.8c0,1.42,0.39,2.6,1.21,3.47c0.85,0.91,1.96,1.36,3.38,1.36
	c1.45,0,2.56-0.46,3.41-1.37c0.85-0.9,1.27-2.11,1.27-3.62c0-1.54-0.39-2.72-1.18-3.6C77.4,145.06,76.31,144.64,74.91,144.64
	L74.91,144.64L74.91,144.64z M77.85,149.6c0,1.15-0.24,2.05-0.76,2.66c-0.51,0.63-1.27,0.97-2.27,0.97c-0.97,0-1.72-0.34-2.3-0.97
	c-0.57-0.64-0.85-1.51-0.85-2.66c0-1.21,0.3-2.15,0.91-2.78c0.57-0.6,1.33-0.91,2.27-0.91c0.94,0,1.69,0.3,2.23,0.91
	C77.57,147.48,77.84,148.39,77.85,149.6L77.85,149.6L77.85,149.6z M81.93,154.31h1.51v-8.16h2.21v-1.27h-2.21v-1.45
	c0-1.32,0.51-1.99,1.57-1.99c0.36,0,0.72,0.09,0.99,0.24v-1.36c-0.27-0.12-0.63-0.15-1.09-0.15c-0.81,0-1.48,0.24-2.02,0.76
	c-0.63,0.6-0.97,1.39-0.97,2.45v1.55h-1.59v1.27h1.59v8.13L81.93,154.31z M88.12,151.74c0,1.84,0.81,2.78,2.48,2.78
	c0.6,0,1.06-0.1,1.42-0.31v-1.3c-0.28,0.21-0.61,0.31-0.97,0.31c-0.51,0-0.87-0.12-1.08-0.4c-0.21-0.27-0.34-0.73-0.34-1.36v-5.32
	h2.39v-1.27h-2.39v-2.78c-0.52,0.18-1.03,0.33-1.51,0.48v2.29h-1.63v1.27h1.63L88.12,151.74L88.12,151.74z M250.24,169.11
	c-0.51-0.48-1.12-0.73-1.87-0.73c-0.76,0-1.39,0.24-1.91,0.76c-0.51,0.51-0.76,1.14-0.76,1.87c0,0.76,0.24,1.39,0.75,1.87
	c0.51,0.49,1.14,0.73,1.91,0.73c0.75,0,1.39-0.24,1.91-0.76c0.51-0.52,0.78-1.12,0.78-1.87
	C251.03,170.23,250.75,169.6,250.24,169.11L250.24,169.11z M250,172.68c-0.45,0.45-1,0.66-1.66,0.66c-0.66,0-1.21-0.21-1.66-0.66
	c-0.45-0.46-0.69-1.03-0.69-1.7c0-0.66,0.21-1.21,0.67-1.66c0.45-0.45,0.99-0.66,1.69-0.66c0.66,0,1.21,0.21,1.66,0.66
	c0.45,0.46,0.69,1,0.69,1.66C250.69,171.68,250.49,172.22,250,172.68z M248.64,171.14c0.27-0.06,0.49-0.18,0.63-0.33
	c0.15-0.16,0.21-0.37,0.21-0.61c0-0.27-0.09-0.49-0.27-0.63c-0.21-0.17-0.54-0.27-0.97-0.27h-0.96v3.38h0.49v-1.42h0.3
	c0.21,0,0.42,0.21,0.6,0.6l0.36,0.81h0.58l-0.45-0.91C249,171.37,248.82,171.19,248.64,171.14L248.64,171.14L248.64,171.14z
	 M248.31,170.83h-0.52v-1.14h0.43c0.3,0,0.51,0.06,0.63,0.15c0.12,0.09,0.15,0.21,0.15,0.42C249,170.65,248.76,170.83,248.31,170.83
	L248.31,170.83L248.31,170.83z M164.03,144.49h0.42v-3.38h1.12v-0.42h-2.66v0.42h1.12L164.03,144.49L164.03,144.49z M166.59,141.95
	c0-0.33,0-0.6-0.02-0.75c0.03,0.18,0.09,0.3,0.12,0.39l1.3,2.9h0.21l1.3-2.93c0.03-0.09,0.06-0.21,0.12-0.36
	c-0.03,0.3-0.03,0.54-0.03,0.73v2.56h0.45v-3.8h-0.54l-1.18,2.63c-0.03,0.09-0.12,0.28-0.18,0.49h-0.03
	c-0.02-0.12-0.09-0.24-0.17-0.45l-1.18-2.66h-0.61v3.81h0.43v-2.54L166.59,141.95L166.59,141.95z"/>
<path class="st3" d="M285.05,470.44h-10.34c-0.37-17.45-1.37-33.86-3.02-49.24h-0.09l-15.74,49.24h-7.87l-15.65-49.24h-0.09
	c-1.16,14.76-1.89,31.18-2.2,49.24h-9.43c0.61-21.97,2.13-42.56,4.57-61.78h12.82l14.92,45.4h0.09l15.01-45.4h12.26
	C282.97,431.17,284.56,451.77,285.05,470.44 M329.89,424.86c-4.21,22.85-9.77,39.45-16.66,49.81c-5.37,7.98-11.26,11.97-17.66,11.97
	c-1.71,0-3.82-0.52-6.31-1.54v-5.51c1.22,0.18,2.65,0.28,4.3,0.28c2.99,0,5.4-0.82,7.23-2.47c2.19-2.01,3.29-4.27,3.29-6.77
	c0-1.71-0.86-5.22-2.56-10.53l-11.35-35.24h10.16l8.14,26.36c1.83,5.98,2.59,10.16,2.29,12.54c4.45-11.9,7.57-24.87,9.34-38.9
	L329.89,424.86L329.89,424.86L329.89,424.86z"/>
<path class="st4" d="M467.54,470.44h-29.37v-61.78h9.88v54.18h19.49V470.44z M430.48,471.93l-11.36-5.6
	c1.01-0.83,1.97-1.72,2.84-2.76c4.83-5.67,7.24-14.06,7.24-25.17c0-20.44-8.02-30.66-24.07-30.66c-7.87,0-14.01,2.59-18.4,7.78
	c-4.82,5.67-7.23,14.03-7.23,25.08c0,10.86,2.13,18.83,6.4,23.88c3.91,4.58,9.8,6.87,17.67,6.87c2.94,0,5.63-0.36,8.09-1.09
	l14.79,8.61L430.48,471.93z M393.69,458.08c-2.5-4.02-3.75-10.49-3.75-19.4c0-15.56,4.73-23.34,14.19-23.34
	c4.95,0,8.57,1.86,10.89,5.58c2.5,4.03,3.75,10.43,3.75,19.22c0,15.68-4.73,23.53-14.19,23.53
	C399.63,463.66,396.01,461.81,393.69,458.08 M375.19,453.31c0,5.24-1.92,9.54-5.76,12.9c-3.84,3.35-9,5.03-15.46,5.03
	c-6.04,0-11.9-1.93-17.57-5.77l2.66-5.31c4.88,2.44,9.3,3.66,13.26,3.66c3.72,0,6.63-0.83,8.74-2.46c2.11-1.64,3.36-3.95,3.36-6.86
	c0-3.67-2.56-6.81-7.26-9.44c-4.33-2.38-12.99-7.35-12.99-7.35c-4.69-3.42-7.04-7.09-7.04-13.14c0-5.01,1.75-9.05,5.26-12.13
	c3.51-3.09,8.04-4.63,13.59-4.63c5.73,0,10.95,1.54,15.64,4.58l-2.38,5.31c-4.02-1.71-7.98-2.56-11.89-2.56
	c-3.17,0-5.61,0.76-7.31,2.29c-1.71,1.52-2.77,3.47-2.77,5.86c0,3.65,2.61,6.83,7.44,9.51c4.39,2.38,13.26,7.44,13.26,7.44
	C372.79,443.67,375.19,447.31,375.19,453.31"/>
<path class="st3" d="M479.95,387.96c-5.97-0.15-10.6,0.45-14.48,2.09c-1.12,0.45-2.9,0.45-3.06,1.86c0.61,0.6,0.68,1.57,1.2,2.39
	c0.9,1.49,2.46,3.5,3.88,4.55c1.56,1.2,3.14,2.39,4.78,3.43c2.9,1.8,6.19,2.84,9.02,4.63c1.65,1.04,3.29,2.39,4.94,3.51
	c0.81,0.6,1.33,1.57,2.38,1.94v-0.23c-0.53-0.67-0.68-1.64-1.19-2.39l-2.24-2.16c-2.17-2.91-4.86-5.45-7.76-7.54
	c-2.39-1.65-7.62-3.88-8.59-6.64l-0.15-0.15c1.64-0.15,3.59-0.75,5.15-1.21c2.54-0.67,4.86-0.52,7.46-1.19
	c1.2-0.3,2.39-0.68,3.59-1.05v-0.67c-1.35-1.34-2.31-3.13-3.73-4.4c-3.8-3.28-7.99-6.49-12.32-9.18c-2.32-1.5-5.3-2.46-7.77-3.73
	c-0.89-0.45-2.39-0.67-2.91-1.42c-1.34-1.64-2.09-3.8-3.06-5.75c-2.16-4.1-4.25-8.65-6.12-12.99c-1.35-2.91-2.17-5.81-3.81-8.51
	c-7.69-12.69-16.05-20.37-28.89-27.92c-2.76-1.57-6.04-2.24-9.55-3.06l-5.6-0.3c-1.19-0.52-2.39-1.94-3.43-2.62
	c-4.26-2.69-15.23-8.51-18.36-0.82c-2.02,4.86,2.99,9.63,4.7,12.1c1.27,1.71,2.91,3.66,3.8,5.6c0.53,1.27,0.67,2.62,1.2,3.96
	c1.19,3.29,2.31,6.94,3.88,10.01c0.82,1.56,1.71,3.21,2.76,4.62c0.6,0.83,1.64,1.19,1.87,2.54c-1.04,1.49-1.12,3.73-1.72,5.6
	c-2.69,8.43-1.64,18.88,2.17,25.08c1.19,1.87,4.03,5.97,7.83,4.4c3.36-1.34,2.62-5.6,3.59-9.33c0.22-0.9,0.08-1.49,0.52-2.08v0.15
	c1.04,2.09,2.09,4.1,3.06,6.19c2.32,3.65,6.35,7.46,9.71,9.99c1.79,1.35,3.21,3.66,5.45,4.49v-0.22H428
	c-0.45-0.67-1.12-0.97-1.71-1.49c-1.35-1.34-2.84-2.99-3.88-4.48c-3.13-4.18-5.9-8.81-8.36-13.59c-1.2-2.32-2.24-4.85-3.21-7.17
	c-0.45-0.89-0.45-2.24-1.2-2.69c-1.12,1.64-2.76,3.06-3.58,5.07c-1.42,3.22-1.57,7.17-2.1,11.28l-0.29,0.14
	c-2.38-0.6-3.21-3.06-4.11-5.15c-2.24-5.3-2.61-13.82-0.67-19.93c0.52-1.56,2.77-6.49,1.87-7.98c-0.45-1.43-1.94-2.24-2.76-3.37
	c-0.96-1.41-2.02-3.21-2.69-4.78c-1.79-4.18-2.69-8.81-4.62-12.98c-0.9-1.95-2.47-3.96-3.73-5.75c-1.42-2.01-2.99-3.43-4.11-5.82
	c-0.37-0.82-0.89-2.16-0.3-3.06c0.15-0.6,0.45-0.82,1.05-0.97c0.97-0.82,3.73,0.22,4.7,0.67c2.77,1.12,5.08,2.16,7.39,3.73
	c1.05,0.75,2.17,2.17,3.51,2.54h1.57c2.38,0.52,5.07,0.14,7.32,0.82c3.95,1.27,7.54,3.14,10.75,5.15
	c9.78,6.2,17.84,15.01,23.28,25.53c0.89,1.71,1.27,3.29,2.09,5.07c1.57,3.66,3.52,7.39,5.08,10.98c1.57,3.51,3.06,7.09,5.3,10
	c1.12,1.57,5.6,2.39,7.62,3.21c1.49,0.67,3.81,1.26,5.15,2.09c2.54,1.56,5.07,3.36,7.46,5.08
	C475.99,384.6,479.72,386.47,479.95,387.96 M403.8,323.09c-1.03-0.01-2.06,0.12-3.06,0.38v0.15h0.14c0.6,1.19,1.65,2.02,2.39,3.06
	c0.6,1.2,1.12,2.38,1.71,3.58l0.14-0.15c1.05-0.75,1.58-1.94,1.58-3.73c-0.45-0.53-0.52-1.04-0.9-1.57
	C405.37,324.06,404.41,323.69,403.8,323.09"/>
<path class="st4" d="M487.06,470.43h1.55v-7.57h-2.32l-1.89,5.17l-2.06-5.17h-2.23v7.57h1.46v-5.76h0.08l2.15,5.76h1.11l2.15-5.76
	L487.06,470.43L487.06,470.43z M474.6,470.43h1.64v-6.29h2.14v-1.28h-6.01v1.28h2.23L474.6,470.43L474.6,470.43z"/>
<g>
	<path d="M227.6,276.18l-10.48-39.55h9.46l4.65,20.11l2.32,11.39H234l2.38-11.39l4.7-20.11h9.01l-10.48,39.55H227.6z"/>
	<path d="M252.35,270.75l4.93-5.44c2.89,3.17,6.46,4.65,9.97,4.65c4.02,0,6.23-1.87,6.23-5.27c0-2.78-1.47-4.08-5.33-4.7l-4.14-0.68
		c-7.08-1.19-10.09-5.55-10.09-11.33c0-7.59,5.27-12.01,14.22-12.01c6.06,0,10.71,2.04,13.48,5.27l-4.82,5.38
		c-2.1-2.32-5.04-3.74-8.61-3.74c-3.8,0-5.72,1.59-5.72,4.7c0,2.72,1.59,3.91,5.44,4.59l4.14,0.74c6.35,1.13,10.03,4.87,10.03,11.11
		c0,7.42-5.21,12.86-15.13,12.86C260.4,276.86,255.36,274.48,252.35,270.75z"/>
</g>
</svg>
