<?xml version="1.0" encoding="utf-8"?>
<!-- Generator: Adobe Illustrator 26.0.0, SVG Export Plug-In . SVG Version: 6.00 Build 0)  -->
<svg version="1.1" id="Capa_1" xmlns="http://www.w3.org/2000/svg" xmlns:xlink="http://www.w3.org/1999/xlink" x="0px" y="0px"
	 viewBox="0 0 1920 1080" style="enable-background:new 0 0 1920 1080;" xml:space="preserve">
<style type="text/css">
	.st0{fill:#A435F0;}
	.st1{display:none;fill:#A435F0;}
	.st2{display:none;fill:#FFFFFF;}
</style>
<path class="st0" d="M430,388.9l-119.5-69l-119.4,69v-69l119.4-69l119.5,69L430,388.9L430,388.9z"/>
<path d="M191.2,446.8h62.6v152c0,39.3,29.3,58.4,56.9,58.4c27.8,0,56.9-19.7,56.9-58.9V446.8h62.6v155.6c0,36.2-11.4,64.1-34.1,83.2
	c-22.8,19.1-51.2,28.4-85.9,28.4c-34.6,0-63.1-9.3-85.3-28.4c-22.2-19.1-33.6-46-33.6-81.7C191.2,604,191.2,446.8,191.2,446.8z
	 M971,635.7c-18.9,16.9-40.5,25.1-65.1,25.1c-44.9,0-75-25.6-78.4-65.2h202.2c0,0,1.4-12.8,1.4-24.8c0-37.2-11.9-68.3-36.2-93.6
	C971,452,940,439.6,902.2,439.6c-39.8,0-72.4,12.4-98.3,37.7c-25.3,25.3-38.3,58.4-38.3,99.8v2c0,40.9,12.9,73.4,38.3,97.7
	c25.3,24.3,58.9,36.7,99.8,36.7c47.5,0,85.3-18.7,113.7-51C1017.4,662.5,971,635.7,971,635.7z M852.1,508.8
	c13.9-10.9,31-16.5,50.2-16.5c18.1,0,33.1,5.7,46,17.1c12.3,10.4,19,23.1,19.6,37.7H829.1C831.1,532,838.7,519.2,852.1,508.8
	L852.1,508.8z M1600.8,748.7c-25.4,59.9-51.9,80.3-92.7,80.3h-28.2v-55.5h22.8c14,0,27-5.3,39.4-33.9l12.4-28.7l-107-264.2h63.6
	l76,190.3l78.1-190.3h63.6L1600.8,748.7L1600.8,748.7z M673.6,347v123.4c-20.5-18.4-52.4-29.3-83.2-29.3
	c-36.7,0-67.7,12.9-93.1,39.3c-24.8,25.9-37.2,57.9-37.2,96.7c0,38.8,12.4,70.8,37.2,97.2c25.3,25.9,56.4,38.8,93.1,38.8
	c42.3,0,69.1-16.6,83.2-29.7v24h62.1V347L673.6,347L673.6,347z M655,634c-15,15-34.1,22.8-56.4,22.8s-40.3-7.8-55.3-22.8
	c-14.5-15-21.7-34.1-21.7-56.9c0-22.8,7.2-41.9,21.7-56.9c15-15,33.1-22.7,55.3-22.7s41.4,7.8,56.4,22.7
	c15.5,15,23.3,34.1,23.3,56.9C678.3,599.8,670.5,619,655,634z M1351.1,441.6c-47.1,0-71.6,19.6-88.4,38.4
	c-6.7-12.8-25.6-38.4-69.8-38.4c-37.3,0-59.3,18.9-70.3,32.3v-27.1H1061v260.6h61.5v-150c0-35.2,21.7-60.5,50.7-60.5
	c29.5,0,46.6,22.2,46.6,57.9v152.5h61.5v-150c0-35.7,21.2-60.5,51.7-60.5c29.5,0,46.5,22.2,46.5,57.9v152.5h62.1V546.1
	C1441.6,478.1,1405,441.6,1351.1,441.6L1351.1,441.6z"/>
<path class="st1" d="M430.2,388.9L310.6,320l-119.4,68.9V320l119.5-69l119.5,69L430.2,388.9L430.2,388.9z"/>
<path class="st2" d="M191.3,446.8h62.6v152c0,39.3,29.4,58.5,57,58.5c27.7,0,57-19.7,57-59V446.8h62.6v155.6
	c0,36.2-11.4,64.1-34.2,83.3c-22.8,19-51.2,28.4-85.9,28.4s-63.1-9.4-85.4-28.4c-22.3-19.2-33.7-46.1-33.7-81.8V446.8z M971.2,635.7
	c-18.9,16.8-40.5,25.2-65.1,25.2c-44.9,0-75-25.5-78.4-65.1h202.2c0,0,1.4-12.8,1.4-24.8c0-37.2-11.9-68.2-36.2-93.7
	c-23.8-25.3-54.7-37.7-92.5-37.7c-39.8,0-72.4,12.4-98.3,37.7c-25.3,25.3-38.3,58.5-38.3,99.8v2c0,40.8,12.9,73.5,38.3,97.8
	c25.3,24.3,59,36.7,99.8,36.7c47.4,0,85.4-18.7,113.7-51C1017.6,662.6,971.2,635.7,971.2,635.7z M852.2,508.9
	c13.9-10.9,31.1-16.5,50.2-16.5c18,0,33.2,5.6,46.1,17c12.4,10.4,19,23.1,19.6,37.7H829.2C831.3,532,838.9,519.3,852.2,508.9
	L852.2,508.9z M1601,748.8c-25.3,59.9-51.9,80.3-92.7,80.3h-28.2v-55.4h22.8c13.9,0,27-5.3,39.4-33.8l12.4-28.7l-107.1-264.2h63.6
	l76,190.3l78-190.3h63.6L1601,748.8L1601,748.8z M673.8,347v123.4c-20.6-18.4-52.4-29.2-83.3-29.2c-36.7,0-67.7,12.9-93,39.3
	c-24.8,25.8-37.2,58-37.2,96.7s12.4,70.9,37.2,97.3c25.3,25.8,56.4,38.8,93,38.8c42.3,0,69-16.7,83.3-29.8v24h62.1V347H673.8
	L673.8,347z M655.1,634c-15,15-34.2,22.8-56.4,22.8s-40.3-7.8-55.3-22.8c-14.5-15-21.8-34.2-21.8-56.8c0-22.8,7.3-41.8,21.8-57
	c15-15,33.2-22.8,55.3-22.8s41.3,7.8,56.4,22.8c15.5,15,23.3,34.2,23.3,57C678.4,599.9,670.6,619.1,655.1,634z M1351.2,441.6
	c-47.1,0-71.6,19.6-88.4,38.4c-6.8-12.8-25.7-38.4-69.7-38.4c-37.4,0-59.3,18.9-70.4,32.3v-27h-61.6v260.7h61.6v-150
	c0-35.2,21.8-60.5,50.7-60.5c29.6,0,46.6,22.3,46.6,58v152.5h61.6v-150c0-35.7,21.3-60.5,51.7-60.5c29.4,0,46.6,22.3,46.6,58v152.5
	h62.1V546.1C1441.7,478.1,1405.3,441.7,1351.2,441.6L1351.2,441.6z"/>
</svg>
